<?xml version="1.0" encoding="UTF-8"?>
<!DOCTYPE svg PUBLIC "-//W3C//DTD SVG 1.1//EN" "http://www.w3.org/Graphics/SVG/1.1/DTD/svg11.dtd">
<svg version="1.1" xmlns="http://www.w3.org/2000/svg" xmlns:xlink="http://www.w3.org/1999/xlink" x="0" y="0" width="101.483" height="267.366" viewBox="0, 0, 101.483, 267.366">
  <g id="Layer_1">
    <path d="M42.794,262.043 L55.89,257.994 L58.369,256.492 C58.369,256.492 58.273,259.442 58.116,259.817 C57.78,260.626 57.37,261.959 56.025,263.529 C54.405,265.418 50.772,267.076 44.954,266.904 C40.364,266.769 38.744,265.418 38.744,265.418 C38.744,265.418 38.204,262.989 38.204,262.583 L42.794,262.043" fill="#583D26" id="path16018"/>
    <path d="M42.794,262.043 L55.89,257.994 L58.369,256.492 C58.369,256.492 58.273,259.442 58.116,259.817 C57.78,260.626 57.37,261.959 56.025,263.529 C54.405,265.418 50.772,267.076 44.954,266.904 C40.364,266.769 38.744,265.418 38.744,265.418 C38.744,265.418 38.204,262.989 38.204,262.583 z" fill-opacity="0" stroke="#1A1919" stroke-width="0.9" stroke-linecap="round" stroke-linejoin="round" id="path16020"/>
    <path d="M59.18,255.412 L59.011,257.993 C59.011,257.993 57.56,257.977 57.426,257.438 C57.29,256.897 59.18,255.412 59.18,255.412" fill="#573925" id="path16022"/>
    <path d="M59.18,255.412 L59.011,257.993 C59.011,257.993 57.56,257.977 57.426,257.438 C57.29,256.897 59.18,255.412 59.18,255.412 z" fill-opacity="0" stroke="#1A1919" stroke-width="0.9" stroke-linecap="round" stroke-linejoin="round" id="path16024"/>
    <path d="M58.775,255.142 L59.011,257.993 C59.011,257.993 61.458,256.306 61.594,255.766 C61.729,255.225 61.695,252.829 61.695,252.829 L58.775,255.142" fill="#573925" id="path16026"/>
    <path d="M58.775,255.142 L59.011,257.993 C59.011,257.993 61.458,256.306 61.594,255.766 C61.729,255.225 61.695,252.829 61.695,252.829 z" fill-opacity="0" stroke="#1A1919" stroke-width="0.9" stroke-linecap="round" stroke-linejoin="round" id="path16028"/>
    <path d="M38.606,252.701 L39.415,255.131 L41.126,254.952 L41.324,252.701 L38.606,252.701" fill="#583D26" id="path16030"/>
    <path d="M38.606,252.701 L39.415,255.131 L41.126,254.952 L41.324,252.701 z" fill-opacity="0" stroke="#1A1919" stroke-width="0.9" stroke-linecap="round" stroke-linejoin="round" id="path16032"/>
    <path d="M41.189,251.621 L41.126,254.919 C41.126,254.919 43.605,253.808 43.739,253.133 C43.875,252.458 43.605,248.948 43.605,248.948 L41.445,249.623 L41.189,251.621" fill="#583D26" id="path16034"/>
    <path d="M41.189,251.621 L41.126,254.919 C41.126,254.919 43.605,253.808 43.739,253.133 C43.875,252.458 43.605,248.948 43.605,248.948 L41.445,249.623 z" fill-opacity="0" stroke="#1A1919" stroke-width="0.9" stroke-linecap="round" stroke-linejoin="round" id="path16036"/>
    <path d="M17.55,258.668 C17.414,259.208 18.09,261.503 18.09,261.503 C18.09,261.503 19.035,263.123 26.864,262.853 C31.857,262.682 36.18,261.099 38.879,258.398 C39.015,257.993 40.469,255.162 40.469,255.162 L40.333,252.868 C40.333,252.868 28.215,256.373 27.675,256.373 C27.134,256.373 17.55,258.668 17.55,258.668" fill="#583D26" id="path16038"/>
    <path d="M17.55,258.668 C17.414,259.208 18.09,261.503 18.09,261.503 C18.09,261.503 19.035,263.123 26.864,262.853 C31.857,262.682 36.18,261.099 38.879,258.398 C39.015,257.993 40.469,255.162 40.469,255.162 L40.333,252.868 C40.333,252.868 28.215,256.373 27.675,256.373 C27.134,256.373 17.55,258.668 17.55,258.668 z" fill-opacity="0" stroke="#1A1919" stroke-width="0.9" stroke-linecap="round" stroke-linejoin="round" id="path16040"/>
    <path d="M25.447,169.298 C25.852,172.537 26.459,181.853 26.459,184.486 C26.459,187.118 26.054,189.75 26.054,190.966 C26.054,192.18 25.649,197.243 25.649,197.243 C27.472,198.458 36.584,201.091 42.457,197.648 C42.863,196.029 42.863,193.193 43.065,192.18 C43.267,191.168 43.672,186.106 43.672,184.688 C44.077,182.866 45.089,172.133 45.089,171.12 C45.089,170.109 39.217,165.248 38.002,165.046 C36.787,164.843 25.649,164.438 25.447,169.298" fill="#F7CEB2" id="path16042"/>
    <path d="M25.447,169.298 C25.852,172.537 26.459,181.853 26.459,184.486 C26.459,187.118 26.054,189.75 26.054,190.966 C26.054,192.18 25.649,197.243 25.649,197.243 C27.472,198.458 36.584,201.091 42.457,197.648 C42.863,196.029 42.863,193.193 43.065,192.18 C43.267,191.168 43.672,186.106 43.672,184.688 C44.077,182.866 45.089,172.133 45.089,171.12 C45.089,170.109 39.217,165.248 38.002,165.046 C36.787,164.843 25.649,164.438 25.447,169.298 z" fill-opacity="0" stroke="#1A1919" stroke-width="0.9" stroke-linecap="round" stroke-linejoin="round" id="path16044"/>
    <path d="M42.457,197.648 C36.584,201.091 27.472,198.458 25.649,197.243 C25.447,201.495 25.447,213.241 26.662,219.721 C27.877,226.201 29.496,240.781 29.496,242.603 C29.496,244.425 28.687,247.058 28.687,247.058 C28.687,247.058 36.382,248.678 37.192,248.678 C38.002,248.678 41.241,247.665 41.445,247.058 C41.647,246.451 42.052,244.021 42.052,244.021 C41.647,243.008 41.039,239.566 41.039,237.54 C41.039,235.516 42.863,218.911 43.065,215.063 C43.267,211.216 43.065,198.863 42.457,197.648" fill="#292B3A" id="path16046"/>
    <path d="M42.457,197.648 C36.584,201.091 27.472,198.458 25.649,197.243 C25.447,201.495 25.447,213.241 26.662,219.721 C27.877,226.201 29.496,240.781 29.496,242.603 C29.496,244.425 28.687,247.058 28.687,247.058 C28.687,247.058 36.382,248.678 37.192,248.678 C38.002,248.678 41.241,247.665 41.445,247.058 C41.647,246.451 42.052,244.021 42.052,244.021 C41.647,243.008 41.039,239.566 41.039,237.54 C41.039,235.516 42.863,218.911 43.065,215.063 C43.267,211.216 43.065,198.863 42.457,197.648 z" fill-opacity="0" stroke="#1A1919" stroke-width="0.9" stroke-linecap="round" stroke-linejoin="round" id="path16048"/>
    <path d="M30.914,243.144 C30.509,242.873 28.754,243.144 28.484,244.223 C28.215,245.303 27.271,247.733 26.729,248.678 C26.19,249.623 22.409,253.404 21.734,254.078 C21.195,253.943 20.25,254.752 19.44,255.832 C18.63,256.913 14.31,260.558 23.219,260.828 C32.129,261.098 35.843,258.976 36.989,257.993 C37.935,257.183 38.474,255.698 39.15,255.159 C39.824,254.618 40.77,253.404 40.77,253.404 L43.334,251.513 C43.875,250.162 44.28,247.328 41.986,243.412 L41.039,243.953 C41.039,243.953 40.77,246.654 39.824,246.788 C39.96,245.303 39.96,244.224 39.015,243.548 C38.07,242.873 33.074,243.009 30.914,243.144" fill="#66462B" id="path16050"/>
    <path d="M30.914,243.144 C30.509,242.873 28.754,243.144 28.484,244.223 C28.215,245.303 27.271,247.733 26.729,248.678 C26.19,249.623 22.409,253.404 21.734,254.078 C21.195,253.943 20.25,254.752 19.44,255.832 C18.63,256.913 14.31,260.558 23.219,260.828 C32.129,261.098 35.843,258.976 36.989,257.993 C37.935,257.183 38.474,255.698 39.15,255.159 C39.824,254.618 40.77,253.404 40.77,253.404 L43.334,251.513 C43.875,250.162 44.28,247.328 41.986,243.412 L41.039,243.953 C41.039,243.953 40.77,246.654 39.824,246.788 C39.96,245.303 39.96,244.224 39.015,243.548 C38.07,242.873 33.074,243.009 30.914,243.144 z M39.824,246.788 C39.555,246.923 35.1,253.134 33.75,254.078 C32.399,255.023 27.269,255.564 25.38,255.293 C23.489,255.023 20.925,254.752 21.06,254.212" fill-opacity="0" stroke="#1A1919" stroke-width="0.9" stroke-linecap="round" stroke-linejoin="round" id="path16052"/>
    <path d="M46.845,170.513 C46.845,171.457 46.573,186.578 46.573,188.063 C46.573,189.548 47.52,193.266 47.52,195.623 C47.52,196.568 47.789,198.997 47.789,198.997 C48.869,199.808 55.619,203.318 64.125,198.053 C64.26,196.433 63.855,192.653 63.989,190.897 C64.125,189.143 64.8,183.203 65.07,181.718 C65.339,180.234 67.905,169.162 67.905,169.162 C67.905,169.162 51.165,166.734 46.845,170.513" fill="#F7CEB2" id="path16054"/>
    <path d="M46.845,170.513 C46.845,171.457 46.573,186.578 46.573,188.063 C46.573,189.548 47.52,193.266 47.52,195.623 C47.52,196.568 47.789,198.997 47.789,198.997 C48.869,199.808 55.619,203.318 64.125,198.053 C64.26,196.433 63.855,192.653 63.989,190.897 C64.125,189.143 64.8,183.203 65.07,181.718 C65.339,180.234 67.905,169.162 67.905,169.162 C67.905,169.162 51.165,166.734 46.845,170.513 z" fill-opacity="0" stroke="#1A1919" stroke-width="0.9" stroke-linecap="round" stroke-linejoin="round" id="path16056"/>
    <path d="M64.125,198.053 C55.619,203.318 48.869,199.808 47.789,198.997 C47.52,205.748 48.938,235.516 49.14,241.591 C48.938,242.603 49.14,247.058 48.127,248.678 C48.127,248.678 54.809,250.906 55.619,250.906 C56.429,250.906 59.669,247.26 59.669,247.26 C59.669,245.641 60.074,241.388 60.277,238.958 C60.479,236.529 64.934,214.455 64.732,207.571 C64.53,200.686 64.125,198.053 64.125,198.053" fill="#292B3A" id="path16058"/>
    <path d="M64.125,198.053 C55.619,203.318 48.869,199.808 47.789,198.997 C47.52,205.748 48.938,235.516 49.14,241.591 C48.938,242.603 49.14,247.058 48.127,248.678 C48.127,248.678 54.809,250.906 55.619,250.906 C56.429,250.906 59.669,247.26 59.669,247.26 C59.669,245.641 60.074,241.388 60.277,238.958 C60.479,236.529 64.934,214.455 64.732,207.571 C64.53,200.686 64.125,198.053 64.125,198.053 z" fill-opacity="0" stroke="#1A1919" stroke-width="0.9" stroke-linecap="round" stroke-linejoin="round" id="path16060"/>
    <path d="M48.889,244.784 C48.044,245.071 47.655,245.843 47.25,247.194 C46.845,248.543 44.414,252.19 43.199,253.944 C41.986,255.698 41.039,257.588 40.634,257.994 C40.229,258.399 38.879,260.154 38.61,261.099 C38.339,262.043 37.538,264.256 41.647,264.675 C47.756,265.3 52.919,264.879 55.214,262.043 C57.509,259.209 57.155,259.057 57.426,258.246 C57.695,257.438 60.395,254.331 60.8,253.926 C61.205,253.522 61.744,253.252 61.744,253.252 C62.015,252.578 63.484,246.703 60.783,244.678 C60.783,244.678 60.345,244.256 60.074,244.527 L59.011,245.236 L58.707,248.324 C57.898,248.864 56.565,249.894 56.565,249.894 C56.698,248.543 56.97,247.329 56.025,247.059 C55.079,246.788 51.03,247.194 50.085,247.059 C49.14,246.924 48.464,246.924 48.632,247.177 L48.889,244.784" fill="#66462B" id="path16062"/>
    <path d="M48.889,244.784 C48.044,245.071 47.655,245.843 47.25,247.194 C46.845,248.543 44.414,252.19 43.199,253.944 C41.986,255.698 41.039,257.588 40.634,257.994 C40.229,258.399 38.879,260.154 38.61,261.099 C38.339,262.043 37.538,264.256 41.647,264.675 C47.756,265.3 52.919,264.879 55.214,262.043 C57.509,259.209 57.155,259.057 57.426,258.246 C57.695,257.438 60.395,254.331 60.8,253.926 C61.205,253.522 61.744,253.252 61.744,253.252 C62.015,252.578 63.484,246.703 60.783,244.678 C60.783,244.678 60.345,244.256 60.074,244.527 L59.011,245.236 L58.707,248.324 C57.898,248.864 56.565,249.894 56.565,249.894 C56.698,248.543 56.97,247.329 56.025,247.059 C55.079,246.788 51.03,247.194 50.085,247.059 C49.14,246.924 48.464,246.924 48.632,247.177 z M56.565,249.894 C56.16,250.974 53.055,257.453 51.705,258.534 C50.354,259.614 48.599,260.154 47.114,260.154 C45.63,260.154 42.524,260.287 41.714,258.939 C40.905,257.588 42.119,255.564 42.524,255.024" fill-opacity="0" stroke="#1A1919" stroke-width="0.9" stroke-linecap="round" stroke-linejoin="round" id="path16064"/>
    <path d="M18.157,136.696 C17.347,138.316 11.272,160.793 11.07,164.641 C13.094,167.273 27.067,171.12 28.282,170.716 C29.496,170.311 29.294,168.488 29.294,168.488 L32.738,168.083 C32.534,169.298 31.927,172.133 31.927,172.133 C35.166,173.753 53.19,174.968 58.252,173.146 C58.657,172.133 58.454,171.323 58.454,171.323 L59.063,171.323 C59.063,171.323 58.86,172.537 59.467,172.741 C63.113,173.55 78.502,169.5 79.919,168.286 C81.337,167.071 81.337,168.488 81.337,167.071 C81.337,165.654 77.084,141.758 76.882,140.341 C76.679,138.923 49.949,134.468 49.14,134.266 C48.329,134.063 21.195,134.266 21.195,134.266 L18.157,136.696" fill="#9FA096" id="path16066"/>
    <path d="M18.157,136.696 C17.347,138.316 11.272,160.793 11.07,164.641 C13.094,167.273 27.067,171.12 28.282,170.716 C29.496,170.311 29.294,168.488 29.294,168.488 L32.738,168.083 C32.534,169.298 31.927,172.133 31.927,172.133 C35.166,173.753 53.19,174.968 58.252,173.146 C58.657,172.133 58.454,171.323 58.454,171.323 L59.063,171.323 C59.063,171.323 58.86,172.537 59.467,172.741 C63.113,173.55 78.502,169.5 79.919,168.286 C81.337,167.071 81.337,168.488 81.337,167.071 C81.337,165.654 77.084,141.758 76.882,140.341 C76.679,138.923 49.949,134.468 49.14,134.266 C48.329,134.063 21.195,134.266 21.195,134.266 z M33.547,141.758 C33.547,143.986 29.092,165.654 29.294,168.488 M34.762,143.175 C35.166,147.023 33.345,163.223 32.738,168.083 M56.632,144.593 C56.632,146.212 58.05,168.083 58.454,171.323 M58.252,144.391 C58.454,146.415 59.467,167.88 59.467,171.93 M47.789,198.997 C48.869,199.808 55.619,203.318 64.125,198.053" fill-opacity="0" stroke="#1A1919" stroke-width="0.9" stroke-linecap="round" stroke-linejoin="round" id="path16068"/>
    <path d="M48.889,247.135 C48.889,247.135 48.055,246.908 47.751,247.287" fill="#66462B" id="path16070"/>
    <path d="M48.889,247.135 C48.889,247.135 48.055,246.908 47.751,247.287" fill-opacity="0" stroke="#1A1919" stroke-width="0.9" stroke-linecap="round" stroke-linejoin="round" id="path16072"/>
    <path d="M72.731,25.625 C74.881,29.663 76.679,32.51 78.097,36.357 C79.028,38.882 79.615,41.318 78.3,46.077 C77.138,50.274 73.54,54.481 72.933,55.088 C72.325,55.696 26.658,56.073 26.658,56.073 C24.442,57.657 21.274,50.478 21.168,47.627 C21.063,44.776 24.23,42.349 27.609,39.182 C27.925,38.02 29.72,35.697 30.037,35.381 C30.143,34.641 29.086,31.158 28.136,28.096 C26.982,24.377 25.708,21.973 26.236,18.066 C27.148,11.315 32.676,6.77 33.732,6.664 C36.686,3.856 43.165,-0.7 52.278,0.717 C55.012,0.717 61.998,2.337 65.238,8.513 C68.478,14.689 69.39,19.347 72.731,25.625" fill="#50341D" id="path16074"/>
    <path d="M72.731,25.625 C74.881,29.663 76.679,32.51 78.097,36.357 C79.028,38.882 79.615,41.318 78.3,46.077 C77.138,50.274 73.54,54.481 72.933,55.088 C72.325,55.696 26.658,56.073 26.658,56.073 C24.442,57.657 21.274,50.478 21.168,47.627 C21.063,44.776 24.23,42.349 27.609,39.182 C27.925,38.02 29.72,35.697 30.037,35.381 C30.143,34.641 29.086,31.158 28.136,28.096 C26.982,24.377 25.708,21.973 26.236,18.066 C27.148,11.315 32.676,6.77 33.732,6.664 C36.686,3.856 43.165,-0.7 52.278,0.717 C55.012,0.717 61.998,2.337 65.238,8.513 C68.478,14.689 69.39,19.347 72.731,25.625 z" fill-opacity="0" stroke="#1A1919" stroke-width="0.9" stroke-linecap="round" stroke-linejoin="round" id="path16076"/>
    <path d="M36.787,53.671 L28.89,57.518 C28.89,57.518 25.042,80.401 24.84,81.008 C24.637,81.616 22.315,121.243 21.802,122.116 C19.777,125.558 16.132,135.076 16.739,136.898 C17.752,138.113 30.914,145.133 38.813,144.188 C40.822,143.948 42.863,141.353 42.863,141.353 C43.267,141.96 46.538,143.592 48.735,144.796 C55.755,148.643 76.679,144.188 78.3,143.784 C79.919,143.378 78.097,132.848 78.097,131.43 C78.097,130.013 71.616,66.631 71.414,65.011 C71.212,63.391 64.53,56.506 64.53,56.506 L55.214,51.848 L36.787,53.671" fill="#302E55" id="path16078"/>
    <path d="M36.787,53.671 L28.89,57.518 C28.89,57.518 25.042,80.401 24.84,81.008 C24.637,81.616 22.315,121.243 21.802,122.116 C19.777,125.558 16.132,135.076 16.739,136.898 C17.752,138.113 30.914,145.133 38.813,144.188 C40.822,143.948 42.863,141.353 42.863,141.353 C43.267,141.96 46.538,143.592 48.735,144.796 C55.755,148.643 76.679,144.188 78.3,143.784 C79.919,143.378 78.097,132.848 78.097,131.43 C78.097,130.013 71.616,66.631 71.414,65.011 C71.212,63.391 64.53,56.506 64.53,56.506 L55.214,51.848 z" fill-opacity="0" stroke="#1A1919" stroke-width="0.9" stroke-linecap="round" stroke-linejoin="round" id="path16080"/>
    <path d="M46.462,88.78 C47.307,88.041 58.498,67.877 59.026,65.554 C59.554,63.232 63.143,50.563 63.143,50.563 C62.72,49.824 59.976,47.713 59.026,46.763 C58.075,45.812 56.386,44.545 55.225,44.756 C54.064,44.968 41.289,47.395 41.289,47.395 C40.55,47.818 39.494,49.084 39.072,50.352 C38.166,50.162 36.9,50.689 36.266,51.429 C35.633,55.546 34.682,63.464 34.999,66.103 C35.317,68.743 40.49,83.523 45.767,89.329 L46.462,88.78" fill="#FFFFFE" id="path16082"/>
    <path d="M46.462,88.78 C47.307,88.041 58.498,67.877 59.026,65.554 C59.554,63.232 63.143,50.563 63.143,50.563 C62.72,49.824 59.976,47.713 59.026,46.763 C58.075,45.812 56.386,44.545 55.225,44.756 C54.064,44.968 41.289,47.395 41.289,47.395 C40.55,47.818 39.494,49.084 39.072,50.352 C38.166,50.162 36.9,50.689 36.266,51.429 C35.633,55.546 34.682,63.464 34.999,66.103 C35.317,68.743 40.49,83.523 45.767,89.329 z" fill-opacity="0" stroke="#1A1919" stroke-width="0.9" stroke-linecap="round" stroke-linejoin="round" id="path16084"/>
    <path d="M43.084,48.239 C43.296,48.872 43.401,51.512 43.19,51.934 C42.979,52.357 42.24,52.568 42.24,52.568 C43.401,54.257 44.72,55.662 45.196,56.052 C46.357,57.003 49.419,59.008 49.419,59.008 C50.792,58.057 56.915,52.04 57.655,50.773 C57.549,50.456 57.126,49.295 57.126,49.295 C57.021,48.872 57.232,43.172 57.443,42.222 L43.084,48.239" fill="#F7CEB2" id="path16086"/>
    <path d="M43.084,48.239 C43.296,48.872 43.401,51.512 43.19,51.934 C42.979,52.357 42.24,52.568 42.24,52.568 C43.401,54.257 44.72,55.662 45.196,56.052 C46.357,57.003 49.419,59.008 49.419,59.008 C50.792,58.057 56.915,52.04 57.655,50.773 C57.549,50.456 57.126,49.295 57.126,49.295 C57.021,48.872 57.232,43.172 57.443,42.222 z" fill-opacity="0" stroke="#1A1919" stroke-width="0.9" stroke-linecap="round" stroke-linejoin="round" id="path16088"/>
    <path d="M36.011,13.822 C34.427,13.505 33.9,14.139 32.738,21.001 C32.633,21.424 31.576,26.596 31.683,28.602 C31.788,30.608 31.576,37.892 32.844,40.426 C34.111,42.96 40.552,49.083 44.985,49.506 C49.419,49.929 57.699,44.077 59.343,42.432 C61.137,40.638 62.72,38.103 63.671,35.57 C64.621,33.037 60.61,22.162 58.605,19.1 C56.598,16.039 42.451,8.227 36.011,13.822" fill="#F7CEB2" id="path16090"/>
    <path d="M34.289,33.893 C33.381,33.893 32.56,34.17 31.954,34.613 L32.286,38.51 C32.847,38.827 33.536,39.023 34.289,39.023 C36.154,39.023 37.664,37.873 37.664,36.457 C37.664,35.04 36.154,33.893 34.289,33.893 z" fill="#F2B8AA" id="path16186"/>
    <path d="M36.011,13.822 C34.427,13.505 33.9,14.139 32.738,21.001 C32.633,21.424 31.576,26.596 31.683,28.602 C31.788,30.608 31.576,37.892 32.844,40.426 C34.111,42.96 40.552,49.083 44.985,49.506 C49.419,49.929 57.699,44.077 59.343,42.432 C61.137,40.638 62.72,38.103 63.671,35.57 C64.621,33.037 60.61,22.162 58.605,19.1 C56.598,16.039 42.451,8.227 36.011,13.822 z M45.345,41.61 C46.401,42.138 49.569,39.71 51.047,37.81" fill-opacity="0" stroke="#1A1919" stroke-width="0.9" stroke-linecap="round" stroke-linejoin="round" id="path16092"/>
    <path d="M35.445,30.521 C35.737,31.558 35.634,32.496 35.213,32.616 C34.792,32.735 34.214,31.989 33.921,30.951 C33.627,29.913 33.732,28.975 34.153,28.856 C34.573,28.738 35.152,29.483 35.445,30.521" fill="#1A1919" id="path16094"/>
    <path d="M47.585,28.726 C47.878,29.764 47.776,30.702 47.355,30.821 C46.934,30.94 46.354,30.194 46.062,29.157 C45.769,28.118 45.871,27.18 46.292,27.061 C46.714,26.943 47.293,27.688 47.585,28.726" fill="#1A1919" id="path16096"/>
    <path d="M36.281,8.31 C40.736,3.349 49.342,0.616 53.595,0.919" fill-opacity="0" stroke="#1A1919" stroke-width="0.9" stroke-linecap="round" stroke-linejoin="round" id="path16098"/>
    <path d="M49.646,58.733 C49.646,58.733 53.19,57.721 54.708,59.442 C56.227,61.163 58.05,64.302 59.163,64.707" fill-opacity="0" stroke="#1A1919" stroke-width="0.45" stroke-linecap="round" stroke-linejoin="round" id="path16100"/>
    <path d="M54.708,59.442 C53.19,57.721 49.646,58.733 49.646,58.733 L49.419,59.008 C48.633,59.644 47.013,60.05 46.406,59.847 C45.798,59.644 42.356,57.62 41.241,57.62 C40.794,57.62 40.265,58.52 39.719,59.643 C40.027,59.797 39.926,58.278 44.229,63.138 C44.026,63.847 44.431,65.466 44.482,65.973 L44.785,66.732 C44.583,67.238 43.875,70.073 43.773,72.098 C43.672,74.427 42.542,84.52 42.803,85.194 C43.48,86.94 44.765,88.226 45.767,89.329 L46.462,88.78 C46.801,88.485 48.789,85.088 51.091,80.967 C51.726,74.648 51.366,68.453 50.354,66.226 L50.557,65.517 C50.557,64.707 50.658,63.289 50.759,62.479 C52.278,61.973 53.493,60.758 54.708,59.442" fill="#DC3D5A" id="path16102"/>
    <path d="M54.708,59.442 C53.19,57.721 49.646,58.733 49.646,58.733 L49.419,59.008 C48.633,59.644 47.013,60.05 46.406,59.847 C45.798,59.644 42.356,57.62 41.241,57.62 C40.794,57.62 40.265,58.52 39.719,59.643 C40.027,59.797 39.926,58.278 44.229,63.138 C44.026,63.847 44.431,65.466 44.482,65.973 L44.785,66.732 C44.583,67.238 43.875,70.073 43.773,72.098 C43.672,74.427 42.542,84.52 42.803,85.194 C43.48,86.94 44.765,88.226 45.767,89.329 L46.462,88.78 C46.801,88.485 48.789,85.088 51.091,80.967 C51.726,74.648 51.366,68.453 50.354,66.226 L50.557,65.517 C50.557,64.707 50.658,63.289 50.759,62.479 C52.278,61.973 53.493,60.758 54.708,59.442 M49.419,59.008 C48.633,59.644 47.013,60.05 46.406,59.847 C45.798,59.644 42.356,57.62 41.241,57.62 C40.128,57.62 38.508,63.188 37.395,63.897 C37.395,63.492 36.281,59.341 36.281,59.341 M49.646,58.733 C49.646,58.733 53.19,57.721 54.708,59.442 C56.227,61.163 58.05,64.302 59.163,64.707 M45.191,59.543 C44.28,61.265 43.976,62.176 43.976,63.391 M49.14,59.239 C49.646,59.543 50.962,61.568 50.759,62.479 M44.785,66.732 C45.798,67.137 49.14,66.833 50.354,66.226" fill-opacity="0" stroke="#1A1919" stroke-width="0.9" stroke-linecap="round" stroke-linejoin="round" id="path16104"/>
    <path d="M63.113,71.491 C63.113,72.301 58.454,89.513 58.252,91.437 C58.05,93.361 58.05,95.993 58.151,97.816 C58.252,99.638 61.289,132.241 61.594,133.455 C61.897,134.671 62.302,135.076 63.821,135.177 C65.339,135.279 76.984,133.861 81.033,130.722 C81.439,129.709 81.539,123.836 81.439,122.723 C81.337,121.61 98.145,102.169 98.245,101.258 C98.347,100.347 98.752,93.867 96.221,90.931 C96.019,90.222 95.512,88.703 94.601,88.501 C93.993,86.071 91.361,81.616 89.133,78.781 C86.906,75.946 80.693,61.682 77.793,59.239 C73.946,56 66.859,54.177 66.859,54.177 C66.859,54.177 63.618,68.858 63.113,71.491" fill="#424A76" id="path16106"/>
    <path d="M63.113,71.491 C63.113,72.301 58.454,89.513 58.252,91.437 C58.05,93.361 58.05,95.993 58.151,97.816 C58.252,99.638 61.289,132.241 61.594,133.455 C61.897,134.671 62.302,135.076 63.821,135.177 C65.339,135.279 76.984,133.861 81.033,130.722 C81.439,129.709 81.539,123.836 81.439,122.723 C81.337,121.61 98.145,102.169 98.245,101.258 C98.347,100.347 98.752,93.867 96.221,90.931 C96.019,90.222 95.512,88.703 94.601,88.501 C93.993,86.071 91.361,81.616 89.133,78.781 C86.906,75.946 80.693,61.682 77.793,59.239 C73.946,56 66.859,54.177 66.859,54.177 C66.859,54.177 63.618,68.858 63.113,71.491 z M58.252,95.183 C58.86,92.753 60.986,89.716 62.606,86.779 C64.226,83.844 66.048,78.983 66.453,76.351 M33.04,9.931 C31.219,11.956 25.346,15.398 28.079,25.827" fill-opacity="0" stroke="#1A1919" stroke-width="0.9" stroke-linecap="round" stroke-linejoin="round" id="path16108"/>
    <path d="M64.53,14.082 C64.631,14.487 64.53,17.93 64.428,19.347" fill-opacity="0" stroke="#1A1919" stroke-width="0.45" stroke-linecap="round" stroke-linejoin="round" id="path16110"/>
    <path d="M35.166,58.328 C35.842,55.223 34.964,51.983 33.345,52.524 C31.725,53.063 25.649,55.494 23.624,58.328 C21.599,61.163 12.285,78.983 10.935,84.518 C10.935,84.518 7.699,101.932 10.53,108.412 C13.905,116.142 20.384,112.734 21.599,110.303 C21.329,114.894 17.55,128.393 17.145,129.338 C17.145,129.338 25.919,133.523 27.134,133.659 C28.349,133.793 29.565,133.118 29.97,132.443 C30.51,131.093 34.053,119.381 32.94,103.181 C31.825,86.982 32.231,82.932 32.534,75.845 C32.838,68.757 34.458,61.366 35.166,60.151 L35.166,58.328" fill="#424A76" id="path16112"/>
    <path d="M35.166,58.328 C35.842,55.223 34.964,51.983 33.345,52.524 C31.725,53.063 25.649,55.494 23.624,58.328 C21.599,61.163 12.285,78.983 10.935,84.518 C10.935,84.518 7.699,101.932 10.53,108.412 C13.905,116.142 20.384,112.734 21.599,110.303 C21.329,114.894 17.55,128.393 17.145,129.338 C17.145,129.338 25.919,133.523 27.134,133.659 C28.349,133.793 29.565,133.118 29.97,132.443 C30.51,131.093 34.053,119.381 32.94,103.181 C31.825,86.982 32.231,82.932 32.534,75.845 C32.838,68.757 34.458,61.366 35.166,60.151 z M22.949,67.643 C22.503,71.067 22.41,91.165 22.41,96.939 C22.41,97.816 22.005,106.895 21.599,110.303 M28.21,60.115 C27.932,60.514 24.75,64.503 25.005,65.319 C25.527,66.274 27.766,69.152 28.161,69.701 C27.183,71.437 24.704,75.349 24.165,75.338 C24.57,82.899 27.27,92.045 31.927,99.74 C31.927,99.74 32.534,100.549 32.635,100.853" fill-opacity="0" stroke="#1A1919" stroke-width="0.9" stroke-linecap="round" stroke-linejoin="round" id="path16114"/>
    <path d="M15.828,103.688 C15.828,103.688 13.905,103.486 12.791,103.284 C11.677,103.08 8.639,101.933 7.93,101.662 L8.91,100.853 C10.394,100.583 12.015,99.369 11.745,98.693 C11.474,98.018 7.593,98.187 6.108,98.727 L6.412,96.196 L7.526,94.71 C9.989,94.508 10.8,94.474 11.07,93.664 C11.474,92.955 11.88,92.618 10.664,92.213 C9.449,91.808 7.829,91.943 7.425,91.943 L5.264,92.348 L4.995,91.235 C4.995,91.235 4.961,91.201 6.614,90.526 C7.733,90.07 8.91,89.244 8.774,88.163 C7.289,87.623 8.1,88.028 5.804,87.893 C5.67,87.893 3.678,88.501 3.678,88.501 C5.905,86.375 6.075,83.978 5.264,84.113 C4.724,84.113 3.644,84.384 3.105,84.788 C2.565,85.193 0.54,86.409 0.405,87.219 C0.269,88.028 0.405,91.673 0.81,92.484 C1.215,93.293 1.62,93.698 1.62,93.698 C1.62,95.319 1.62,95.183 2.16,96.398 C2.699,98.828 2.834,98.693 3.509,99.503 C4.05,101.529 4.319,102.743 5.13,103.553 C5.94,104.363 6.614,104.228 7.155,104.498 C7.323,104.701 9.551,105.106 9.551,105.106 C9.551,105.106 9.754,106.118 10.057,106.321 C10.361,106.523 13.499,109.359 15.524,106.017 C15.929,105.41 15.828,103.688 15.828,103.688" fill="#F7CEB2" id="path16116"/>
    <path d="M15.828,103.688 C15.828,103.688 13.905,103.486 12.791,103.284 C11.677,103.08 8.639,101.933 7.93,101.662 L8.91,100.853 C10.394,100.583 12.015,99.369 11.745,98.693 C11.474,98.018 7.593,98.187 6.108,98.727 L6.412,96.196 L7.526,94.71 C9.989,94.508 10.8,94.474 11.07,93.664 C11.474,92.955 11.88,92.618 10.664,92.213 C9.449,91.808 7.829,91.943 7.425,91.943 L5.264,92.348 L4.995,91.235 C4.995,91.235 4.961,91.201 6.614,90.526 C7.733,90.07 8.91,89.244 8.774,88.163 C7.289,87.623 8.1,88.028 5.804,87.893 C5.67,87.893 3.678,88.501 3.678,88.501 C5.905,86.375 6.075,83.978 5.264,84.113 C4.724,84.113 3.644,84.384 3.105,84.788 C2.565,85.193 0.54,86.409 0.405,87.219 C0.269,88.028 0.405,91.673 0.81,92.484 C1.215,93.293 1.62,93.698 1.62,93.698 C1.62,95.319 1.62,95.183 2.16,96.398 C2.699,98.828 2.834,98.693 3.509,99.503 C4.05,101.529 4.319,102.743 5.13,103.553 C5.94,104.363 6.614,104.228 7.155,104.498 C7.323,104.701 9.551,105.106 9.551,105.106 C9.551,105.106 9.754,106.118 10.057,106.321 C10.361,106.523 13.499,109.359 15.524,106.017 C15.929,105.41 15.828,103.688 15.828,103.688 z" fill-opacity="0" stroke="#1A1919" stroke-width="0.7" stroke-linecap="round" stroke-linejoin="round" id="path16118"/>
    <path d="M33.952,10.437 C35.369,12.766 43.773,29.675 52.481,24.916 C55.721,31.497 60.074,34.737 61.998,38.584 C63.922,42.432 63.72,46.077 62.1,50.836 C60.615,55.195 59.53,61.806 61.262,68.571 C62.403,72.402 65.644,76.452 65.946,80.3 C66.757,78.477 67.465,74.528 67.465,70.073 C67.465,66.24 71.111,57.214 72.933,55.088 C73.54,54.481 77.138,50.274 78.3,46.077 C79.615,41.318 79.028,38.882 78.097,36.357 C76.679,32.51 74.881,29.663 72.731,25.625 C69.39,19.347 68.478,14.689 65.238,8.513" fill="#50341D" id="path16120"/>
    <path d="M33.952,10.437 C35.369,12.766 43.773,29.675 52.481,24.916 C55.721,31.497 60.074,34.737 61.998,38.584 C63.922,42.432 63.72,46.077 62.1,50.836 C60.615,55.195 59.53,61.806 61.262,68.571 C62.403,72.402 65.644,76.452 65.946,80.3 C66.757,78.477 67.465,74.528 67.465,70.073 C67.465,66.24 71.111,57.214 72.933,55.088 C73.54,54.481 77.138,50.274 78.3,46.077 C79.615,41.318 79.028,38.882 78.097,36.357 C76.679,32.51 74.881,29.663 72.731,25.625 C69.39,19.347 68.478,14.689 65.238,8.513" fill-opacity="0" stroke="#1A1919" stroke-width="0.9" stroke-linecap="round" stroke-linejoin="round" id="path16122"/>
    <path d="M14.917,104.194 C14.816,105.106 14.31,110.067 9.449,106.017 C9.449,106.017 10.867,107.941 11.474,108.447 C12.082,108.953 17.651,110.168 18.866,103.789 L14.917,104.194" fill="#FFFFFE" id="path16124"/>
    <path d="M14.917,104.194 C14.816,105.106 14.31,110.067 9.449,106.017 C9.449,106.017 10.867,107.941 11.474,108.447 C12.082,108.953 17.651,110.168 18.866,103.789 z" fill-opacity="0" stroke="#1A1919" stroke-width="0.9" stroke-linecap="round" stroke-linejoin="round" id="path16126"/>
    <path d="M6.836,98.678 C6.413,98.618 5.384,99.404 5.202,100.192" fill-opacity="0" stroke="#1A1919" stroke-width="0.45" stroke-linecap="round" stroke-linejoin="round" id="path16128"/>
    <path d="M19.068,97.31 C19.777,97.613 21.498,98.018 22.207,98.625 M41.95,50.026 C41.748,51.14 41.85,51.95 42.457,52.76 M58.556,49.216 C58.454,49.519 58.372,49.698 57.655,50.773" fill-opacity="0" stroke="#1A1919" stroke-width="0.9" stroke-linecap="round" stroke-linejoin="round" id="path16130"/>
    <path d="M74.974,68.801 C73.793,68.098 72.188,67.312 70.706,66.732 C68.377,65.821 68.377,66.833 68.478,67.643 C68.579,68.453 69.288,68.959 69.896,69.263 C70.503,69.567 71.414,70.377 71.82,70.579 C72.225,70.782 74.857,73.516 74.958,73.82 C75.059,74.123 75.16,74.731 75.16,74.731 C73.845,73.313 71.009,71.592 71.009,71.592 C70.706,71.39 67.972,70.883 67.263,71.086 C66.554,71.288 66.048,72.2 66.15,72.807 C66.251,73.414 67.465,74.224 67.77,74.224 C68.072,74.224 69.49,74.933 69.794,75.035 C70.098,75.136 72.427,77.363 72.325,77.87 C71.82,77.161 68.377,75.541 68.377,75.541 C68.377,75.541 67.162,75.845 67.263,76.756 C67.364,77.667 69.085,80.097 71.009,81.616 C69.694,81.11 68.072,78.983 66.959,79.388 C66.757,79.793 65.946,80.704 67.263,82.426 L67.87,83.135 C67.87,83.135 70.199,85.16 70.503,85.463 C72.528,90.222 76.275,90.829 77.489,90.728 C77.489,90.728 78.502,91.943 78.907,92.247 C81.236,91.64 84.476,84.754 84.476,84.147 L84.172,83.844 C84.172,83.844 83.665,82.527 83.463,81.312 C83.26,80.097 81.134,74.326 80.628,73.617 C80.021,72.604 79.11,69.668 78.806,69.364 C78.502,69.06 75.971,67.542 75.464,67.643 C74.958,67.542 73.876,67.022 74.974,68.801" fill="#F7CEB2" id="path16132"/>
    <path d="M74.974,68.801 C73.793,68.098 72.188,67.312 70.706,66.732 C68.377,65.821 68.377,66.833 68.478,67.643 C68.579,68.453 69.288,68.959 69.896,69.263 C70.503,69.567 71.414,70.377 71.82,70.579 C72.225,70.782 74.857,73.516 74.958,73.82 C75.059,74.123 75.16,74.731 75.16,74.731 C73.845,73.313 71.009,71.592 71.009,71.592 C70.706,71.39 67.972,70.883 67.263,71.086 C66.554,71.288 66.048,72.2 66.15,72.807 C66.251,73.414 67.465,74.224 67.77,74.224 C68.072,74.224 69.49,74.933 69.794,75.035 C70.098,75.136 72.427,77.363 72.325,77.87 C71.82,77.161 68.377,75.541 68.377,75.541 C68.377,75.541 67.162,75.845 67.263,76.756 C67.364,77.667 69.085,80.097 71.009,81.616 C69.694,81.11 68.072,78.983 66.959,79.388 C66.757,79.793 65.946,80.704 67.263,82.426 L67.87,83.135 C67.87,83.135 70.199,85.16 70.503,85.463 C72.528,90.222 76.275,90.829 77.489,90.728 C77.489,90.728 78.502,91.943 78.907,92.247 C81.236,91.64 84.476,84.754 84.476,84.147 L84.172,83.844 C84.172,83.844 83.665,82.527 83.463,81.312 C83.26,80.097 81.134,74.326 80.628,73.617 C80.021,72.604 79.11,69.668 78.806,69.364 C78.502,69.06 75.971,67.542 75.464,67.643 C74.958,67.542 73.876,67.022 74.974,68.801 z" fill-opacity="0" stroke="#1A1919" stroke-width="0.7" stroke-linecap="round" stroke-linejoin="round" id="path16134"/>
    <path d="M46.462,88.78 C46.102,89.716 43.267,97.005 43.267,98.423 C43.267,99.841 42.659,109.156 42.863,111.383 C43.065,113.611 41.85,127.38 42.254,131.43 C42.659,135.481 41.445,138.721 42.863,141.353" fill-opacity="0" stroke="#1A1919" stroke-width="0.9" stroke-linecap="round" stroke-linejoin="round" id="path16136"/>
    <path d="M46.143,97.862 C45.227,96.945 43.757,101.639 45.15,102.037 C46.541,102.435 47.386,99.104 46.143,97.862" fill="#ECC142" id="path16138"/>
    <path d="M46.143,97.862 C45.227,96.945 43.757,101.639 45.15,102.037 C46.541,102.435 47.386,99.104 46.143,97.862 z" fill-opacity="0" stroke="#1A1919" stroke-width="0.45" stroke-linecap="round" stroke-linejoin="round" id="path16140"/>
    <path d="M45.546,109.593 C44.841,108.886 43.061,114.167 44.95,114.266 C46.839,114.367 46.491,110.537 45.546,109.593" fill="#ECC142" id="path16142"/>
    <path d="M45.546,109.593 C44.841,108.886 43.061,114.167 44.95,114.266 C46.839,114.367 46.491,110.537 45.546,109.593 z" fill-opacity="0" stroke="#1A1919" stroke-width="0.45" stroke-linecap="round" stroke-linejoin="round" id="path16144"/>
    <path d="M45.647,120.43 C44.799,119.583 43.061,124.804 44.453,125.302 C45.845,125.799 46.69,121.474 45.647,120.43" fill="#ECC142" id="path16146"/>
    <path d="M45.647,120.43 C44.799,119.583 43.061,124.804 44.453,125.302 C45.845,125.799 46.69,121.474 45.647,120.43 z" fill-opacity="0" stroke="#1A1919" stroke-width="0.45" stroke-linecap="round" stroke-linejoin="round" id="path16148"/>
    <path d="M45.15,131.963 C44.086,130.9 43.16,137.63 44.949,137.233 C46.739,136.834 46.093,132.908 45.15,131.963" fill="#ECC142" id="path16150"/>
    <path d="M45.15,131.963 C44.086,130.9 43.16,137.63 44.949,137.233 C46.739,136.834 46.093,132.908 45.15,131.963 z" fill-opacity="0" stroke="#1A1919" stroke-width="0.45" stroke-linecap="round" stroke-linejoin="round" id="path16152"/>
    <path d="M28.99,39.901 C25.751,44.052 19.473,45.267 31.016,52.861 C31.016,53.873 25.346,62.075 26.257,69.466 C27.169,76.857 28.383,82.223 33.547,84.754 C34.155,85.16 34.66,85.058 34.66,85.058 C33.345,83.033 30.206,77.566 33.142,71.288 C36.078,65.011 40.229,58.227 38.407,53.671 C36.584,49.114 35.066,48.709 34.863,43.748" fill="#50341D" id="path16154"/>
    <path d="M28.99,39.901 C25.751,44.052 19.473,45.267 31.016,52.861 C31.016,53.873 25.346,62.075 26.257,69.466 C27.169,76.857 28.383,82.223 33.547,84.754 C34.155,85.16 34.66,85.058 34.66,85.058 C33.345,83.033 30.206,77.566 33.142,71.288 C36.078,65.011 40.229,58.227 38.407,53.671 C36.584,49.114 35.066,48.709 34.863,43.748 M28.585,49.317 C31.825,51.848 34.762,50.937 32.738,55.088 C30.712,59.239 24.614,67.112 31.623,80.704 M46.203,9.526 C47.52,11.854 47.925,17.93 52.481,24.916 M51.57,12.563 C52.379,15.601 54,23.599 59.265,31.902 C64.53,40.204 64.732,41.217 64.327,45.267 M60.378,21.068 C62.707,23.903 71.314,34.433 69.592,47.191 M37.09,9.829 C38.61,10.741 43.368,17.626 45.596,22.081 M40.229,9.728 C40.939,10.538 44.077,15.196 45.089,17.018 M71.111,26.232 C74.351,30.079 77.895,43.039 74.148,50.228 M61.491,10.235 C62.2,11.044 62.2,13.981 62.2,16.613" fill-opacity="0" stroke="#1A1919" stroke-width="0.9" stroke-linecap="round" stroke-linejoin="round" id="path16156"/>
    <path d="M4.893,87.184 C4.792,82.628 4.59,77.059 4.691,76.553 C4.792,76.047 6.108,75.237 6.716,75.035 C7.728,75.035 15.524,76.958 17.246,77.87 C17.954,78.072 18.461,78.376 18.461,79.185 C18.461,79.995 19.17,102.675 19.17,103.181 C19.17,103.688 18.967,104.093 18.258,104.397 C17.55,104.701 16.132,104.802 16.132,104.802 C16.132,104.802 8.133,102.575 7.222,102.068 C6.918,102.068 5.399,101.562 5.298,99.638 C5.197,97.714 4.893,87.184 4.893,87.184" fill="#F6EB3D" id="path16158"/>
    <path d="M4.893,87.184 C4.792,82.628 4.59,77.059 4.691,76.553 C4.792,76.047 6.108,75.237 6.716,75.035 C7.728,75.035 15.524,76.958 17.246,77.87 C17.954,78.072 18.461,78.376 18.461,79.185 C18.461,79.995 19.17,102.675 19.17,103.181 C19.17,103.688 18.967,104.093 18.258,104.397 C17.55,104.701 16.132,104.802 16.132,104.802 C16.132,104.802 8.133,102.575 7.222,102.068 C6.918,102.068 5.399,101.562 5.298,99.638 C5.197,97.714 4.893,87.184 4.893,87.184 z M5.501,76.553 C6.513,76.452 14.816,78.983 16.03,79.692 C16.591,80.019 16.537,80.907 16.537,80.907 C16.537,82.02 17.043,102.372 16.942,103.688 L16.638,104.397 M16.841,79.793 C17.347,79.692 18.461,78.781 18.461,78.781" fill-opacity="0" stroke="#1A1919" stroke-width="0.9" stroke-linecap="round" stroke-linejoin="round" id="path16160"/>
    <path d="M10.462,79.084 C10.462,79.084 14.618,80.356 15.63,80.392 L15.568,82.112 C14.755,82.184 10.949,80.933 10.451,80.713 L10.462,79.084" fill="#FFFFFE" id="path16162"/>
    <path d="M10.462,79.084 C10.462,79.084 14.618,80.356 15.63,80.392 L15.568,82.112 C14.755,82.184 10.949,80.933 10.451,80.713 z" fill-opacity="0" stroke="#1A1919" stroke-width="0.45" stroke-linecap="round" stroke-linejoin="round" id="path16164"/>
    <path d="M7.171,78.376 C7.171,78.851 6.786,79.236 6.311,79.236 C5.835,79.236 5.45,78.851 5.45,78.376 C5.45,77.9 5.835,77.516 6.311,77.516 C6.786,77.516 7.171,77.9 7.171,78.376" fill="#777776" id="path16166"/>
    <path d="M7.171,78.376 C7.171,78.851 6.786,79.236 6.311,79.236 C5.835,79.236 5.45,78.851 5.45,78.376 C5.45,77.9 5.835,77.516 6.311,77.516 C6.786,77.516 7.171,77.9 7.171,78.376 z" fill-opacity="0" stroke="#1A1919" stroke-width="0.45" stroke-linecap="round" stroke-linejoin="round" id="path16168"/>
    <path d="M7.93,101.662 L8.91,100.853 C10.394,100.583 12.015,99.369 11.745,98.693 C11.474,98.018 7.593,98.187 6.108,98.727 L6.412,96.196 L7.526,94.71 C9.989,94.508 10.8,94.474 11.07,93.664 C11.474,92.955 11.88,92.618 10.664,92.213 C9.449,91.808 7.829,91.943 7.425,91.943 L5.264,92.348 L4.995,91.235 C4.995,91.235 4.961,91.201 6.614,90.526 C7.733,90.07 8.91,89.244 8.774,88.163 C7.289,87.623 8.1,88.028 5.804,87.893 C5.67,87.893 3.678,88.501 3.678,88.501 C5.905,86.375 6.075,83.978 5.264,84.113 C4.724,84.113 3.644,84.384 3.105,84.788 C2.565,85.193 0.54,86.409 0.405,87.219 C0.269,88.028 0.405,91.673 0.81,92.484 C1.215,93.293 1.62,93.698 1.62,93.698 C1.62,95.319 1.62,95.183 2.16,96.398 C2.699,98.828 2.834,98.693 3.509,99.503 C4.05,101.529 4.319,102.743 5.13,103.553 C5.94,104.363 6.614,104.228 7.155,104.498" fill="#F7CEB2" id="path16170"/>
    <path d="M7.93,101.662 L8.91,100.853 C10.394,100.583 12.015,99.369 11.745,98.693 C11.474,98.018 7.593,98.187 6.108,98.727 L6.412,96.196 L7.526,94.71 C9.989,94.508 10.8,94.474 11.07,93.664 C11.474,92.955 11.88,92.618 10.664,92.213 C9.449,91.808 7.829,91.943 7.425,91.943 L5.264,92.348 L4.995,91.235 C4.995,91.235 4.961,91.201 6.614,90.526 C7.733,90.07 8.91,89.244 8.774,88.163 C7.289,87.623 8.1,88.028 5.804,87.893 C5.67,87.893 3.678,88.501 3.678,88.501 C5.905,86.375 6.075,83.978 5.264,84.113 C4.724,84.113 3.644,84.384 3.105,84.788 C2.565,85.193 0.54,86.409 0.405,87.219 C0.269,88.028 0.405,91.673 0.81,92.484 C1.215,93.293 1.62,93.698 1.62,93.698 C1.62,95.319 1.62,95.183 2.16,96.398 C2.699,98.828 2.834,98.693 3.509,99.503 C4.05,101.529 4.319,102.743 5.13,103.553 C5.94,104.363 6.614,104.228 7.155,104.498 M1.755,92.889 C1.62,92.484 2.025,90.323 2.025,89.784 C2.025,89.244 3.914,88.433 4.185,88.433 M5.505,92.445 C5.021,92.625 3.751,94.865 3.326,95.833" fill-opacity="0" stroke="#1A1919" stroke-width="0.7" stroke-linecap="round" stroke-linejoin="round" id="path16172"/>
    <path d="M32.217,104.781 C32.217,105.939 31.693,106.875 31.043,106.875 C30.396,106.875 29.87,105.939 29.87,104.781 C29.87,103.624 30.396,102.686 31.043,102.686 C31.693,102.686 32.217,103.624 32.217,104.781" fill="#ECC142" id="path16174"/>
    <path d="M32.217,104.781 C32.217,105.939 31.693,106.875 31.043,106.875 C30.396,106.875 29.87,105.939 29.87,104.781 C29.87,103.624 30.396,102.686 31.043,102.686 C31.693,102.686 32.217,103.624 32.217,104.781 z" fill-opacity="0" stroke="#1A1919" stroke-width="0.45" stroke-linecap="round" stroke-linejoin="round" id="path16176"/>
    <path d="M31.714,117.182 C31.714,118.339 31.189,119.277 30.54,119.277 C29.893,119.277 29.368,118.339 29.368,117.182 C29.368,116.026 29.893,115.087 30.54,115.087 C31.189,115.087 31.714,116.026 31.714,117.182" fill="#ECC142" id="path16178"/>
    <path d="M31.714,117.182 C31.714,118.339 31.189,119.277 30.54,119.277 C29.893,119.277 29.368,118.339 29.368,117.182 C29.368,116.026 29.893,115.087 30.54,115.087 C31.189,115.087 31.714,116.026 31.714,117.182 z" fill-opacity="0" stroke="#1A1919" stroke-width="0.45" stroke-linecap="round" stroke-linejoin="round" id="path16180"/>
    <path d="M39.072,50.352 L38.085,52.905" fill-opacity="0" stroke="#1A1919" stroke-width="0.9" stroke-linecap="round" stroke-linejoin="round" id="path16182"/>
    <path d="M53.054,34.028 C53.054,35.445 51.543,36.593 49.68,36.593 C47.816,36.593 46.304,35.445 46.304,34.028 C46.304,32.612 47.816,31.463 49.68,31.463 C51.543,31.463 53.054,32.612 53.054,34.028" fill="#F2B8AA" id="path16184"/>
    <path d="M72.84,56.16 C72.84,56.16 75.068,56.97 75.573,57.375 C75.27,58.185 72.738,73.069 73.447,75.904 C73.447,77.119 72.536,88.357 72.435,88.965 L68.689,89.876 C68.689,88.054 69.398,85.421 69.196,83.092 C68.992,80.764 69.498,67.5 72.84,56.16" fill="#FFFFFE" id="path16188"/>
    <path d="M72.84,56.16 C72.84,56.16 75.068,56.97 75.573,57.375 C75.27,58.185 72.738,73.069 73.447,75.904 C73.447,77.119 72.536,88.357 72.435,88.965 L68.689,89.876 C68.689,88.054 69.398,85.421 69.196,83.092 C68.992,80.764 69.498,67.5 72.84,56.16 z" fill-opacity="0" stroke="#1A1919" stroke-width="0.9" stroke-linecap="round" stroke-linejoin="round" id="path16190"/>
    <path d="M73.447,88.155 C73.001,88.237 69.093,88.864 67.474,89.167 C66.271,89.393 63.525,90.585 63.018,94.028 C62.512,97.47 61.196,103.647 60.993,105.873 C60.791,108.102 59.273,117.922 58.968,120.048 C58.665,122.174 57.52,126.236 57.653,127.035 C57.753,127.642 57.653,127.947 58.058,128.858 C58.241,129.271 59.779,130.173 61.702,130.478 C63.216,130.717 63.728,130.68 64.234,130.781 C64.74,130.883 70.207,133.009 73.65,131.491 C73.953,131.287 74.258,130.073 74.258,130.073 C74.258,130.073 71.422,93.319 72.03,92.509 C72.637,91.699 78.003,90.18 78.003,90.18 L77.497,87.953 L73.447,88.155" fill="#E577A4" id="path16192"/>
    <path d="M73.447,88.155 C73.001,88.237 69.093,88.864 67.474,89.167 C66.271,89.393 63.525,90.585 63.018,94.028 C62.512,97.47 61.196,103.647 60.993,105.873 C60.791,108.102 59.273,117.922 58.968,120.048 C58.665,122.174 57.52,126.236 57.653,127.035 C57.753,127.642 57.653,127.947 58.058,128.858 C58.241,129.271 59.779,130.173 61.702,130.478 C63.216,130.717 63.728,130.68 64.234,130.781 C64.74,130.883 70.207,133.009 73.65,131.491 C73.953,131.287 74.258,130.073 74.258,130.073 C74.258,130.073 71.422,93.319 72.03,92.509 C72.637,91.699 78.003,90.18 78.003,90.18 L77.497,87.953 z" fill-opacity="0" stroke="#1A1919" stroke-width="0.45" stroke-linecap="round" stroke-linejoin="round" id="path16194"/>
    <path d="M77.019,88.585 L73.477,88.762 C73.414,88.779 72.92,88.86 72.259,88.969 C70.855,89.201 68.689,89.558 67.586,89.765 C67.446,89.791 64.159,90.449 63.619,94.117 C63.394,95.651 63.008,97.731 62.634,99.741 C62.157,102.299 61.708,104.716 61.599,105.929 C61.446,107.608 60.573,113.425 59.995,117.276 C59.802,118.558 59.648,119.595 59.57,120.135 C59.437,121.067 59.152,122.335 58.876,123.562 C58.59,124.834 58.199,126.578 58.252,126.936 C58.282,127.122 58.297,127.285 58.311,127.442 C58.34,127.781 58.363,128.047 58.613,128.611 C58.749,128.793 60.005,129.594 61.797,129.877 C62.653,130.013 63.182,130.058 63.569,130.091 C63.886,130.118 64.119,130.139 64.354,130.186 C64.429,130.201 64.603,130.252 64.855,130.333 C65.889,130.662 68.308,131.428 70.658,131.428 C71.698,131.428 72.594,131.274 73.321,130.97 C73.374,130.867 73.533,130.43 73.644,130.019 C71.757,105.543 71.051,92.802 71.544,92.144 C72.139,91.352 75.419,90.301 77.283,89.755 z M70.658,132.642 L70.658,132.642 C68.12,132.642 65.575,131.835 64.488,131.492 C64.304,131.433 64.175,131.39 64.112,131.376 C63.921,131.338 63.728,131.324 63.466,131.301 C63.061,131.266 62.506,131.219 61.608,131.078 C59.759,130.787 57.841,129.864 57.502,129.105 C57.169,128.354 57.134,127.943 57.101,127.544 C57.089,127.418 57.077,127.287 57.053,127.134 C56.962,126.586 57.223,125.38 57.692,123.296 C57.961,122.092 58.24,120.847 58.367,119.962 C58.446,119.421 58.601,118.381 58.794,117.095 C59.37,113.259 60.239,107.461 60.389,105.818 C60.504,104.55 60.958,102.106 61.439,99.518 C61.811,97.519 62.196,95.453 62.417,93.939 C62.947,90.334 65.775,88.868 67.361,88.57 C68.47,88.363 70.649,88.003 72.062,87.77 C72.712,87.663 73.197,87.583 73.338,87.557 L77.467,87.346 C77.788,87.346 78.024,87.531 78.09,87.818 L78.596,90.045 C78.667,90.361 78.48,90.676 78.169,90.765 C75.847,91.422 73.138,92.368 72.575,92.819 C72.31,94.909 73.785,116.062 74.863,130.026 C74.867,130.091 74.863,130.156 74.847,130.219 C74.607,131.177 74.319,131.775 73.987,131.995 C73.958,132.015 73.926,132.032 73.895,132.045 C72.997,132.441 71.909,132.642 70.658,132.642" fill="#FFFFFE" id="path16196"/>
    <path d="M77.019,88.585 L73.477,88.762 C73.414,88.779 72.92,88.86 72.259,88.969 C70.855,89.201 68.689,89.558 67.586,89.765 C67.446,89.791 64.159,90.449 63.619,94.117 C63.394,95.651 63.008,97.731 62.634,99.741 C62.157,102.299 61.708,104.716 61.599,105.929 C61.446,107.608 60.573,113.425 59.995,117.276 C59.802,118.558 59.648,119.595 59.57,120.135 C59.437,121.067 59.152,122.335 58.876,123.562 C58.59,124.834 58.199,126.578 58.252,126.936 C58.282,127.122 58.297,127.285 58.311,127.442 C58.34,127.781 58.363,128.047 58.613,128.611 C58.749,128.793 60.005,129.594 61.797,129.877 C62.653,130.013 63.182,130.058 63.569,130.091 C63.886,130.118 64.119,130.139 64.354,130.186 C64.429,130.201 64.603,130.252 64.855,130.333 C65.889,130.662 68.308,131.428 70.658,131.428 C71.698,131.428 72.594,131.274 73.321,130.97 C73.374,130.867 73.533,130.43 73.644,130.019 C71.757,105.543 71.051,92.802 71.544,92.144 C72.139,91.352 75.419,90.301 77.283,89.755 z M70.658,132.642 L70.658,132.642 C68.12,132.642 65.575,131.835 64.488,131.492 C64.304,131.433 64.175,131.39 64.112,131.376 C63.921,131.338 63.728,131.324 63.466,131.301 C63.061,131.266 62.506,131.219 61.608,131.078 C59.759,130.787 57.841,129.864 57.502,129.105 C57.169,128.354 57.134,127.943 57.101,127.544 C57.089,127.418 57.077,127.287 57.053,127.134 C56.962,126.586 57.223,125.38 57.692,123.296 C57.961,122.092 58.24,120.847 58.367,119.962 C58.446,119.421 58.601,118.381 58.794,117.095 C59.37,113.259 60.239,107.461 60.389,105.818 C60.504,104.55 60.958,102.106 61.439,99.518 C61.811,97.519 62.196,95.453 62.417,93.939 C62.947,90.334 65.775,88.868 67.361,88.57 C68.47,88.363 70.649,88.003 72.062,87.77 C72.712,87.663 73.197,87.583 73.338,87.557 L77.467,87.346 C77.788,87.346 78.024,87.531 78.09,87.818 L78.596,90.045 C78.667,90.361 78.48,90.676 78.169,90.765 C75.847,91.422 73.138,92.368 72.575,92.819 C72.31,94.909 73.785,116.062 74.863,130.026 C74.867,130.091 74.863,130.156 74.847,130.219 C74.607,131.177 74.319,131.775 73.987,131.995 C73.958,132.015 73.926,132.032 73.895,132.045 C72.997,132.441 71.909,132.642 70.658,132.642 z" fill-opacity="0" stroke="#1A1919" stroke-width="0.7" id="path16198"/>
    <path d="M75.371,90.282 C75.258,90.31 75.12,90.345 74.966,90.385 C73.468,90.777 70.594,91.611 70.409,92.711 C70.207,93.926 70.005,96.457 70.309,99.596 C70.612,102.735 70.714,116.505 70.916,119.239 C71.118,121.972 70.511,128.554 70.815,129.364 C71.118,130.173 71.524,130.68 72.637,131.085 C73.751,131.491 78.51,130.578 79.523,130.376 C80.534,130.173 91.065,125.618 93.393,124.403 C95.722,123.187 99.571,120.453 99.873,120.048 C100.38,119.441 100.886,114.378 100.178,111.341 C99.703,109.308 98.76,107.595 98.658,106.481 C98.558,105.368 97.747,92.408 97.545,90.787 C97.14,88.56 96.027,86.738 94.508,86.839 C92.664,86.961 83.978,88.661 83.167,89.066 C82.358,89.472 75.371,90.282 75.371,90.282" fill="#E577A4" id="path16200"/>
    <path d="M75.371,90.282 C75.258,90.31 75.12,90.345 74.966,90.385 C73.468,90.777 70.594,91.611 70.409,92.711 C70.207,93.926 70.005,96.457 70.309,99.596 C70.612,102.735 70.714,116.505 70.916,119.239 C71.118,121.972 70.511,128.554 70.815,129.364 C71.118,130.173 71.524,130.68 72.637,131.085 C73.751,131.491 78.51,130.578 79.523,130.376 C80.534,130.173 91.065,125.618 93.393,124.403 C95.722,123.187 99.571,120.453 99.873,120.048 C100.38,119.441 100.886,114.378 100.178,111.341 C99.703,109.308 98.76,107.595 98.658,106.481 C98.558,105.368 97.747,92.408 97.545,90.787 C97.14,88.56 96.027,86.738 94.508,86.839 C92.664,86.961 83.978,88.661 83.167,89.066 C82.358,89.472 75.371,90.282 75.371,90.282 z" fill-opacity="0" stroke="#1A1919" stroke-width="0.45" stroke-linecap="round" stroke-linejoin="round" id="path16202"/>
    <path d="M74.865,56.261 C74.258,57.274 69.6,67.5 72.738,79.448 C74.662,84.409 78.712,95.446 79.016,99.393 C79.321,103.342 78.712,115.189 79.016,116.606 C79.321,118.024 80.94,121.466 80.94,123.492 C80.737,124.503 79.928,129.566 79.523,130.376 C80.839,130.478 84.18,128.959 84.484,128.554 C84.889,126.428 85.799,123.795 85.496,122.277 C85.193,120.758 84.18,116.404 83.471,115.29 C83.167,112.86 83.066,106.077 83.167,103.545 C83.268,101.014 83.268,98.381 82.56,95.648 C82.111,93.911 77.699,81.675 76.991,78.334 C76.282,74.993 76.079,63.45 78.915,58.489 C78.408,57.578 75.674,56.261 74.865,56.261" fill="#FFFFFE" id="path16204"/>
    <path d="M74.865,56.261 C74.258,57.274 69.6,67.5 72.738,79.448 C74.662,84.409 78.712,95.446 79.016,99.393 C79.321,103.342 78.712,115.189 79.016,116.606 C79.321,118.024 80.94,121.466 80.94,123.492 C80.737,124.503 79.928,129.566 79.523,130.376 C80.839,130.478 84.18,128.959 84.484,128.554 C84.889,126.428 85.799,123.795 85.496,122.277 C85.193,120.758 84.18,116.404 83.471,115.29 C83.167,112.86 83.066,106.077 83.167,103.545 C83.268,101.014 83.268,98.381 82.56,95.648 C82.111,93.911 77.699,81.675 76.991,78.334 C76.282,74.993 76.079,63.45 78.915,58.489 C78.408,57.578 75.674,56.261 74.865,56.261 z" fill-opacity="0" stroke="#1A1919" stroke-width="0.9" stroke-linecap="round" stroke-linejoin="round" id="path16206"/>
    <path d="M92.685,107.595 C92.988,108.912 92.887,111.746 93.697,113.872 C94.508,115.998 94.71,117.822 94.609,119.846 C94.508,121.871 93.191,124.403 93.191,124.403 C93.798,124.605 97.039,122.479 97.039,122.479 C97.647,120.758 97.949,119.745 98.051,118.429 C98.153,117.112 97.039,113.67 96.431,111.645 C95.823,109.62 95.621,107.19 95.722,106.38 L92.685,107.595" fill="#FFFFFE" id="path16208"/>
    <path d="M92.685,107.595 C92.988,108.912 92.887,111.746 93.697,113.872 C94.508,115.998 94.71,117.822 94.609,119.846 C94.508,121.871 93.191,124.403 93.191,124.403 C93.798,124.605 97.039,122.479 97.039,122.479 C97.647,120.758 97.949,119.745 98.051,118.429 C98.153,117.112 97.039,113.67 96.431,111.645 C95.823,109.62 95.621,107.19 95.722,106.38 z M75.371,90.282 C74.561,90.282 71.321,90.991 69.904,91.395 C68.486,91.799 66.967,92.711 66.562,93.42 C66.157,94.128 65.954,94.433 65.854,95.546 C65.752,96.66 65.752,101.116 65.347,101.924" fill-opacity="0" stroke="#1A1919" stroke-width="0.9" stroke-linecap="round" stroke-linejoin="round" id="path16210"/>
    <path d="M62.006,100.305 C62.512,100.406 64.234,101.924 65.954,102.229 C67.676,102.533 69.904,102.027 70.309,101.824 L70.612,105.773 C70.106,105.773 65.854,106.178 65.246,106.077 C64.133,105.368 61.399,104.355 61.297,103.747 C61.196,103.14 62.006,100.305 62.006,100.305" fill="#FFFFFE" id="path16212"/>
    <path d="M62.006,100.305 C62.512,100.406 64.234,101.924 65.954,102.229 C67.676,102.533 69.904,102.027 70.309,101.824 L70.612,105.773 C70.106,105.773 65.854,106.178 65.246,106.077 C64.133,105.368 61.399,104.355 61.297,103.747 C61.196,103.14 62.006,100.305 62.006,100.305 z" fill-opacity="0" stroke="#1A1919" stroke-width="0.9" stroke-linecap="round" stroke-linejoin="round" id="path16214"/>
    <path d="M94.627,87.443 C92.629,87.573 84.115,89.284 83.439,89.61 C82.599,90.03 77.106,90.692 75.441,90.885 L75.119,90.973 C71.253,91.984 71.024,92.73 71.009,92.811 C70.78,94.181 70.636,96.668 70.912,99.537 C71.086,101.323 71.195,106.511 71.289,111.087 C71.363,114.648 71.435,118.011 71.522,119.194 C71.624,120.576 71.526,122.902 71.438,124.954 C71.366,126.66 71.277,128.783 71.387,129.159 C71.629,129.803 71.909,130.173 72.844,130.514 C72.888,130.53 73.064,130.58 73.538,130.58 C75.316,130.58 78.736,129.914 79.403,129.781 C80.301,129.601 90.807,125.067 93.113,123.864 C95.458,122.64 99.078,120.031 99.398,119.671 C99.737,119.124 100.275,114.431 99.586,111.479 C99.363,110.525 99.027,109.628 98.732,108.837 C98.4,107.953 98.113,107.188 98.053,106.537 C98.018,106.14 97.897,104.319 97.743,102.012 C97.46,97.745 97.071,91.9 96.943,90.864 C96.577,88.863 95.624,87.443 94.627,87.443 z M73.538,131.795 L73.538,131.795 C73.043,131.795 72.692,131.751 72.431,131.657 C71.08,131.165 70.58,130.471 70.246,129.578 C70.067,129.098 70.1,127.85 70.225,124.903 C70.311,122.884 70.407,120.594 70.311,119.284 C70.22,118.069 70.15,114.69 70.075,111.113 C69.98,106.557 69.872,101.394 69.704,99.655 C69.415,96.668 69.57,94.058 69.811,92.611 C69.992,91.522 71.534,90.655 74.813,89.797 L75.223,89.692 C78.656,89.289 82.415,88.75 82.897,88.523 C83.835,88.054 92.717,86.349 94.467,86.233 C96.219,86.12 97.627,87.847 98.143,90.679 C98.281,91.784 98.671,97.65 98.956,101.932 C99.109,104.23 99.229,106.045 99.264,106.425 C99.308,106.915 99.568,107.609 99.869,108.411 C100.178,109.237 100.529,110.172 100.769,111.203 C101.454,114.144 101.09,119.539 100.34,120.438 C99.919,121.002 95.848,123.807 93.674,124.942 C91.421,126.117 80.759,130.748 79.642,130.972 C78.954,131.11 75.43,131.795 73.538,131.795" fill="#FFFFFE" id="path16216"/>
    <path d="M94.627,87.443 C92.629,87.573 84.115,89.284 83.439,89.61 C82.599,90.03 77.106,90.692 75.441,90.885 L75.119,90.973 C71.253,91.984 71.024,92.73 71.009,92.811 C70.78,94.181 70.636,96.668 70.912,99.537 C71.086,101.323 71.195,106.511 71.289,111.087 C71.363,114.648 71.435,118.011 71.522,119.194 C71.624,120.576 71.526,122.902 71.438,124.954 C71.366,126.66 71.277,128.783 71.387,129.159 C71.629,129.803 71.909,130.173 72.844,130.514 C72.888,130.53 73.064,130.58 73.538,130.58 C75.316,130.58 78.736,129.914 79.403,129.781 C80.301,129.601 90.807,125.067 93.113,123.864 C95.458,122.64 99.078,120.031 99.398,119.671 C99.737,119.124 100.275,114.431 99.586,111.479 C99.363,110.525 99.027,109.628 98.732,108.837 C98.4,107.953 98.113,107.188 98.053,106.537 C98.018,106.14 97.897,104.319 97.743,102.012 C97.46,97.745 97.071,91.9 96.943,90.864 C96.577,88.863 95.624,87.443 94.627,87.443 z M73.538,131.795 L73.538,131.795 C73.043,131.795 72.692,131.751 72.431,131.657 C71.08,131.165 70.58,130.471 70.246,129.578 C70.067,129.098 70.1,127.85 70.225,124.903 C70.311,122.884 70.407,120.594 70.311,119.284 C70.22,118.069 70.15,114.69 70.075,111.113 C69.98,106.557 69.872,101.394 69.704,99.655 C69.415,96.668 69.57,94.058 69.811,92.611 C69.992,91.522 71.534,90.655 74.813,89.797 L75.223,89.692 C78.656,89.289 82.415,88.75 82.897,88.523 C83.835,88.054 92.717,86.349 94.467,86.233 C96.219,86.12 97.627,87.847 98.143,90.679 C98.281,91.784 98.671,97.65 98.956,101.932 C99.109,104.23 99.229,106.045 99.264,106.425 C99.308,106.915 99.568,107.609 99.869,108.411 C100.178,109.237 100.529,110.172 100.769,111.203 C101.454,114.144 101.09,119.539 100.34,120.438 C99.919,121.002 95.848,123.807 93.674,124.942 C91.421,126.117 80.759,130.748 79.642,130.972 C78.954,131.11 75.43,131.795 73.538,131.795 z" fill-opacity="0" stroke="#1A1919" stroke-width="0.7" id="path16218"/>
    <path d="M72.03,101.014 C72.03,100.71 73.548,100.508 74.561,100.305 C75.573,100.103 78.915,98.887 79.218,98.787 C79.523,98.685 79.321,98.887 79.321,99.191 C79.321,99.495 79.218,100.001 79.218,100.001 C79.218,100.001 77.497,100.508 76.687,100.811 C75.877,101.116 73.853,101.621 73.447,101.621 C73.042,101.621 71.929,101.824 71.929,101.824 L72.03,101.014" fill="#FFFFFE" id="path16220"/>
    <path d="M72.03,101.014 C72.03,100.71 73.548,100.508 74.561,100.305 C75.573,100.103 78.915,98.887 79.218,98.787 C79.523,98.685 79.321,98.887 79.321,99.191 C79.321,99.495 79.218,100.001 79.218,100.001 C79.218,100.001 77.497,100.508 76.687,100.811 C75.877,101.116 73.853,101.621 73.447,101.621 C73.042,101.621 71.929,101.824 71.929,101.824 z" fill-opacity="0" stroke="#1A1919" stroke-width="0.7" stroke-linecap="round" stroke-linejoin="round" id="path16222"/>
    <path d="M81.852,103.747 C81.852,104.083 81.579,104.355 81.243,104.355 C80.908,104.355 80.636,104.083 80.636,103.747 C80.636,103.412 80.908,103.14 81.243,103.14 C81.579,103.14 81.852,103.412 81.852,103.747 z" fill-opacity="0" stroke="#1A1919" stroke-width="0.45" stroke-linecap="round" stroke-linejoin="round" id="path16224"/>
    <path d="M38.062,29.997 C38.66,31.006 39.036,32.597 38.551,34.317 C38.112,35.869 36.866,36.355 37.216,37.493 C37.673,38.977 39.223,37.598 40.489,38.232" fill-opacity="0" stroke="#1A1919" stroke-width="0.9" stroke-linecap="round" stroke-linejoin="round" id="path16226"/>
    <path d="M4.817,91.232 C4.817,91.431 4.683,93.225 4.418,93.89 M6.278,96.349 C6.212,96.681 5.614,98.476 5.215,98.942 M6.012,98.874 C6.012,98.874 4.683,99.738 4.485,100.736 M11.166,105.398 C12.431,105.388 13.335,104.495 13.685,104.113" fill-opacity="0" stroke="#1A1919" stroke-width="0.7" stroke-linecap="round" stroke-linejoin="round" id="path16228"/>
    <path d="M5.062,84.653 C5.062,84.924 4.387,85.801 3.982,85.936 C3.577,86.071 3.239,85.531 3.239,85.531 M6.277,89.108 C6.344,89.378 7.155,89.378 7.695,88.906 M8.639,92.889 C8.639,93.225 9.584,93.767 10.462,93.293 L10.935,93.023 M8.707,92.348 L8.707,92.753 M9.719,98.76 C9.719,98.963 9.584,99.436 9.855,99.436 C10.125,99.436 10.732,99.436 11.137,99.031" fill-opacity="0" stroke="#1A1919" stroke-width="0.45" stroke-linecap="round" stroke-linejoin="round" id="path16230"/>
    <path d="M95.563,104.84 C97.151,102.872 98.22,101.486 98.245,101.258 C98.347,100.347 98.752,93.867 96.221,90.931 C96.019,90.222 95.512,88.703 94.601,88.501 C93.993,86.071 91.361,81.616 89.133,78.781 C87.663,76.911 84.46,70.067 81.617,64.924" fill="#424A76" id="path16232"/>
    <path d="M95.563,104.84 C97.151,102.872 98.22,101.486 98.245,101.258 C98.347,100.347 98.752,93.867 96.221,90.931 C96.019,90.222 95.512,88.703 94.601,88.501 C93.993,86.071 91.361,81.616 89.133,78.781 C87.663,76.911 84.46,70.067 81.617,64.924" fill-opacity="0" stroke="#1A1919" stroke-width="0.9" stroke-linecap="round" stroke-linejoin="round" id="path16234"/>
    <path d="M95.512,91.943 C95.006,91.032 94.702,90.626 94.196,91.032 C94.095,90.626 92.677,87.387 91.969,86.577 C91.259,85.767 88.12,82.122 87.513,82.223 C86.906,82.325 85.791,82.325 85.184,83.236 C83.565,84.248 76.477,91.943 76.477,94.779 C77.388,96.905 81.741,103.181 83.058,104.296 C84.375,105.41 90.551,109.662 94.803,107.03 C99.056,104.397 99.25,100.481 98.447,97.005 C98.145,95.69 96.929,92.753 96.929,92.753" fill="#424A76" id="path16236"/>
    <path d="M95.512,91.943 C95.006,91.032 94.702,90.626 94.196,91.032 C94.095,90.626 92.677,87.387 91.969,86.577 C91.259,85.767 88.12,82.122 87.513,82.223 C86.906,82.325 85.791,82.325 85.184,83.236 C83.565,84.248 76.477,91.943 76.477,94.779 C77.388,96.905 81.741,103.181 83.058,104.296 C84.375,105.41 90.551,109.662 94.803,107.03 C99.056,104.397 99.25,100.481 98.447,97.005 C98.145,95.69 96.929,92.753 96.929,92.753" fill-opacity="0" stroke="#1A1919" stroke-width="0.9" stroke-linecap="round" stroke-linejoin="round" id="path16238"/>
    <path d="M81.161,74.721 C81.979,76.649 83.305,80.365 83.463,81.312 C83.665,82.527 84.172,83.844 84.172,83.844 L84.476,84.147 C84.476,84.754 81.236,91.64 78.907,92.247 C78.502,91.943 77.489,90.728 77.489,90.728 C76.275,90.829 72.528,90.222 70.503,85.463 C70.199,85.16 67.87,83.135 67.87,83.135 L67.263,82.426 C65.946,80.704 66.757,79.793 66.959,79.388 C68.072,78.983 69.694,81.11 71.009,81.616 C69.085,80.097 67.364,77.667 67.263,76.756 C67.162,75.845 68.377,75.541 68.377,75.541 C68.377,75.541 71.82,77.161 72.325,77.87 C72.427,77.363 70.098,75.136 69.794,75.035 C69.49,74.933 68.072,74.224 67.77,74.224 C67.465,74.224 66.251,73.414 66.15,72.807 C66.048,72.2 66.554,71.288 67.263,71.086 C67.972,70.883 70.706,71.39 71.009,71.592 C71.009,71.592 73.845,73.313 75.16,74.731 C75.16,74.731 75.059,74.123 74.958,73.82 C74.857,73.516 72.225,70.782 71.82,70.579 C71.414,70.377 70.503,69.567 69.896,69.263 C69.288,68.959 68.579,68.453 68.478,67.643 C68.377,66.833 68.377,65.821 70.706,66.732 C72.188,67.312 73.793,68.098 74.974,68.801 C75.869,69.263 77.793,71.794 78.197,72.301 C78.603,72.807 79.313,73.617 79.313,73.617" fill="#F7CEB2" id="path16240"/>
    <path d="M81.161,74.721 C81.979,76.649 83.305,80.365 83.463,81.312 C83.665,82.527 84.172,83.844 84.172,83.844 L84.476,84.147 C84.476,84.754 81.236,91.64 78.907,92.247 C78.502,91.943 77.489,90.728 77.489,90.728 C76.275,90.829 72.528,90.222 70.503,85.463 C70.199,85.16 67.87,83.135 67.87,83.135 L67.263,82.426 C65.946,80.704 66.757,79.793 66.959,79.388 C68.072,78.983 69.694,81.11 71.009,81.616 C69.085,80.097 67.364,77.667 67.263,76.756 C67.162,75.845 68.377,75.541 68.377,75.541 C68.377,75.541 71.82,77.161 72.325,77.87 C72.427,77.363 70.098,75.136 69.794,75.035 C69.49,74.933 68.072,74.224 67.77,74.224 C67.465,74.224 66.251,73.414 66.15,72.807 C66.048,72.2 66.554,71.288 67.263,71.086 C67.972,70.883 70.706,71.39 71.009,71.592 C71.009,71.592 73.845,73.313 75.16,74.731 C75.16,74.731 75.059,74.123 74.958,73.82 C74.857,73.516 72.225,70.782 71.82,70.579 C71.414,70.377 70.503,69.567 69.896,69.263 C69.288,68.959 68.579,68.453 68.478,67.643 C68.377,66.833 68.377,65.821 70.706,66.732 C72.188,67.312 73.793,68.098 74.974,68.801 C75.869,69.263 77.793,71.794 78.197,72.301 C78.603,72.807 79.313,73.617 79.313,73.617" fill-opacity="0" stroke="#1A1919" stroke-width="0.7" stroke-linecap="round" stroke-linejoin="round" id="path16242"/>
    <path d="M79.515,75.439 C79.515,75.845 79.413,76.25 78.907,76.553" fill="#F7CEB2" id="path16244"/>
    <path d="M79.515,75.439 C79.515,75.845 79.413,76.25 78.907,76.553" fill-opacity="0" stroke="#1A1919" stroke-width="0.7" stroke-linecap="round" stroke-linejoin="round" id="path16246"/>
    <path d="M77.489,78.376 C77.489,78.68 76.882,78.983 76.477,79.388" fill="#F7CEB2" id="path16248"/>
    <path d="M77.489,78.376 C77.489,78.68 76.882,78.983 76.477,79.388" fill-opacity="0" stroke="#1A1919" stroke-width="0.7" stroke-linecap="round" stroke-linejoin="round" id="path16250"/>
    <path d="M74.452,80.806 C74.452,81.11 73.845,82.122 73.44,82.325" fill="#F7CEB2" id="path16252"/>
    <path d="M74.452,80.806 C74.452,81.11 73.845,82.122 73.44,82.325" fill-opacity="0" stroke="#1A1919" stroke-width="0.7" stroke-linecap="round" stroke-linejoin="round" id="path16254"/>
    <path d="M72.022,83.641 C72.022,83.641 72.123,84.147 71.314,84.349" fill="#F7CEB2" id="path16256"/>
    <path d="M72.022,83.641 C72.022,83.641 72.123,84.147 71.314,84.349" fill-opacity="0" stroke="#1A1919" stroke-width="0.7" stroke-linecap="round" stroke-linejoin="round" id="path16258"/>
    <path d="M75.16,74.731 C75.464,75.035 76.679,75.744 76.781,76.047" fill="#F7CEB2" id="path16260"/>
    <path d="M75.16,74.731 C75.464,75.035 76.679,75.744 76.781,76.047" fill-opacity="0" stroke="#1A1919" stroke-width="0.7" stroke-linecap="round" stroke-linejoin="round" id="path16262"/>
    <path d="M72.325,77.87 C72.325,77.87 73.135,78.275 73.44,78.68" fill="#F7CEB2" id="path16264"/>
    <path d="M72.325,77.87 C72.325,77.87 73.135,78.275 73.44,78.68" fill-opacity="0" stroke="#1A1919" stroke-width="0.7" stroke-linecap="round" stroke-linejoin="round" id="path16266"/>
    <path d="M71.009,81.616 L72.022,81.919" fill="#F7CEB2" id="path16268"/>
    <path d="M71.009,81.616 L72.022,81.919" fill-opacity="0" stroke="#1A1919" stroke-width="0.7" stroke-linecap="round" stroke-linejoin="round" id="path16270"/>
    <path d="M84.577,82.831 C84.881,83.033 86.4,84.451 86.501,84.754 C86.602,85.058 84.476,93.867 78.197,93.664 C77.793,93.361 77.084,91.437 77.084,91.437 C78.3,91.538 82.957,88.906 84.577,82.831" fill="#FFFFFE" id="path16272"/>
    <path d="M84.577,82.831 C84.881,83.033 86.4,84.451 86.501,84.754 C86.602,85.058 84.476,93.867 78.197,93.664 C77.793,93.361 77.084,91.437 77.084,91.437 C78.3,91.538 82.957,88.906 84.577,82.831 z" fill-opacity="0" stroke="#1A1919" stroke-width="0.9" stroke-linecap="round" stroke-linejoin="round" id="path16274"/>
    <path d="M69.188,66.833 C69.188,66.833 68.883,67.441 69.49,67.643 C70.098,67.846 70.503,67.745 70.503,67.745 L70.908,67.339 M67.77,71.794 C67.77,72.098 67.263,72.807 67.263,72.807 L66.656,72.402" fill-opacity="0" stroke="#1A1919" stroke-width="0.45" stroke-linecap="round" stroke-linejoin="round" id="path16276"/>
    <path d="M43.643,5.4 C49.957,3.379 57.534,5.147 59.303,7.926 M68.397,51.12 C67.134,54.909 62.083,59.961 63.345,66.023 M67.639,42.532 C67.134,48.595 66.123,49.858 64.355,53.899 M34.802,12.473 C31.265,13.483 27.476,16.01 27.982,22.829 M43.643,3.127 C47.684,2.117 54.756,1.864 57.03,3.885 M36.317,55.415 C36.065,57.435 32.78,62.487 31.771,68.55 M39.546,192.868 C38.891,193.522 36.272,193.959 34.962,193.741 M50.24,193.304 C50.895,194.395 51.987,194.83 53.296,195.049" fill-opacity="0" stroke="#1A1919" stroke-width="0.9" stroke-linecap="round" stroke-linejoin="round" id="path16278"/>
  </g>
</svg>
