<?xml version="1.0" encoding="UTF-8" standalone="no"?>
<svg
   xmlns:dc="http://purl.org/dc/elements/1.1/"
   xmlns:cc="http://creativecommons.org/ns#"
   xmlns:rdf="http://www.w3.org/1999/02/22-rdf-syntax-ns#"
   xmlns:svg="http://www.w3.org/2000/svg"
   xmlns="http://www.w3.org/2000/svg"
   xmlns:sodipodi="http://sodipodi.sourceforge.net/DTD/sodipodi-0.dtd"
   xmlns:inkscape="http://www.inkscape.org/namespaces/inkscape"
   version="1.1"
   x="0"
   y="0"
   width="856.956"
   height="941.89"
   viewBox="0, 0, 856.956, 941.89"
   id="svg21744"
   inkscape:version="0.91 r13725"
   sodipodi:docname="ladyremixedtosmartphone.svg">
  <metadata
     id="metadata21889">
    <rdf:RDF>
      <cc:Work
         rdf:about="">
        <dc:format>image/svg+xml</dc:format>
        <dc:type
           rdf:resource="http://purl.org/dc/dcmitype/StillImage" />
        <dc:title></dc:title>
        <dc:description>remixed by j4p4n</dc:description>
        <cc:license
           rdf:resource="http://creativecommons.org/publicdomain/zero/1.0/" />
      </cc:Work>
      <cc:License
         rdf:about="http://creativecommons.org/publicdomain/zero/1.0/">
        <cc:permits
           rdf:resource="http://creativecommons.org/ns#Reproduction" />
        <cc:permits
           rdf:resource="http://creativecommons.org/ns#Distribution" />
        <cc:permits
           rdf:resource="http://creativecommons.org/ns#DerivativeWorks" />
      </cc:License>
    </rdf:RDF>
  </metadata>
  <sodipodi:namedview
     pagecolor="#ffffff"
     bordercolor="#666666"
     borderopacity="1"
     objecttolerance="10"
     gridtolerance="10"
     guidetolerance="10"
     inkscape:pageopacity="0"
     inkscape:pageshadow="2"
     inkscape:window-width="1916"
     inkscape:window-height="1035"
     id="namedview21887"
     showgrid="false"
     inkscape:zoom="0.34460951"
     inkscape:cx="207.53509"
     inkscape:cy="215.43777"
     inkscape:window-x="4"
     inkscape:window-y="1"
     inkscape:window-maximized="1"
     inkscape:current-layer="Layer_1" />
  <defs
     id="defs21746">
    <linearGradient
       id="Gradient_1"
       gradientUnits="userSpaceOnUse"
       x1="20.602"
       y1="878.476"
       x2="413.387"
       y2="878.476"
       gradientTransform="translate(-16.524,-33.258)">
      <stop
         offset="0"
         stop-color="#000000"
         id="stop21749" />
      <stop
         offset="0.995"
         stop-color="#000000"
         id="stop21751" />
    </linearGradient>
    <linearGradient
       id="Gradient_2"
       gradientUnits="userSpaceOnUse"
       x1="60.677"
       y1="875.116"
       x2="392.607"
       y2="875.116"
       gradientTransform="translate(-16.524,-33.258)">
      <stop
         offset="0"
         stop-color="#FFFFFF"
         id="stop21754" />
      <stop
         offset="0.995"
         stop-color="#68E6BA"
         id="stop21756" />
      <stop
         offset="1"
         stop-color="#68E6BA"
         id="stop21758" />
    </linearGradient>
    <radialGradient
       id="Gradient_3"
       gradientUnits="userSpaceOnUse"
       cx="335.569"
       cy="437.323"
       r="12.23"
       gradientTransform="translate(-16.524,-33.258)">
      <stop
         offset="0"
         stop-color="#FFFFFF"
         id="stop21761" />
      <stop
         offset="1"
         stop-color="#6D2B00"
         id="stop21763" />
    </radialGradient>
    <radialGradient
       id="Gradient_4"
       gradientUnits="userSpaceOnUse"
       cx="412.389"
       cy="433.281"
       r="14.427"
       gradientTransform="translate(-16.524,-33.258)">
      <stop
         offset="0"
         stop-color="#FFFFFF"
         id="stop21766" />
      <stop
         offset="1"
         stop-color="#6D2B00"
         id="stop21768" />
    </radialGradient>
  </defs>
  <g
     id="Layer_1">
    <g
       id="g22437"
       transform="translate(-8,8)">
      <path
         d="m 215.35838,768.36851 -177.494796,98.26824 0.177548,5.46143 7.12434,5.20656 109.243478,31.37994 c 0,0 8.90604,0.95941 15.75604,-4.51859 6.853,-5.482 151.83303,-112.08881 151.83303,-112.08881 0,0 2.058,-2.738 0,-6.168 -2.055,-3.427 -2.74104,-6.16596 -2.74104,-6.16596 l -15.51933,0.74723 -82.21127,-12.81204 z"
         id="path22431"
         inkscape:connector-curvature="0"
         style="fill:#ffffff;fill-opacity:1;stroke:#000000;stroke-width:3;stroke-linecap:round;stroke-linejoin:round;stroke-miterlimit:4;stroke-dasharray:none;stroke-opacity:1"
         sodipodi:nodetypes="cccccccccccc" />
      <path
         id="path857"
         d="m 355.108,693.933 -148.793,71.707 75.293,23.305 c 0,0 60.95,-19.72 125.487,-19.72 64.538,0 164.928,7.173 195.405,1.793 30.475,-5.378 95.013,-30.478 139.83,-53.78 44.815,-23.305 82.463,-60.95 73.5,-64.538 -8.962,-3.585 -44.817,-10.757 -44.817,-10.757 l -236.635,-3.583 -179.27,55.573"
         inkscape:connector-curvature="0"
         style="fill:#e3dfdf" />
      <path
         sodipodi:nodetypes="cccccccccc"
         style="fill:url(#Gradient_1)"
         inkscape:connector-curvature="0"
         id="path863"
         d="m 213.715,761.795 -177.317245,103.72967 7.12434,5.20656 109.243475,31.37994 c 0,0 8.90604,0.95941 15.75604,-4.51859 6.853,-5.482 151.83303,-112.08881 151.83303,-112.08881 0,0 2.058,-2.738 0,-6.168 -2.055,-3.427 -5.48,-3.427 -5.48,-3.427 L 219.883,761.105 Z" />
      <path
         sodipodi:nodetypes="ccccc"
         style="fill:url(#Gradient_2)"
         inkscape:connector-curvature="0"
         id="path869"
         d="M 204.588,773.943 47.987547,863.06649 161.81804,896.07819 296.1053,791.67077 Z" />
      <path
         sodipodi:nodetypes="ccccc"
         style="fill-opacity:0;stroke:#000000;stroke-width:2.5;stroke-linecap:round;stroke-linejoin:round"
         inkscape:connector-curvature="0"
         id="path871"
         d="M 204.588,773.943 46.34417,863.61428 160.17466,896.07819 299.93985,790.0274 Z" />
      <path
         id="path873"
         d="m 180.428,807.225 c 0,0 -15.838,7.04 -19.943,9.97 -4.105,2.935 -6.45,8.213 0.588,8.8 7.04,0.585 14.665,-3.517 22.29,-9.385 7.625,-5.865 6.45,-11.73 -2.935,-9.385"
         inkscape:connector-curvature="0"
         style="fill:#ffffff" />
      <path
         id="path875"
         d="m 171.295,566.853 c 0,0 15.1,-10.293 26.08,-14.41 10.98,-4.12 38.433,-18.533 38.433,-18.533 0,0 20.59,-8.232 37.06,-10.295 16.472,-2.057 23.335,-0.685 23.335,-0.685 l 8.922,0.685 39.808,2.745 c 0,0 88.53,82.358 146.867,63.828 58.34,-18.53 190.108,-56.963 227.17,-59.023 37.063,-2.055 63.143,0.688 76.18,4.12 13.04,3.43 16.473,6.86 16.473,6.86 l 14.412,11.67 c 0,0 -3.432,1.373 -5.49,8.235 -2.06,6.863 -7.55,30.198 -7.55,30.198 0,0 -5.49,26.767 -11.667,41.18 -6.178,14.412 -26.08,48.727 -36.375,60.397 -10.293,11.665 -28.138,23.335 -46.668,35 -18.53,11.67 -66.572,29.513 -66.572,29.513 l -5.49,-2.06 -17.845,-4.8 -21.963,-4.123 L 285.22,690.048 236.493,672.89 215.215,654.36 c 0,0 -21.962,-22.647 -26.08,-30.885 -4.117,-8.232 -13.725,-36.372 -13.725,-36.372 l -4.117,-15.788 0.002,-4.462"
         inkscape:connector-curvature="0"
         style="fill:#fffdc9" />
      <path
         id="path877"
         d="m 177.948,564.245 c 0,0 8.75,36.25 32.5,63.75 23.75,27.5 123.75,68.75 155,73.75 31.25,5 222.5,11.25 245,12.5 22.5,1.25 43.75,5 43.75,5 0,0 42.5,-65 91.25,-108.75 48.75,-43.75 68.75,-48.75 68.75,-48.75 l 6.347,0.305 c 0,0 -10.097,28.445 -10.097,34.695 0,6.25 -3.75,25 -17.5,50 -13.75,25 -30,52.5 -35,56.25 -5,3.75 -50,32.5 -57.5,36.25 -7.5,3.75 -50,18.75 -50,18.75 l -18.75,-6.25 -25.283,-4.39 -353.467,-61.86 -18.75,-13.75 -31.25,-30 c 0,0 -20,-22.5 -22.5,-33.75 -2.5,-11.25 -11.25,-41.25 -11.25,-41.25 l 3.75,-2.5 5,0"
         inkscape:connector-curvature="0"
         style="fill:#ffe96a" />
      <path
         id="path879"
         d="m 386.698,604.245 2.5,72.5 c 0,0 53.75,-37.5 90,-30 36.25,7.5 81.25,50 81.25,50 0,0 52.5,-88.75 76.25,-117.5 23.75,-28.75 30,-33.75 30,-33.75 0,0 -98.75,25 -120,30 -21.25,5 -113.75,13.75 -113.75,13.75 l -68.75,-15 22.5,30"
         inkscape:connector-curvature="0"
         style="fill:#ffe96a" />
      <path
         id="path881"
         d="m 195.863,668.435 -22.953,24.815 -26.055,27.295 c 0,0 -24.815,19.233 -21.092,29.78 3.72,10.548 13.027,15.508 13.027,15.508 l 14.888,10.547 9.925,6.825 6.205,-1.245 -5.585,18.615 c 0,0 -3.1,8.065 -4.96,9.925 -1.863,1.86 -4.965,4.963 -4.345,6.823 0.622,1.86 8.687,6.2 15.51,2.48 6.825,-3.72 8.685,-12.408 8.685,-12.408 l 9.305,-35.977 1.862,-4.965 c 0,0 12.408,-5.585 15.508,-14.888 3.102,-9.307 3.722,-17.367 3.722,-17.367 0,0 3.723,7.44 16.13,13.027 12.408,5.58 17.99,6.2 24.195,4.34 6.203,-1.86 7.445,-4.34 7.445,-4.34 l -12.407,-8.067 -7.445,-6.205 16.127,-3.103 c 0,0 11.17,4.968 37.223,6.208 26.055,1.24 43.427,-3.105 43.427,-3.105 l 14.888,-2.48 13.027,4.345 31.638,8.68 30.4,4.967 22.952,-49.01 -24.815,-1.24 -14.267,0 -15.51,-3.105 -73.203,-23.572 -22.332,4.345 c 0,0 -14.89,7.44 -27.298,6.2 -12.405,-1.24 -37.842,-9.305 -37.842,-9.305 l -13.648,-4.963 c 0,0 -8.682,-2.48 -13.027,-2.48 -4.343,0 -9.305,3.1 -9.305,3.1"
         inkscape:connector-curvature="0"
         style="fill:#ffeacd" />
      <path
         id="path883"
         d="m 348.298,484.495 c 0,0 24.935,88.238 77.687,100.708 52.753,12.465 114.135,-15.348 114.135,-15.348 l 25.898,-75.77 -13.428,-75.77 -22.06,4.795 -31.652,6.715 c 0,0 -10.55,4.795 -20.14,0 -9.593,-4.797 -12.47,-11.51 -12.47,-11.51 l -2.878,-5.755 1.918,-7.672 c 0,0 14.39,-0.96 18.225,-17.265 3.835,-16.305 3.835,-43.16 3.835,-43.16 0,0 -27.81,-30.69 -53.708,-50.83 -25.897,-20.143 -96.872,-41.245 -117.012,-35.49 -20.143,5.757 -59.468,48.917 -58.508,68.1 0.96,19.18 7.99,26.515 7.99,26.515 0,0 6.398,34.867 13.11,42.54 6.715,7.675 19.183,20.142 19.183,20.142 l 5.755,12.468 c 0,0 7.672,25.895 14.387,34.527 6.713,8.633 29.733,22.06 29.733,22.06"
         inkscape:connector-curvature="0"
         style="fill:#ffeacd" />
      <path
         id="path885"
         d="m 622.608,2.535 c 0,0 -7.673,-2.877 -8.633,11.51 -0.96,14.385 2.878,34.528 2.878,34.528 l 6.715,30.692 c 0,0 6.712,23.975 6.712,29.733 0,5.755 0,36.445 0,36.445 0,0 0.96,17.265 5.755,23.02 4.795,5.755 15.348,12.47 15.348,12.47 l 7.67,9.59 5.757,18.222 -5.757,15.348 -3.835,7.672 c 0,0 -4.795,19.183 6.712,29.733 11.51,10.55 47.96,14.387 56.59,-1.918 8.63,-16.305 11.51,-30.692 11.51,-30.692 l -1.92,-13.428 5.755,-25.897 4.798,-9.59 c 0,0 7.67,-0.96 14.385,-23.02 6.712,-22.058 10.55,-40.283 10.55,-40.283 l 14.387,-32.61 c 0,0 12.47,-27.815 12.47,-31.652 0,-3.835 -6.717,-5.753 -11.512,-5.753 -4.795,0 -17.263,3.835 -17.263,3.835 l -7.675,3.838 -7.672,0 -7.67,-2.878 -4.798,1.918 c 0,0 -11.512,4.795 -13.427,9.592 -1.918,4.795 -3.835,15.345 -3.835,15.345 l -1.92,9.593 c 0,0 -5.755,15.342 -6.715,23.977 -0.958,8.633 -2.875,23.978 -2.875,23.978 l -3.838,17.265 -9.59,20.14 c 0,0 -5.755,-16.305 -7.672,-26.855 -1.92,-10.55 -3.84,-53.71 -3.84,-53.71 0,0 -2.875,-36.448 -3.835,-42.203 -0.96,-5.752 -5.753,-11.51 -5.753,-11.51 l -8.635,-5.752 c 0,0 -2.877,-4.795 -7.672,-8.633 -4.795,-3.837 -12.47,-2.877 -15.348,-8.632 -2.875,-5.755 -8.63,-10.55 -8.63,-10.55 l -7.672,-2.878"
         inkscape:connector-curvature="0"
         style="fill:#efecfb" />
      <path
         id="path887"
         d="m 324.945,223.418 c 0,0 0.59,-8.248 5.303,-14.14 4.712,-5.893 11.195,-7.07 11.195,-7.07 0,0 13.55,-0.59 19.442,1.767 5.893,2.358 15.318,5.893 15.318,5.893 0,0 10.017,-7.073 16.497,-4.715 6.483,2.357 12.373,7.07 12.373,7.07 0,0 37.117,-8.248 45.957,-10.015 8.838,-1.768 19.443,-4.125 23.568,3.535 4.122,7.66 10.602,25.925 8.835,42.42 -1.768,16.497 -30.635,21.8 -30.635,21.8 L 324.945,223.418"
         inkscape:connector-curvature="0"
         style="fill:#f257fb" />
      <path
         id="path889"
         d="m 316.695,225.185 c 0,0 -0.165,0.078 -0.475,0.22 -3.472,1.593 -24.947,11.603 -32.52,18.635 -8.247,7.658 -14.14,13.55 -15.317,18.853 -1.178,5.302 -4.125,11.195 -4.125,11.195 0,0 -23.568,9.427 -30.048,19.442 -6.48,10.015 -15.907,26.515 -12.372,39.475 3.535,12.963 10.015,22.98 17.085,27.103 7.07,4.122 11.785,4.712 11.785,4.712 l 8.247,-0.59 c 0,0 -7.07,-4.712 -8.247,-6.48 -1.18,-1.767 -2.948,-7.657 -2.948,-7.657 l 2.358,-6.483 c 0,0 9.4,13.895 19.205,18.1 9.997,4.285 15.71,5.428 15.71,5.428 0,0 -10.76,-11.745 -12.528,-23.528 -1.767,-11.782 1.768,-21.21 1.768,-21.21 l 3.535,-11.195 5.305,-4.122 4.122,-1.18 c 0,0 -7.66,30.637 4.715,45.367 12.373,14.728 20.62,17.085 20.62,17.085 l 10.018,2.358 c 0,0 -11.785,-14.14 -14.143,-25.923 -2.355,-11.785 -2.942,-21.802 -0.587,-31.227 2.355,-9.428 5.89,-15.32 5.89,-15.32 l 2.357,-2.945 c 0,0 -0.59,21.8 11.785,35.94 12.373,14.14 21.798,17.675 31.815,18.855 10.015,1.177 15.908,0 15.908,0 0,0 -14.73,-4.125 -18.265,-7.66 -3.535,-3.535 -13.55,-18.855 -13.55,-18.855 0,0 -3.93,-9.543 -1.573,-14.845 2.355,-5.303 4.203,-8.025 4.203,-8.025 0,0 8.565,2.84 18.58,3.427 10.015,0.59 27.102,-4.712 27.102,-4.712 0,0 -4.715,5.302 -11.195,7.07 -6.48,1.767 -7.66,2.945 -7.66,2.945 0,0 5.305,5.302 12.963,7.07 7.66,1.767 14.727,0.59 15.907,0.59 1.18,0 7.66,-1.768 7.66,-1.768 0,0 -4.125,2.948 -7.07,4.125 -2.945,1.178 0,5.3 8.248,12.373 8.247,7.07 12.372,10.015 15.32,10.605 2.945,0.59 6.48,1.767 6.48,1.767 0,0 9.427,14.728 14.14,23.565 4.712,8.84 8.837,17.675 8.837,17.675 l 4.125,10.605 c 0,0 0.59,-15.905 -2.357,-28.28 -2.945,-12.372 -4.125,-20.03 -4.125,-20.03 0,0 2.357,-5.892 7.66,-7.07 5.305,-1.18 5.892,-4.125 12.962,1.178 7.07,5.302 10.015,11.782 10.015,11.782 l 2.948,10.605 c 0,0 15.907,13.55 31.815,12.963 15.907,-0.588 21.8,-2.945 21.8,-2.945 l 6.48,-4.125 c 0,0 -6.483,-3.535 -11.783,-8.248 -5.302,-4.715 -15.317,-21.21 -15.907,-29.46 -0.59,-8.247 1.767,-40.065 2.357,-53.025 0.588,-12.962 -2.357,-32.407 -3.535,-36.53 -1.18,-4.122 -7.07,-17.675 -12.372,-24.745 -5.305,-7.07 -12.963,-9.425 -12.963,-9.425 l -7.66,-1.767 -8.247,1.767 c 0,0 4.122,6.478 2.355,22.388 -1.765,15.907 -5.303,22.977 -5.303,22.977 l -3.535,5.893 -4.122,0 -13.553,-4.715 c 0,0 -21.8,-22.978 -37.707,-30.048 -15.908,-7.07 -32.993,-10.605 -43.598,-11.195 -10.607,-0.587 -32.405,4.715 -32.405,4.715 L 327.3,222.24"
         inkscape:connector-curvature="0"
         style="fill:#733b00" />
      <path
         id="path891"
         d="m 376.225,217.73 c 0,0 -26.575,2.573 -49.722,12.86 -23.15,10.288 -35.153,21.433 -39.438,28.29 -4.287,6.86 -3.43,11.145 -3.43,11.145 0,0 12.86,-13.717 20.575,-17.145 7.715,-3.43 9.43,-4.287 7.715,-1.715 -1.715,2.573 -7.715,7.715 -10.287,12.86 -2.573,5.145 -4.285,12.86 -4.285,12.86 0,0 12.86,-12.86 18.86,-15.432 6.002,-2.573 10.29,-4.285 6.002,1.715 -4.287,6.002 -12.005,19.717 -12.005,19.717 0,0 -19.717,-0.857 -24.86,-2.57 -5.145,-1.715 -19.72,-6.002 -19.72,-6.002 0,0 -4.285,-11.143 17.148,-28.29 21.432,-17.148 38.58,-22.293 38.58,-22.293 l 18.86,-5.142 c 0,0 32.58,-3.43 36.007,-0.858"
         inkscape:connector-curvature="0"
         style="fill:#ffffff" />
      <path
         id="path893"
         d="m 260.488,276.028 c 0,0 -21.435,9.432 -30.865,24.005 -9.43,14.575 -7.715,31.722 -7.715,31.722 l 4.285,13.718 c 0,0 -3.428,-30.008 12.862,-43.725 16.288,-13.718 38.578,-16.29 38.578,-16.29 0,0 -12.003,8.572 -16.288,12.86 -4.287,4.287 -10.29,15.432 -10.29,15.432 l -3.427,10.288 1.715,12.002 c 0,0 5.142,-0.857 13.717,-15.432 8.573,-14.573 11.145,-18.003 18.86,-22.29 7.715,-4.288 7.715,1.715 7.715,1.715 0,0 -4.285,15.432 -4.285,24.862 0,9.43 7.715,25.72 7.715,25.72 0,0 -5.145,-20.575 6,-39.437 11.145,-18.86 17.04,-15.88 17.04,-15.88 0,0 1.823,22.737 7.825,29.597 6,6.86 16.288,18.005 16.288,18.005 0,0 -12.86,-15.435 -12.003,-30.007 0.858,-14.575 5.145,-20.575 5.145,-20.575 0,0 -3.43,-8.573 0,-15.433 3.428,-6.86 5.143,-14.575 0.855,-11.145 -4.285,3.43 -24.86,14.575 -24.86,14.575 l -18.862,0 -24.863,-8.575 0,2.573 -5.142,1.715"
         inkscape:connector-curvature="0"
         style="fill:#ffffff" />
      <path
         id="path895"
         d="m 479.963,226.303 c 0,0 9.427,-9.43 23.147,8.572 13.718,18.005 12.86,33.438 13.718,43.725 0.855,10.288 0.855,36.008 0.855,36.008 0,0 7.72,-41.153 1.717,-65.158 -6.005,-24.005 -16.29,-34.292 -16.29,-34.292 0,0 -9.43,-8.573 -14.575,-8.573 -5.145,0 -12.002,0.858 -12.002,0.858 l 2.572,7.715 0.858,11.145"
         inkscape:connector-curvature="0"
         style="fill:#ffffff" />
      <path
         id="path897"
         d="m 421.173,263.958 c 0,0 2.042,17.345 -7.143,27.547 -9.182,10.203 -17.345,13.263 -17.345,13.263 0,0 -2.04,2.04 5.103,0 7.142,-2.043 15.302,-5.1 20.405,-18.365 5.1,-13.265 0,-27.548 -1.02,-22.445"
         inkscape:connector-curvature="0"
         style="fill:#ffffff" />
      <path
         id="path899"
         d="m 434.435,275.18 c 0,0 7.143,17.345 2.04,26.528 -5.1,9.182 -20.405,15.302 -14.282,15.302 6.122,0 16.322,-6.12 19.385,-17.345 3.06,-11.222 0,-17.345 -2.04,-20.405 -2.043,-3.06 -6.12,-8.162 -5.103,-4.08"
         inkscape:connector-curvature="0"
         style="fill:#ffffff" />
      <path
         id="path901"
         d="m 356.83,451.63 c 0,0 7.708,0.968 11.723,-2.092 4.017,-3.058 10.637,-4.863 8.727,-1.993 -1.912,2.868 -10.042,5.73 -10.042,5.73 0,0 0.87,0.165 -2.193,0.548 -3.06,0.382 -8.215,-2.193 -8.215,-2.193"
         inkscape:connector-curvature="0"
         style="fill:#ffbdaf" />
      <path
         id="path903"
         d="m 370.298,465.52 c 0,0 1.467,8.405 12.37,8.023 10.9,-0.383 14.21,-3.435 15.93,-5.538 1.722,-2.102 4.705,-10.165 4.705,-10.165 0,0 -2.025,0.795 -6.233,2.518 -4.21,1.72 -10.517,2.1 -12.812,1.91 -2.295,-0.19 -5.713,2.927 -7.433,1.78 -1.722,-1.148 -2.097,-1.13 -4.2,-0.365 -2.105,0.765 -3.285,1.072 -3.285,1.072 l 0.958,0.765"
         inkscape:connector-curvature="0"
         style="fill:#ffaded" />
      <path
         id="path905"
         d="m 457.625,367.115 c 0,0 -1.135,-18.075 6.78,-17.66 7.918,0.418 12.5,2.918 13.75,8.335 1.25,5.415 1.25,11.248 1.25,14.583 0,3.332 -3.07,-0.07 -3.905,3.68 -0.832,3.75 -0.68,3.82 -0.262,8.82 0.417,5 -5.473,0.117 -7.558,0.117 -2.082,0 -6.145,9.498 -6.145,9.498 -2.792,-15.643 4.33,-16.075 3.353,-22.905 -0.418,-2.915 -7.263,-4.468 -7.263,-4.468"
         inkscape:connector-curvature="0"
         style="fill:#ffbdaf" />
      <path
         id="path907"
         d="m 303.298,428.613 c 0,0 -21.275,7.09 -22.853,14.97 -1.575,7.88 -2.362,18.122 3.94,33.882 6.305,15.76 8.668,18.123 8.668,18.123 l 15.76,52.795 c 0,0 16.547,54.37 18.122,64.61 1.578,10.242 4.728,23.64 4.728,23.64 l 2.365,21.275 -11.82,7.09 -12.608,3.155 -9.455,3.15 -3.152,2.362 -1.575,3.155 c 0,0 13.397,-4.73 18.122,-1.577 4.728,3.15 16.548,11.815 20.488,19.697 3.94,7.88 4.727,18.91 3.94,21.273 -0.788,2.37 -1.575,7.095 -3.153,7.882 -1.575,0.79 -7.092,4.725 -7.092,4.725 l -7.09,6.305 c 0,0 2.362,3.155 5.515,3.155 3.152,0 28.367,-3.942 38.61,-8.667 10.242,-4.728 22.852,-9.453 28.367,-26.003 5.515,-16.547 7.09,-29.157 7.09,-39.397 0,-10.245 -3.15,-31.52 -3.15,-31.52 L 389.973,605.9 c 0,0 14.185,20.49 33.882,18.913 19.698,-1.578 46.49,-7.88 46.49,-7.88 l 39.398,1.575 29.942,1.577 12.608,-1.577 -2.363,58.312 -1.577,14.97 c 0,0 -3.94,6.303 -5.515,6.303 -1.575,0 -9.458,0.787 -9.458,0.787 l -15.757,1.578 -33.883,-2.365 -28.367,-2.363 c 0,0 -11.82,0 -14.97,0.785 -3.153,0.793 -20.488,13.4 -22.063,27.58 -1.577,14.185 -2.362,26.793 6.303,29.155 8.667,2.363 26.002,3.155 26.002,3.155 l 67.765,14.97 c 0,0 52.008,8.668 68.553,-5.517 16.545,-14.185 25.215,-31.52 25.215,-31.52 l 7.877,-34.668 4.728,-85.1 0.787,-42.547 c 0,0 30.73,-31.52 62.25,-36.248 31.518,-4.727 58.31,-6.305 58.31,-6.305 l 36.24,3.155 c 0,0 3.938,-37.037 -22.85,-67.767 -26.79,-30.73 -71.705,-54.368 -106.375,-57.52 -34.67,-3.153 -61.462,-2.363 -61.462,-2.363 0,0 -16.545,0 -22.85,3.153 -6.303,3.15 -14.97,5.515 -14.97,5.515 l -11.033,3.94 -7.88,0 0,13.395 1.575,45.7 c 0,0 2.365,28.367 -8.667,55.157 -11.03,26.79 -16.548,32.305 -33.093,39.398 -16.547,7.092 -36.247,11.032 -54.37,5.517 -18.122,-5.517 -37.035,-23.64 -40.975,-29.942 -3.937,-6.305 -12.605,-25.215 -12.605,-25.215 l -8.667,-22.063 c 0,0 -26.79,-9.455 -41.763,-21.275 -14.972,-11.82 -22.85,-26.792 -22.85,-26.792 l -6.305,-12.605 -3.932,-10.245"
         inkscape:connector-curvature="0"
         style="fill:#ffe0ff" />
      <path
         id="path909"
         d="m 653.69,225.735 5.188,0 c 0,0 -4.323,1.73 -2.163,10.805 2.163,9.075 9.075,17.718 9.075,17.718 l 9.94,6.912 8.643,3.458 -9.94,-28.088 c 0,0 6.48,9.075 12.965,11.235 6.485,2.16 22.472,2.16 28.955,-3.89 6.482,-6.05 12.1,-13.395 11.667,-18.15 -0.432,-4.752 -1.727,-11.667 -1.727,-11.667 0,0 9.072,10.805 17.715,22.04 8.642,11.235 30.682,43.215 30.682,43.215 0,0 36.73,51.42 42.348,62.657 5.617,11.235 19.88,45.805 19.88,45.805 l 7.777,26.793 c 0,0 7.345,29.385 8.21,38.027 0.865,8.643 2.593,27.225 1.298,33.275 -1.298,6.05 -17.718,33.705 -17.718,33.705 l -24.2,22.038 -15.99,-5.618 -19.877,-4.32 c 0,0 1.73,-17.717 -0.433,-28.52 -2.16,-10.805 -10.802,-24.632 -20.31,-35.867 -9.505,-11.235 -20.737,-24.2 -42.78,-34.57 -22.04,-10.373 -34.14,-13.828 -46.672,-16.42 -12.533,-2.595 -30.248,-2.595 -30.248,-2.595 0,0 -25.065,3.89 -25.93,3.89 -0.862,0 -10.805,-8.21 -10.805,-8.21 l -8.642,-3.458 10.372,-4.755 12.963,-6.482 c 0,0 8.212,-57.47 13.4,-78.645 C 632.518,294.878 639,265.925 639,265.925 l 70.005,44.943 -5.617,39.755 -9.073,42.35 c 0,0 11.235,1.727 20.31,5.617 9.073,3.89 22.903,8.21 22.903,8.21 l 15.987,-1.727 7.348,-2.16 -26.36,-40.623 -22.903,-47.532 -73.032,-38.46 c 0,0 -0.433,-9.94 2.592,-17.285 3.025,-7.348 7.778,-19.015 7.778,-19.015 l 4.752,-14.263"
         inkscape:connector-curvature="0"
         style="fill:#4388fd" />
      <path
         id="path911"
         d="m 616.483,391.565 c 0,0 40.647,-93.92 51.865,-107.94 11.215,-14.017 18.225,-16.822 18.225,-16.822 l 21.027,46.26 -7.01,51.867 -5.607,26.635 -32.24,0 -19.628,-1.402 -16.82,2.805 -12.615,4.205 2.803,-5.608"
         inkscape:connector-curvature="0"
         style="fill:#4566fd" />
      <path
         id="path913"
         d="m 713.205,249.28 c 0,0 71.493,120.558 89.718,149.995 18.225,29.438 37.847,53.268 40.652,63.08 2.805,9.815 -35.042,-37.847 -51.865,-46.257 -16.825,-8.413 -33.645,-12.618 -33.645,-12.618 l -47.662,-91.117 -26.03,-47.735 -9.015,-25.16 c 0,0 5.607,8.41 12.615,9.812 7.01,1.403 15.42,0 15.42,0 0,0 8.41,1.403 9.812,0"
         inkscape:connector-curvature="0"
         style="fill:#4566fd" />
      <path
         id="path915"
         d="m 640.343,25.018 c 0,0 -14.525,-10.055 -14.525,6.702 0,16.76 18.995,10.055 21.227,16.76 2.235,6.703 -6.702,17.875 -10.055,23.46 -3.352,5.588 -5.587,27.933 -14.525,-2.232 -8.937,-30.165 -10.052,-54.745 -10.052,-54.745 0,0 -2.235,-10.055 5.585,-12.29 7.82,-2.233 10.055,1.117 10.055,1.117 0,0 6.705,5.588 7.822,7.823 1.115,2.232 4.468,13.405 4.468,13.405"
         inkscape:connector-curvature="0"
         style="fill:#ffffff" />
      <path
         id="path917"
         d="m 735.305,52.948 c 0,0 -8.937,4.47 -12.29,10.055 -3.352,5.587 -6.702,21.227 -4.467,17.877 2.232,-3.352 14.522,-10.055 22.342,-8.94 7.82,1.118 23.463,-8.937 29.05,-5.585 5.585,3.353 13.408,7.82 15.64,3.353 2.235,-4.47 6.703,-22.345 -2.235,-22.345 -8.937,0 -17.875,2.235 -17.875,2.235 l -5.585,2.232 c 0,0 -4.47,2.235 -10.055,2.235 -5.587,0 -8.94,0 -8.94,0 l -5.585,-1.117"
         inkscape:connector-curvature="0"
         style="fill:#ffffff" />
      <path
         id="path921"
         d="m 283.83,381.793 c 4.84,-15.203 23.095,-9.74 34.075,-6.323 1.775,0.553 2.81,-2.147 1.03,-2.702 -12.775,-3.975 -31.885,-8.148 -37.062,8.657 -0.38,1.233 1.575,1.57 1.957,0.368"
         inkscape:connector-curvature="0"
         style="fill:#3a1000" />
      <path
         id="path923"
         d="m 366.123,370.565 c 1.73,-6.492 10.127,-8.782 15.89,-9.307 9.44,-0.86 18.02,2.197 26.375,6.287 1.075,0.525 2.227,-1.067 1.197,-1.787 -8.762,-6.128 -20.185,-7.91 -30.642,-6.588 -6.148,0.778 -13.413,4.465 -13.833,11.233 -0.037,0.582 0.863,0.727 1.013,0.162"
         inkscape:connector-curvature="0"
         style="fill:#3a1000" />
      <path
         id="path925"
         d="m 454.125,348.81 c 0.165,-4.295 7.86,-7.862 11.268,-8.272 4.86,-0.583 9.08,4.467 12.367,7.755 9.318,9.327 8.57,23.467 5.518,35.092 -2.153,8.2 -7.838,19.483 -17.313,20.235 -1.545,0.125 -1.575,2.548 -0.017,2.423 3.912,-0.31 9.347,-2.263 12.19,-4.748 8.657,-7.567 9.52,-20.007 10.275,-30.992 0.772,-11.285 -4.083,-27.773 -16.185,-31.625 -6.498,-2.068 -19.518,1.355 -19.188,10.14 0.025,0.615 1.063,0.607 1.085,-0.008"
         inkscape:connector-curvature="0"
         style="fill:#000000" />
      <path
         id="path927"
         d="m 451.388,344.878 c 0.065,8.852 4.08,17.092 5.965,25.625 2.192,9.917 0.48,20.25 1.702,30.23 0.103,0.847 1.35,0.74 1.45,-0.058 1.058,-8.562 0.47,-18.15 -0.537,-26.705 -1.168,-9.93 -5.933,-18.982 -6.65,-28.992 -0.088,-1.208 -1.94,-1.373 -1.93,-0.1"
         inkscape:connector-curvature="0"
         style="fill:#000000" />
      <path
         id="path929"
         d="m 437.203,350.733 c 2.277,10.237 10.05,18.02 13.677,27.847 2.088,5.653 5.138,10.68 5.623,16.715 0.197,2.478 0.53,5.145 2.722,6.58 0.855,0.558 1.928,-0.432 1.448,-1.33 -1.725,-3.227 -1.563,-6.655 -1.98,-10.175 -0.518,-4.325 -2.443,-8.535 -4.073,-12.53 -4.095,-10.022 -11.612,-17.862 -16.867,-27.312 -0.145,-0.258 -0.615,-0.088 -0.55,0.205"
         inkscape:connector-curvature="0"
         style="fill:#000000" />
      <path
         id="path931"
         d="m 340.835,297.273 c 8.655,9.075 32.3,8.322 43.418,5.592 11.35,-2.79 25.485,-11.345 26.997,-24.7 0.14,-1.237 -1.922,-1.352 -1.932,-0.1 -0.085,12.43 -20.63,20.153 -30.49,22.633 -5.678,1.427 -11.853,1.527 -17.66,1.445 -6.505,-0.09 -14.905,-0.775 -19.783,-5.73 -0.225,-0.225 -0.765,0.635 -0.55,0.86"
         inkscape:connector-curvature="0"
         style="fill:#000000" />
      <path
         id="path933"
         d="m 387.948,318.143 c 11.08,2.037 23.407,-1.42 32.647,-7.328 7.533,-4.817 14.22,-13.092 14.695,-22.77 0.068,-1.402 -2.057,-1.45 -2.17,-0.065 -0.767,9.51 -9.765,16.423 -17.147,21.3 -8.813,5.825 -17.215,9.4 -27.895,7.993 -0.565,-0.075 -0.685,0.767 -0.13,0.87"
         inkscape:connector-curvature="0"
         style="fill:#000000" />
      <path
         id="path935"
         d="m 423.093,340.023 c 0.53,2.417 4.792,3.237 6.675,3.762 4.78,1.335 9.65,0.198 13.875,-2.257 6.262,-3.64 12.322,-10.763 15.945,-16.705 4.697,-7.698 6.132,-17.823 6.32,-26.898 0.03,-1.525 -2.308,-1.547 -2.365,-0.027 -0.488,13.032 -7.195,23.792 -14.485,34.162 -4.01,5.703 -8.105,9.543 -15.305,10.015 -2.175,0.143 -8.955,0.62 -9.908,-2.237 -0.137,-0.415 -0.847,-0.25 -0.752,0.185"
         inkscape:connector-curvature="0"
         style="fill:#000000" />
      <path
         id="path937"
         d="m 368.695,464.985 c 3.88,3.12 10.718,3.533 15.46,3.38 3.955,-0.13 8.22,-1.095 11.675,-3.05 5.093,-2.877 6.49,-5.335 10.393,-9.302 2.045,-2.078 -0.293,-1.755 -3.105,0.915 -6.463,6.14 -13.878,8.517 -21.363,8.717 -4.092,0.11 -8.625,-0.225 -12.497,-1.635 -0.603,-0.217 -1.07,0.565 -0.563,0.975"
         inkscape:connector-curvature="0"
         style="fill:#000000" />
      <path
         id="path939"
         d="m 462.095,419.625 c -6.145,26.813 -11.052,48.9 -39.105,69.828 -28.815,21.495 -64.725,3.157 -88.625,-16.84 -10.365,-8.673 -18.267,-17.98 -23.77,-30.503 -3.63,-8.255 -4.91,-13.43 -9.055,-21.475 -3.292,-6.395 -13.535,-19.72 -17.102,-25.885 -8.925,-15.43 -9.913,-19.225 -14.178,-34.32 -0.44,-1.565 -4.992,-3.912 -4.72,-2.36 2.56,14.675 5.695,25.798 14.738,37.605 3.945,5.153 9.112,14.228 15.715,22.188 2.855,3.437 5.57,8.78 7.135,12.892 1.797,4.718 3.417,9.51 5.455,14.135 4.995,11.345 9.995,21.205 19.64,28.713 32.222,25.087 50.435,34.652 78.01,26.462 29.255,-8.69 45.055,-33.967 53.067,-60.89 3.753,-12.605 4.345,-19.287 5.588,-27.93 0.105,-0.715 0.132,-5.167 0,-4.47 l -2.793,12.85"
         inkscape:connector-curvature="0"
         style="fill:#000000" />
      <path
         id="path941"
         d="m 292.728,296.253 c -5.695,2.077 -7.16,9.35 -8,14.615 -1.213,7.562 -2.518,16.222 -1.555,23.797 2.525,19.888 20.422,34.933 40.04,37.633 1.095,0.152 1.41,-1.618 0.355,-1.903 -17.4,-4.68 -32.26,-17.44 -35.538,-35.78 -1.055,-5.89 -1.255,-11.992 -1.08,-17.957 0.18,-6.133 0.755,-15.153 6.63,-18.738 1.05,-0.64 0.268,-2.08 -0.852,-1.667"
         inkscape:connector-curvature="0"
         style="fill:#000000" />
      <path
         id="path943"
         d="m 316.988,294.503 c -5.088,1.64 -7,9.095 -8.478,13.567 -2.76,8.353 -4.22,17.26 -3.767,26.055 0.855,16.595 3.817,30.05 18.96,37.983 1.127,0.59 3.682,0.12 2.642,-0.813 -5.632,-5.045 -5.322,-4.475 -9.507,-10.86 -4.438,-6.77 -5.368,-14.155 -7.165,-21.985 -1.97,-8.59 -2.393,-17.96 -0.298,-26.387 1.24,-4.985 3.12,-13.918 8.108,-16.433 0.717,-0.362 0.252,-1.367 -0.495,-1.127"
         inkscape:connector-curvature="0"
         style="fill:#000000" />
      <path
         id="path945"
         d="m 304.93,430.753 c 0.005,-0.278 0.01,-0.553 0.013,-0.828 0.012,-0.685 -1.78,-4.197 -2.463,-4.022 -5.642,1.447 -12.882,5.622 -17.425,9.585 -5.455,4.755 -7.6,10.042 -7.63,17.142 -0.032,7.843 1.24,14.523 3.995,21.863 1.465,3.9 2.918,7.81 4.493,11.667 1.287,3.153 3.837,6.375 4.815,9.578 4.065,13.295 8.067,26.61 12.16,39.897 6.382,20.708 12.87,41.38 18.995,62.165 2.837,9.635 2.61,13.935 4.445,23.828 1.377,7.442 5.225,20.265 6.025,27.79 0.232,2.172 0.417,4.352 0.595,6.532 0.05,0.598 0.092,1.198 0.135,1.798 0.095,1.317 0.957,-0.61 0.31,-0.29 -11.103,5.5 -22.358,9.207 -34.045,13.14 -1.483,0.5 -3.305,1.11 -4.53,2.13 -0.543,0.45 -2.188,3.94 -1.925,3.847 -4.69,1.63 -9.563,2.768 -14.438,3.678 -24.152,4.492 -45.46,-12.038 -68.932,-15.085 -10.14,-1.313 -14.923,2.08 -21.75,9.147 -10.39,10.745 -16.633,17.44 -26.885,28.33 -9.953,10.565 -26.453,24.79 -34.175,37.22 -4.643,7.473 -3.628,15.378 1.995,20.705 6.22,5.888 17.58,11.703 24.537,16.67 2.003,1.43 4.005,2.855 5.993,4.3 1.39,1.018 2.885,1.773 4.465,2.423 1.107,0.46 5.99,-1.183 5.755,-1.323 0.97,0.58 1.957,-0.87 0.987,-1.455 -0.73,-0.44 -1.39,-0.22 -2.172,-0.005 -4.013,1.093 -5.59,0.14 -8.57,-2.1 -2.37,-1.787 -4.77,-3.535 -7.155,-5.302 -7.288,-5.395 -17.578,-11.27 -22.145,-19.405 -3.748,-6.68 -3.293,-11.118 1.407,-16.938 4.825,-5.972 10.878,-11.045 16.413,-16.335 12.232,-11.687 23.275,-24.447 34.442,-37.132 3.925,-4.453 7.958,-8.805 12.235,-12.92 4.178,-4.018 9.77,-3.81 15.19,-3.12 11.84,1.51 23.328,6.202 34.488,10.21 10.537,3.79 23.062,7.32 34.425,5.957 5.472,-0.66 11.01,-2.575 16.28,-4.165 0.802,-0.245 3.425,-2.972 4.165,-3.41 1.817,-1.072 -4.073,-1.2 -2.383,-2.235 3.478,-2.125 8.233,-2.897 12.1,-3.965 3.823,-1.055 10.483,-2.115 14.133,-3.64 4.98,-2.077 6.912,-4.807 11.742,-7.212 0.375,-0.188 0.653,-0.683 0.625,-1.098 -2.54,-39.54 -15.497,-77.17 -26.77,-114.875 -4.627,-15.472 -9.362,-30.915 -14.112,-46.35 -0.278,-0.897 -0.555,-1.797 -0.833,-2.695 -1.177,-3.822 -4.055,-7.652 -5.642,-11.44 -1.598,-3.812 -3.023,-7.72 -4.51,-11.577 -3.01,-7.805 -5.15,-18.868 -2.1,-27.005 3.09,-8.255 14.79,-11.283 22.427,-13.5 -0.437,-0.358 -0.877,-0.715 -1.315,-1.075 0.005,0.275 0.008,0.55 0.013,0.825 0.022,1.352 2.087,1.44 2.107,0.075"
         inkscape:connector-curvature="0"
         style="fill:#000000" />
      <path
         id="path947"
         d="m 266.218,273.228 c 1.9,-12.508 12.78,-21.703 22.507,-28.618 10.318,-7.332 21.845,-13.095 33.448,-18.082 13.082,-5.623 26.637,-9.495 40.867,-10.723 18.23,-1.572 33.888,2.91 50.315,10.213 1.503,0.667 2.65,-1.268 1.28,-2.215 -13.967,-9.675 -33.122,-11.85 -49.655,-11.033 -15.657,0.775 -32.325,3.62 -46.6,9.838 -12.967,5.647 -25.912,11.752 -37.1,20.442 -8.885,6.898 -15.492,18.53 -17.17,30.1 -0.195,1.35 1.908,1.403 2.108,0.078"
         inkscape:connector-curvature="0"
         style="fill:#000000" />
      <path
         id="path949"
         d="m 405.453,222.608 c 7.88,3.297 26.31,15.677 32.935,20.82 10.167,7.89 14.75,15.652 20.64,26.89 6.027,11.502 10.437,23.332 12.935,36.1 1.89,9.677 3.195,21.325 -0.285,30.752 -0.525,1.418 1.877,2.385 2.462,0.99 3.773,-9.002 2.363,-20.052 0.965,-29.427 -1.89,-12.693 -3.17,-24.785 -9.08,-36.155 -6.19,-11.898 -15.297,-23.588 -25.742,-32.28 -7.17,-5.968 -15.633,-13.133 -24.815,-15.778 -0.975,-0.282 -1.493,1.088 -0.545,1.483 l -9.47,-3.395"
         inkscape:connector-curvature="0"
         style="fill:#000000" />
      <path
         id="path951"
         d="m 405.368,213.613 c 15.892,-3.585 31.607,-8.188 47.785,-10.255 6.44,-0.825 13.825,-1.105 19.002,3.402 4.083,3.553 5.753,10.308 6.213,15.45 0.932,10.405 -1.298,21.82 -5.668,31.288 -0.665,1.44 -1.062,3.402 -1.782,4.72 -0.7,1.275 -5.245,-0.33 -6.355,-0.625 -4.098,-1.085 -8.305,-2.463 -12.273,-3.848 -1.247,-0.435 -2.037,1.433 -0.925,2.093 4.243,2.502 18.813,9.38 22.12,3.215 5.51,-10.265 7.823,-23.925 7.455,-35.48 -0.36,-11.285 -2.267,-23.365 -14.537,-25.195 -8.523,-1.27 -19.603,3.12 -27.825,4.992 -11.25,2.56 -22.413,5.645 -33.665,8.263 -1.275,0.297 -0.825,2.267 0.455,1.98"
         inkscape:connector-curvature="0"
         style="fill:#000000" />
      <path
         id="path953"
         d="m 405.395,212.083 c 0.13,0.005 -4.142,-4.143 -4.792,-4.713 -2.888,-2.532 -7.328,-4.247 -11.05,-4.45 -5.485,-0.292 -14.885,3.538 -17.06,9.38 -0.403,1.088 1.017,1.788 1.797,1.118 3.35,-2.88 7.333,-4.935 11.673,-6.035 3.957,-1.003 8.047,-0.565 11.697,1.202 0.778,0.378 5.848,3.403 5.96,4.55 0.035,0.365 0.468,0.735 0.833,0.72 0.275,-0.012 0.547,-0.027 0.822,-0.04 1.088,-0.052 1.265,-1.68 0.12,-1.732"
         inkscape:connector-curvature="0"
         style="fill:#000000" />
      <path
         id="path955"
         d="m 326.678,221.59 c -1.925,-2.215 2.92,-9.647 4.132,-11.17 3.675,-4.615 7.685,-6.722 13.483,-6.515 9.585,0.343 21.44,2.78 29.972,7.423 0.998,0.545 2.083,-0.645 1.298,-1.54 -4.15,-4.738 -8.145,-5.223 -13.648,-7.625 -5.235,-2.285 -16.087,-1.44 -21.687,-1.483 -4.765,-0.035 -9.603,5.46 -12.403,8.993 -2.77,3.497 -3.92,7.967 -3.812,12.362 0.025,1.083 1.475,1.803 2.245,0.903 0.147,-0.17 0.295,-0.34 0.442,-0.513 0.193,-0.225 0.168,-0.617 -0.022,-0.835"
         inkscape:connector-curvature="0"
         style="fill:#000000" />
      <path
         id="path957"
         d="m 474.855,208.998 c 38.733,-7.408 45.705,45.802 44.17,73.802 -1.2,21.875 -5.927,46.83 5.718,67.223 3.857,6.75 17.432,27.895 26.852,17.912 0.893,-0.947 -0.315,-2.23 -1.342,-1.472 -6.63,4.885 -14.98,-6.448 -18.263,-10.76 -4.8,-6.305 -8.1,-12.575 -9.662,-20.363 -4.568,-22.705 4.532,-46.032 2.54,-69.032 C 522.513,239.12 508.865,199.5 474.39,207 c -1.295,0.283 -0.832,2.248 0.465,1.998"
         inkscape:connector-curvature="0"
         style="fill:#000000" />
      <path
         id="path959"
         d="m 485.785,360.758 c 0.108,5.607 5.41,9.307 9.768,11.385 6.167,2.942 13.21,7.3 20.065,7.952 11.772,1.118 26.225,-2.787 35.707,-10.857 1.365,-1.163 -0.642,-2.998 -1.992,-1.903 -6.86,5.563 -15.773,6.533 -24.268,6.728 -5.175,0.117 -10.355,0.227 -15.455,-0.775 -5.342,-1.05 -21.845,-6.075 -22.237,-12.613 -0.055,-0.9 -1.603,-0.817 -1.588,0.083"
         inkscape:connector-curvature="0"
         style="fill:#000000" />
      <path
         id="path961"
         d="m 464.908,404.248 c -0.248,2.91 -1.468,5.622 -1.53,8.777 -0.05,2.445 0.305,6.37 1.672,8.528 4.785,7.537 13.283,13.44 22.57,11.765 0.925,-0.168 1.04,-1.65 0.095,-1.883 -7.757,-1.905 -16.86,-3.9 -20.265,-12.32 -0.975,-2.415 -1.445,-5.097 -1.95,-7.64 -0.537,-2.71 0.898,-4.767 0.685,-7.26 -0.06,-0.732 -1.215,-0.682 -1.277,0.033"
         inkscape:connector-curvature="0"
         style="fill:#000000" />
      <path
         id="path963"
         d="m 485.71,433.475 c 17.353,-0.042 32.898,-5.842 49.205,-11.24 1.79,-0.595 0.905,-3.397 -0.89,-2.795 -15.93,5.373 -31.95,11.265 -48.932,11.745 -1.08,0.03 -1.23,1.695 -0.125,1.693 l 0.742,0.597"
         inkscape:connector-curvature="0"
         style="fill:#000000" />
      <path
         id="path965"
         d="m 374.408,499.348 c 4.475,3.165 7.512,14.725 9.085,19.687 2.505,7.903 7.935,16.013 12.102,23.19 7.375,12.698 19.343,23.955 32.335,30.713 23.193,12.065 57.235,10.907 77.82,-5.728 20.518,-16.575 29.035,-40.625 31.64,-66.18 1.425,-13.952 1.06,-28.057 0.495,-42.045 -0.55,-13.59 -0.772,-27.337 -2.047,-40.875 -0.113,-1.2 -4.23,3.293 -4.323,4.388 -1.015,11.837 2.53,19.74 3.13,31.58 0.658,12.907 1.105,25.832 0.513,38.752 -1.17,25.68 -11.115,50.64 -30.52,68.603 -21.625,20.02 -55.455,21.51 -80.19,6.53 -13.948,-8.45 -24.923,-21.89 -31.553,-36.633 -3.075,-6.83 -5.43,-14.085 -7.18,-21.362 -0.92,-3.818 -1.93,-8.555 -5.365,-10.913 -3.192,-2.187 -13.965,-5.357 -10.827,-3.14 l 4.885,3.433"
         inkscape:connector-curvature="0"
         style="fill:#000000" />
      <path
         id="path967"
         d="m 535.73,417.573 c -3.692,-0.03 1.298,2.037 0.41,1.635 0.595,0.272 1.65,0.312 2.27,0.362 2.405,0.188 4.593,-0.172 6.878,-0.87 5.197,-1.587 9.95,-4.33 15.115,-6.01 17.222,-5.597 36.357,-9.49 49.052,6.328 10.47,13.05 11.798,31.73 13.393,47.675 1.987,19.89 -0.038,38.18 0.335,58.15 0.767,40.932 2.487,83.762 -0.568,124.607 -1.37,18.33 -2.095,36.843 -4.625,55.055 -2.402,17.305 -7.492,35.953 -19.32,49.283 -12.445,14.017 -29.862,18.597 -47.9,17.67 -18.437,-0.943 -36.71,-3.55 -54.84,-6.948 -16.27,-3.052 -32.415,-6.73 -48.682,-9.795 -7.333,-1.382 -15.605,-1.552 -22.665,-3.945 -6.755,-2.29 -6.265,-12.662 -5.66,-18.212 0.657,-6.05 2.665,-11.935 5.505,-17.295 3.812,-7.193 12.05,-15.963 20.125,-16.568 8.227,-0.625 14.587,0.54 22.795,1.165 10.655,0.818 21.292,1.783 31.962,2.38 11.683,0.653 23.143,1.983 34.248,-1.895 7.945,-2.775 16.502,6.46 17.397,-13.345 1.183,-26.25 2.77,-52.457 3.663,-78.72 0.925,-27.267 3.632,-54.407 4.535,-81.672 0.057,-1.83 -5.088,-1.873 -5.15,-0.058 -1.403,42.34 -2.243,84.785 -4.733,127.075 -0.625,10.563 -1.285,21.118 -1.742,31.69 -0.195,4.545 -0.178,5.23 -3.38,8.628 -5.198,5.507 -11.288,2.09 -18.473,3.59 -15.222,3.177 -32.567,0.902 -47.877,-0.338 -8.575,-0.692 -17.138,-1.415 -25.703,-2.232 -6.752,-0.638 -11.792,-0.35 -18.092,2.55 -8.835,4.072 -15.81,21.45 -17.793,30.17 -1.642,7.232 -2.867,21.525 5.508,25.562 5.72,2.758 12.717,2.715 18.902,3.793 8.553,1.49 17.063,3.22 25.565,4.967 16.36,3.365 37.06,8.993 53.593,11.435 16.532,2.438 30.952,3.398 47.59,0.733 13.875,-2.223 28.78,-10.01 37.585,-20.8 20.615,-25.265 16.945,-64.01 19.562,-94.565 2.718,-31.765 4.003,-63.513 4.028,-95.393 0.027,-32.182 0.355,-64.837 -2.563,-96.905 -1.867,-20.477 -4.607,-45.762 -23.6,-57.957 -9.575,-6.15 -17.295,-6.57 -27.705,-4.228 -5.777,1.3 -13.17,2.823 -18.55,5.3 -3.712,1.71 -16.657,10.42 -20.835,7.25 -0.45,-0.34 -1.24,-0.022 -1.235,0.575 0.003,0.275 0.005,0.55 0.008,0.825 0.002,0.39 0.255,0.845 0.707,0.843 0.275,-0.003 0.55,-0.005 0.825,-0.008 0.985,-0.007 1.135,-1.53 0.135,-1.537"
         inkscape:connector-curvature="0"
         style="fill:#000000" />
      <path
         id="path969"
         d="m 224.478,705.29 c -5.29,12.495 3.522,19.205 9.29,25.815 3.115,3.57 6.065,6.448 9.947,9.195 0.963,0.68 12.105,6.47 12.093,7.36 -0.023,1.728 2.647,1.678 2.675,-0.045 0.032,-1.967 -1.59,-2.867 -3.143,-3.765 -4.02,-2.33 -7.922,-4.415 -11.857,-7.007 -10.888,-7.158 -17.148,-18.813 -18.56,-31.47 -0.025,-0.213 -0.36,-0.313 -0.445,-0.083"
         inkscape:connector-curvature="0"
         style="fill:#000000" />
      <path
         id="path971"
         d="m 208.385,733.978 c 2.448,2.572 3.69,5.902 6.358,8.525 4.37,4.287 10.965,6.51 16.582,8.692 5.585,2.178 12.3,3.525 18.32,2.49 3.683,-0.635 7.905,-3.027 10.428,-5.235 0.942,-0.82 -2.763,-3.915 -3.785,-3.785 -1.508,0.2 -3.135,3.955 -4.24,4.938 -4.488,3.98 -15.22,0.897 -20.058,-0.83 -6.442,-2.305 -12.877,-4.86 -17.737,-9.805 -1.84,-1.87 -2.758,-4.56 -4.765,-6.215 -0.73,-0.603 -1.745,0.545 -1.103,1.225"
         inkscape:connector-curvature="0"
         style="fill:#000000" />
      <path
         id="path973"
         d="m 239.078,732.128 c -0.213,-0.128 -0.423,-0.26 -0.635,-0.393 -0.198,0.64 -0.398,1.275 -0.595,1.91 9.257,0.538 19.387,-3.96 24.175,-11.962 0.502,-0.84 -0.323,-2.193 -1.353,-1.788 -0.622,0.245 -1.185,0.38 -1.55,0.978 -1.315,2.142 -2.765,3.53 -4.837,4.98 -4.89,3.422 -10.775,5.072 -16.633,5.752 -1.475,0.17 -0.62,2.743 0.725,1.918 0.238,-0.145 0.475,-0.293 0.713,-0.435 0.317,-0.195 0.3,-0.77 -0.01,-0.96"
         inkscape:connector-curvature="0"
         style="fill:#000000" />
      <path
         id="path975"
         d="m 175.535,728.695 c 2.485,6.615 0.873,16.328 -1.17,23.013 -3.14,10.277 -2.795,21.482 -5.632,31.937 -2.445,9.005 -5.453,18.145 -10.29,26.168 -1.41,2.337 -4.858,4.39 -5.025,7.182 -0.17,2.838 2.985,3.413 5.025,4.433 4.907,2.452 11.335,0.215 15.912,-2.235 2.553,-1.368 3.77,-5.358 4.965,-7.793 2.988,-6.09 4.825,-12.8 6.558,-19.327 3.257,-12.28 5.347,-24.828 9.172,-36.948 1.66,-5.27 3.385,-10.497 4.903,-15.81 0.577,-2.017 1.695,-3.98 2.71,-5.802 1.455,-2.613 4.872,-0.33 5.937,1.935 0.42,0.892 1.98,0.395 1.665,-0.578 -1.025,-3.172 -5.387,-7.63 -8.557,-4.76 -2.035,1.845 -3.265,5.328 -4.18,7.838 -1.965,5.38 -3.423,11.04 -5.17,16.502 -4.07,12.72 -4.59,15.195 -8,28.073 -1.58,5.972 -5.805,23.89 -8.328,29.53 -2.582,5.767 -5.275,8.145 -11.867,8.62 -1.408,0.097 -11.353,-1.945 -8.17,-4.783 2.682,-2.387 4.61,-5.837 6.18,-9.012 4.107,-8.29 6.887,-17.168 9.182,-26.113 2.623,-10.22 5.213,-24.64 7.325,-34.962 1.34,-6.568 1.008,-11.62 -2.172,-17.518 -0.318,-0.592 -1.215,-0.24 -0.973,0.41"
         inkscape:connector-curvature="0"
         style="fill:#000000" />
      <path
         id="path977"
         d="m 157.598,740.798 c 0.845,0.425 1.645,1.562 2.392,2.165 1.643,1.312 3.268,2.655 4.893,3.992 2.692,2.218 5.755,5.533 9.167,6.5 1.21,0.343 2.628,-3.55 1.6,-4.242 -3.357,-2.268 -4.402,-2.018 -7.57,-4.548 -2.015,-1.605 -7.34,-4.74 -9.927,-5.39 -1.025,-0.26 -1.488,1.055 -0.555,1.523"
         inkscape:connector-curvature="0"
         style="fill:#000000" />
      <path
         id="path979"
         d="m 143.463,751.283 c 4.202,3.085 7.045,7.44 11.592,10.232 5.33,3.278 9.71,8.258 15.375,10.983 1.483,0.712 2.763,-1.445 1.285,-2.235 -5.58,-2.97 -6.875,-7.335 -12.342,-10.455 -4.585,-2.618 -10.53,-7.458 -15.28,-9.658 -0.685,-0.317 -1.22,0.703 -0.63,1.133"
         inkscape:connector-curvature="0"
         style="fill:#000000" />
      <path
         id="path981"
         d="m 250.838,730.765 c 10.052,5.118 23.18,6.093 34.307,6.498 11.275,0.41 23.54,1.217 34.75,-0.033 1.428,-0.162 1.95,-2.53 0.305,-2.715 -9.985,-1.12 -20.462,-0.08 -30.505,-0.005 -6.797,0.043 -13.477,-0.332 -20.215,-1.315 -6.177,-0.902 -9.285,-4.832 -15.465,-5.565 -0.8,-0.092 -3.822,2.808 -3.177,3.135"
         inkscape:connector-curvature="0"
         style="fill:#000000" />
      <path
         id="path983"
         d="m 293.7,678.808 c 5.468,-4.145 16.698,-2.618 22.353,0.122 7.78,3.773 14.002,11.913 17.675,19.495 3.442,7.11 5.535,19.283 -0.57,25.425 -3.635,3.653 -8.458,5.903 -12.298,9.323 -4.775,4.247 2.74,7.2 6.22,6.952 11.988,-0.86 22.91,-4.867 34.398,-8.282 11.832,-3.52 21.12,-8.803 28.002,-19.285 7.39,-11.255 10.098,-25.105 11.478,-38.258 2.417,-23.062 0.602,-47.052 -10.685,-67.657 -0.56,-1.023 -7.345,-7.245 -6.78,-6.215 10.825,19.765 16.62,51.937 14.645,73.667 -1.305,14.34 -4.943,29.213 -13.748,40.888 -8.612,11.417 -23.78,14.81 -37.02,17.792 -5.722,1.285 -11.515,2.295 -17.33,3.053 -1.167,0.157 -9.787,1.542 -7.432,-0.903 3.232,-3.355 7.785,-5.547 11.36,-8.555 3.792,-3.187 4.6,-6.822 5.107,-11.64 1.313,-12.447 -2.952,-25.28 -12.372,-32.91 -5.578,-4.522 -13.535,-8.912 -20.823,-8.707 -4.625,0.132 -9.405,1.337 -13.277,4.422 -0.85,0.678 0.24,1.92 1.097,1.273"
         inkscape:connector-curvature="0"
         style="fill:#000000" />
      <path
         id="path985"
         d="m 396.435,697.543 c 0.2,-0.275 0.398,-0.553 0.598,-0.825 -0.663,-0.203 -1.323,-0.408 -1.988,-0.608 0.333,3.38 9.765,3.16 12.108,3.448 8.802,1.08 17.782,0.5 26.622,0.475 1.778,-0.005 1.713,-2.765 -0.062,-2.755 -6.015,0.04 -12.028,0.22 -18.043,0.127 -3.935,-0.057 -7.842,-0.385 -11.742,-0.89 -0.148,-0.017 -6.883,-1.297 -6.76,-0.625 -0.168,-0.927 -1.49,-1.082 -1.958,-0.315 -0.172,0.283 -0.347,0.565 -0.52,0.853 -0.7,1.147 0.968,2.187 1.745,1.115"
         inkscape:connector-curvature="0"
         style="fill:#000000" />
      <path
         id="path987"
         d="m 354.523,733.353 c 4.037,2.07 11.275,3.642 15.717,4.502 5.715,1.103 12.933,3.778 18.55,5.298 11.538,3.12 18.465,4.477 30.16,6.992 1.875,0.405 2.543,-2.535 0.668,-2.897 -11.253,-2.138 -22.235,-5.755 -33.29,-8.71 -5.07,-1.353 -10.165,-2.648 -15.318,-3.653 -5.227,-1.025 -10.805,-0.952 -15.7,-3.11 -0.917,-0.405 -1.682,1.118 -0.787,1.578"
         inkscape:connector-curvature="0"
         style="fill:#000000" />
      <path
         id="path989"
         d="m 330.595,515.315 c 6.253,15.785 9.955,29.338 18.428,44.033 6.22,10.792 20.275,26.982 28.09,36.655 3.785,4.682 5.617,4.335 8.562,9.59 0.245,0.432 1.578,2.397 2.058,2.397 -0.035,0 -0.035,-1.89 0.455,-1.17 0.322,0.468 0.675,0.923 1.025,1.37 1.032,1.33 2.17,2.565 3.342,3.765 3.945,4.03 11.608,10.29 16.68,12.7 13.448,6.403 25.65,1.74 39.643,-1.697 7.797,-1.915 23.135,-2.403 31.152,-3.22 10.008,-1.023 12.35,-0.965 22.31,-0.153 15.675,1.278 33.193,3.87 48.86,2.043 1.728,-0.2 0.248,-4.683 -1.49,-4.473 -11.527,1.395 -23.222,1.158 -34.797,0.64 -15.375,-0.682 -31.075,-3.98 -46.428,-1.772 -12.577,1.807 -24.537,6.515 -37.297,7.162 -13.71,0.705 -22.315,-1.772 -32.175,-11.4 -1.515,-1.48 -5.26,-4.287 -6.435,-6.055 -0.295,-0.45 -4.898,-5.47 -4.165,-4.165 -0.368,-0.657 -3.675,-3.985 -4.163,-4.542 -7.807,-8.915 -11.635,-11.938 -18.597,-21.538 -13.575,-18.71 -23.635,-40.037 -33.915,-60.675 -0.358,-0.72 -1.44,-0.247 -1.143,0.505"
         inkscape:connector-curvature="0"
         style="fill:#000000" />
      <path
         id="path991"
         d="m 300.75,523.973 c 0.008,-0.278 0.015,-0.553 0.023,-0.83 0.02,-0.608 -0.42,-0.97 -0.975,-1.06 -12.423,-2.038 -25.218,-1.235 -37.558,1.142 -13.895,2.68 -26.377,8.125 -39.312,13.7 -6.373,2.745 -12.828,5.358 -19.008,8.523 -7.08,3.622 -13.662,8.027 -20.787,11.582 -4.695,2.343 -15.89,6.728 -14.058,13.413 5.803,21.172 10.083,43.167 22.478,61.405 10.697,15.747 28.555,27.947 42.45,40.635 1.265,1.157 7.952,4.14 6.765,2.902 -11.625,-12.117 -29.585,-26.987 -39.94,-40.44 -13.65,-17.74 -21.173,-40.362 -27.495,-61.617 -0.51,-1.72 -1,-3.448 -1.46,-5.18 -0.083,-0.303 4.852,-3.575 5.507,-4.035 3.34,-2.358 7.058,-4.055 10.693,-5.898 5.392,-2.727 13.687,-4.895 19.002,-7.757 6.52,-3.518 11.383,-6.148 18.17,-9.088 11.413,-4.942 21.208,-11.775 33.398,-14.527 6.935,-1.568 14.632,-2.905 21.742,-3.255 1.823,-0.09 18.37,0.117 18.375,0.292 0.038,1.268 1.953,1.388 1.99,0.093"
         inkscape:connector-curvature="0"
         style="fill:#000000" />
      <path
         id="path993"
         d="m 392.96,514.185 c 0.113,-0.12 0.225,-0.242 0.338,-0.365 1.115,-1.212 -1.223,-2.335 -1.485,-0.73 -0.783,4.81 3.185,6.838 7.16,8.253 4.87,1.732 10.595,5.872 15.185,8.295 6.265,3.302 11.207,4.53 17.767,7.215 4.475,1.83 11.355,5.112 16.295,3.725 1.015,-0.283 1.08,-1.703 0.068,-2.05 -4.505,-1.538 -9.375,-1.933 -13.95,-3.608 -6.115,-2.242 -12.053,-5.087 -17.865,-8.012 -3.57,-1.798 -7.098,-3.708 -10.73,-5.375 -3.97,-1.823 -12.728,-2.268 -12.143,-8.328 -0.522,0.18 -1.045,0.358 -1.567,0.535 0.155,0.163 0.307,0.325 0.46,0.488 0.13,0.137 0.357,0.08 0.467,-0.043"
         inkscape:connector-curvature="0"
         style="fill:#000000" />
      <path
         id="path995"
         d="m 480.808,539.745 c 0.16,0.205 0.32,0.41 0.477,0.618 0.06,0.187 0.28,0.325 0.468,0.347 9.602,1.07 21.47,-10.082 28.185,-15.995 3.867,-3.407 6.87,-6.447 10.702,-9.895 2.35,-2.115 10.12,-12.897 12.62,-14.565 1.12,-0.75 0.448,-2.39 -0.875,-2.155 -2.072,0.37 -3.945,2.66 -5.425,4 -4.007,3.633 -14.902,14.923 -18.772,18.698 -2.748,2.68 -5.51,5.44 -8.503,7.852 -4.377,3.53 -12.252,12.745 -18.495,10.215 -0.577,-0.235 -0.93,0.6 -0.382,0.88"
         inkscape:connector-curvature="0"
         style="fill:#000000" />
      <path
         id="path997"
         d="m 626.988,575.545 c 6.015,-5.485 16.03,-17.74 23.13,-21.862 8.005,-4.653 13.392,-7.435 21.98,-10.848 17.527,-6.965 35.765,-6.65 54.38,-8.662 18.17,-1.963 35.442,-3.433 53.287,0.057 8.498,1.66 16.51,3.01 24.743,5.88 7.602,2.655 13.76,8.515 19.725,13.7 1.36,1.18 3.197,-0.745 1.925,-2.025 -5.553,-5.585 -11.188,-10.552 -18.37,-13.93 -7.768,-3.652 -16.72,-5.397 -25.163,-6.48 -8.872,-1.137 -17.332,-3.762 -26.345,-4.112 -10.04,-0.39 -20.187,-0.163 -30.185,0.835 -19.812,1.982 -38.55,5.122 -57.092,12.71 -8.113,3.32 -16.098,7.382 -23.773,11.607 -7.265,3.998 -12.805,10.458 -18.77,16.073 -1.047,0.985 0.473,2.58 1.533,1.612 l -1.005,5.445"
         inkscape:connector-curvature="0"
         style="fill:#000000" />
      <path
         id="path999"
         d="m 818.563,556.16 c 0,-0.272 -0.003,-0.55 -0.003,-0.825 -0.002,-0.44 -0.265,-0.8 -0.72,-0.85 -7.205,-0.815 -14.13,2.763 -20.032,6.523 -8.06,5.13 -15.473,11.157 -23.368,16.525 -21.57,14.662 -37.937,35.84 -57.157,53.237 -12.01,10.868 -21.88,23.265 -32.408,35.49 -4.95,5.75 -9.927,11.503 -14.59,17.488 -1.225,1.577 -5.85,6.192 -5.062,8.6 0.31,0.95 1.87,0.672 1.552,-0.295 -0.747,-2.295 6.44,-9.38 7.708,-10.948 4.34,-5.365 8.857,-10.595 13.365,-15.822 10.802,-12.53 21.202,-24.88 33.477,-36.085 17.218,-15.718 31.875,-33.81 50.595,-47.915 6.908,-5.205 13.953,-10.353 20.993,-15.388 3.65,-2.61 7.472,-4.932 11.495,-6.93 0.845,-0.42 12.582,-4.612 12.577,-2.937 -0.002,1.015 1.58,1.152 1.578,0.132"
         inkscape:connector-curvature="0"
         style="fill:#000000" />
      <path
         id="path1001"
         d="m 824.698,554.34 c -3.665,1.835 -4.728,6.505 -5.895,10.095 -2.545,7.843 -5.49,15.118 -6.988,23.3 -3.252,17.778 -8.085,35.53 -15.912,51.903 -3.648,7.625 -8.083,15.217 -12.09,22.687 -3.488,6.5 -8.455,11.818 -11.698,18.533 -2.31,4.78 -9.237,10.555 -12.36,14.452 -5.485,6.85 -12.24,11.465 -19.33,16.48 -15.327,10.835 -28.26,19.815 -45.327,27.618 -11.905,5.442 -24.275,9.97 -36.908,13.407 -2.822,0.768 -5.665,1.455 -8.53,2.045 -0.78,0.163 -1.597,-0.067 -0.74,0.215 -1.745,-0.58 -3.507,-1.107 -5.267,-1.64 -12.865,-3.862 -25.558,-8.207 -38.973,-6.66 -1.705,0.195 -1.722,2.788 0.053,2.715 3.437,-0.152 10.822,0.978 14.23,1.608 7.942,1.462 14.562,3.132 22.335,5.302 5.762,1.605 8.375,4.688 14.007,3.408 27.503,-6.245 51.455,-21.515 75.303,-36.29 10.552,-6.538 21.027,-13.545 30.215,-21.938 2.82,-2.572 9.35,-11.01 11.607,-14.19 6.97,-9.822 9.633,-15.702 15.528,-24.4 4.69,-6.922 7.015,-11.975 11.087,-19.325 4.105,-7.412 8.57,-22.705 11.098,-30.747 3.51,-11.188 5.14,-19.913 7.192,-31.423 0.835,-4.685 2.025,-9.98 3.785,-14.387 1.52,-3.795 0.66,-8.925 4.578,-10.908 1.215,-0.617 0.217,-2.467 -1,-1.86"
         inkscape:connector-curvature="0"
         style="fill:#000000" />
      <path
         id="path1003"
         d="m 610.428,418.105 c 40.005,-6.375 76.382,-0.175 108.47,18.663 32.382,19.005 63.565,54.902 56.55,94.935 -0.358,2.035 2.792,2.685 3.135,0.65 6.812,-40.543 -22.575,-75.03 -54.513,-95.638 -17.982,-11.602 -38.182,-19.942 -59.22,-23.94 -17.89,-3.397 -38.142,-3.712 -55.01,4.05 -0.837,0.385 -0.252,1.57 0.588,1.28"
         inkscape:connector-curvature="0"
         style="fill:#000000" />
      <path
         id="path1005"
         d="m 593.18,406.655 c 0.045,-1.277 6.103,-2.94 7.398,-3.477 4.99,-2.073 9.88,-4.32 15,-6.068 10.77,-3.67 20.04,-7.56 49.57,-3.015 21.56,3.318 27.425,-0.265 45.58,5.043 19.825,5.797 39.88,16.26 56.032,29.11 3.575,2.845 6.953,5.965 10.235,9.137 3.795,3.665 11.298,10.13 11.298,15.923 0,1.775 2.66,1.687 2.735,-0.06 0.205,-4.733 -3.25,-8.808 -6.19,-12.16 -4.18,-4.77 -8.818,-9.1 -13.63,-13.22 -14.698,-12.59 -33.048,-22.275 -51.16,-28.908 -20.303,-7.435 -44.308,-11.22 -65.88,-10.925 -10.968,0.15 -20.328,0.745 -31.043,3.03 -11.252,2.4 -20.685,9.185 -31.335,13.303 -0.292,0.115 -0.54,0.517 -0.527,0.827 0.015,0.45 0.03,0.903 0.045,1.353 0.042,1.185 1.83,1.332 1.872,0.107"
         inkscape:connector-curvature="0"
         style="fill:#000000" />
      <path
         id="path1007"
         d="m 733.365,407.228 c 6.148,0.772 11.295,3.107 17.538,1.33 0.87,-0.248 6.802,-3.3 7.257,-2.723 0.908,1.155 2.67,0.938 3.943,0.823 -0.173,-0.695 -0.34,-1.388 -0.508,-2.08 -0.065,0.035 -0.13,0.072 -0.197,0.11 -0.923,0.515 -0.568,1.857 0.447,1.945 0.085,0.007 0.173,0.017 0.258,0.025 1.205,0.105 1.397,-1.44 0.61,-2.053 -0.355,-0.277 -0.698,-0.497 -1.088,-0.747 -1.28,-0.833 -0.795,0.18 -1.147,-0.13 -1.12,-0.995 -3.86,-0.748 -5.14,-0.33 -3.353,1.085 -6.318,0.957 -9.94,1.295 -4.1,0.38 -7.805,0.462 -11.93,0.625 -1.23,0.047 -1.338,1.755 -0.103,1.91"
         inkscape:connector-curvature="0"
         style="fill:#000000" />
      <path
         id="path1009"
         d="m 815.063,544.013 c 6.435,-5.833 14.472,-14.128 20.82,-20.068 5.947,-5.56 8.762,-11.98 12.875,-18.93 2.945,-4.972 4.325,-6.517 6.812,-11.735 2.725,-5.72 0.658,-14.757 0.268,-21.112 -0.805,-13.153 -2.663,-25.425 -5.268,-38.285 -0.877,-4.333 -1.455,-8.553 -2.862,-12.803 -1.01,-3.05 -1.005,-7.012 -2.085,-9.982 -1.268,-3.488 -2.383,-5.643 -2.773,-8.143 -2.845,-18.2 -10.81,-35.667 -19.137,-51.917 -18.94,-36.953 -44.575,-70.845 -69.393,-104.02 -9.425,-12.6 -18.99,-25.195 -29.327,-37.075 -1.08,-1.243 -2.923,0.43 -2.15,1.757 3.725,6.418 5.17,13.33 1.622,19.978 -4.085,7.657 -12.145,12.455 -20.132,15.055 -12.403,4.037 -24.493,-1.925 -29.81,-13.613 -0.655,-1.447 -2.848,-0.335 -2.463,1.1 4.623,17.21 12.648,33.81 21.48,49.19 9.66,16.82 14.02,29.755 22.713,47.083 12.052,24.042 26.545,53.702 43.28,75.04 1.43,1.82 4.352,-0.29 2.91,-2.11 -16.483,-20.825 -26.725,-45.36 -38.615,-68.875 -8.575,-16.965 -17.278,-33.913 -26.63,-50.463 -9.068,-16.045 -17.71,-32.74 -22.53,-50.642 -0.82,0.365 -1.643,0.732 -2.463,1.097 2.008,4.415 5.465,8.64 9.365,11.49 8.37,6.118 21.125,6.555 30.518,3.065 8.167,-3.035 11.975,-10.095 15.762,-18.005 3.248,-6.787 0.96,-14.655 -2.63,-20.87 -0.717,0.585 -1.435,1.17 -2.152,1.758 27.81,32.102 49.497,66.965 73.12,102.157 15.495,23.088 25.41,38.548 33.587,65.275 1.695,5.543 6.02,12.358 8.555,19.963 0.943,2.827 2.64,12.1 3.798,14.977 4.022,9.975 5.857,20.008 8.15,30.465 1.807,8.245 1.98,16.695 2.882,25.078 0.965,8.975 -0.155,15.335 -4.185,23.222 -3.117,6.105 -6.645,12.01 -10.202,17.865 -2.085,3.428 -4.033,7.128 -6.83,10.035 -6.705,6.965 -14.433,12.875 -21.47,19.485 -0.74,0.695 0.262,1.895 1.022,1.208 l 3.568,2.305"
         inkscape:connector-curvature="0"
         style="fill:#000000" />
      <path
         id="path1011"
         d="m 670.445,175.275 c -5.385,-0.53 -11.247,4.55 -16.907,3.658 -11.8,-1.863 -19.29,-15.733 -21.2,-26.388 -1.378,-7.705 -0.465,-16.07 -0.693,-23.86 -0.342,-11.85 -0.402,-25.67 -3.362,-36.7 -6.62,-24.682 -12.475,-49.967 -12.7,-75.667 -0.038,-4.68 0.295,-14.08 7.105,-12.918 7.547,1.29 11.877,11.135 16.947,16.055 2.335,2.265 5.303,3.553 8.3,4.665 4.973,1.848 8.423,4.243 11.843,8.3 1.99,2.358 3.73,4.21 6.272,6.005 4.49,3.168 6.438,6.85 7.85,12.073 2.713,10.01 2.785,21.102 3.52,31.387 0.798,11.175 1.588,22.355 2.533,33.518 0.942,11.13 1.862,22.22 3.225,33.315 0.592,4.835 1.195,9.697 2.202,14.467 1.503,7.113 7.338,14.365 11.228,20.378 4.74,7.325 9.895,14.13 15.757,20.582 3.95,4.345 8.688,7.82 12.528,12.383 1.18,1.4 3.097,-0.68 1.942,-2.063 -3.625,-4.34 -7.55,-8.085 -11.83,-11.747 -5.952,-5.095 -10.502,-12.468 -14.8,-18.955 -4.072,-6.148 -10.01,-13.643 -11.89,-20.82 -1.215,-4.643 -1.612,-9.59 -2.205,-14.343 -3.577,-28.787 -3.892,-57.822 -7.057,-86.64 -0.713,-6.487 -1.278,-14.662 -4.943,-20.297 -1.595,-2.455 -3.512,-4.065 -5.9,-5.738 C 664.79,33.53 662.435,30.34 659.623,27.32 654.29,21.59 646.148,21.215 640.58,15.823 635.575,10.978 632.743,4.838 626.415,1.385 617.458,-3.507 610.818,5.55 610.193,13.12 c -1.25,15.128 4.85,30.98 7.347,45.825 2.003,11.918 3.62,22.605 7.095,34.178 1.408,4.677 3.04,11.89 3.505,16.775 0.498,5.262 0.848,10.537 1.1,15.815 0.328,6.747 -0.507,15.95 -0.352,22.702 0.272,11.98 6.42,22.658 16.727,29.368 3.905,2.54 8.625,3.267 13.19,3.035 3.53,-0.183 7.313,-2.145 10.81,-1.845 0.8,0.07 3.168,-1.325 2.365,-1.405 l -1.535,-2.293"
         inkscape:connector-curvature="0"
         style="fill:#000000" />
      <path
         id="path1013"
         d="m 648.108,178.683 c 1.462,0.135 8.967,10.93 9.787,12.877 1.448,3.433 2.105,7.383 3.3,10.93 1.263,3.74 3.125,7.26 4.375,10.99 1.835,5.468 3.825,10.885 5.913,16.258 1.46,3.755 2.975,9.962 6.292,12.55 0.853,0.665 1.828,-0.373 1.678,-1.23 -0.79,-4.548 -4.025,-9.398 -5.723,-13.753 -1.895,-4.867 -3.647,-9.792 -5.33,-14.737 -2.412,-7.085 -5.475,-13.805 -7.56,-21.043 -1.27,-4.415 -5.087,-7.745 -6.525,-12.02 -0.182,-0.542 -0.572,-0.78 -1.14,-0.73 -0.435,0.04 -0.872,0.083 -1.31,0.12 -0.96,0.088 -0.805,1.56 0.095,1.643 l -3.852,-1.855"
         inkscape:connector-curvature="0"
         style="fill:#000000" />
      <path
         id="path1015"
         d="m 722.413,180.385 c 10.402,2.798 19.81,2.24 25.757,-7.762 4.088,-6.875 6.583,-14.735 9.015,-22.308 2.925,-9.107 7,-21.552 9.795,-30.692 2.63,-8.59 4.48,-13.698 7.33,-22.223 2.218,-6.637 5.34,-12.872 8.13,-19.275 2.005,-4.612 6.665,-8.91 7.413,-13.99 0.537,-3.66 3.44,-8.36 3.17,-12.042 -0.843,-11.405 -23.803,-5.225 -29.468,-4.12 -6.485,1.267 -8.127,5.36 -14.747,4.642 -2.928,-0.317 -8.99,-2.942 -11.903,-3.067 -1.935,-0.083 -3.257,0.935 -4.895,1.94 -5.07,3.11 -9.247,8.342 -12.252,13.377 -1.1,1.845 -1.975,3.883 -2.65,5.923 -0.288,0.865 -1.605,4.267 -0.775,3.642 -1.693,1.275 -1.235,7.41 -1.748,9.425 -1.832,7.22 -4.64,14.19 -6.755,21.328 -3.63,12.247 -3.197,24.61 -4.022,37.252 -0.685,10.525 -1.57,21.098 1.915,31.23 0.625,1.823 3.217,0.933 2.807,-0.9 -1.83,-8.217 -1.88,-16.515 -1.47,-24.87 0.453,-9.205 0.555,-18.472 1.118,-27.662 0.87,-14.135 8.545,-26.658 10.475,-40.495 0.105,-0.765 0.11,-1.555 0.112,-2.325 0.003,-1.428 0.585,-1.308 -0.592,-0.42 0.622,-0.47 0.78,-1.203 0.97,-1.92 1.527,-5.755 4.125,-10.57 8.057,-15.09 2.705,-3.108 5.603,-4.635 8.795,-6.768 1.793,-1.197 4.623,2.235 6.408,2.723 5.677,1.56 10.785,-0.728 16.272,-1.923 7.865,-1.717 2.978,-4.14 23.893,-4.812 2.132,-0.068 6.107,1.255 5.795,4.025 -0.15,1.32 -0.778,2.61 -1.223,3.852 -0.657,1.838 -0.88,3.765 -1.387,5.65 -1.473,5.463 -4.525,10.345 -6.795,15.568 -2.363,5.43 -5.018,10.712 -6.955,16.32 -2.93,8.48 -9.01,17.892 -11.458,26.52 -2.612,9.2 -2.782,17.3 -5.665,26.432 -2.735,8.658 -5.565,17.333 -9.98,25.305 -4.472,8.08 -14.17,8.163 -21.97,6.16 -0.892,-0.23 -1.42,1.108 -0.517,1.35"
         inkscape:connector-curvature="0"
         style="fill:#000000" />
      <path
         id="path1017"
         d="m 705.748,133.445 c -0.353,2.668 0.852,-7.252 -0.095,-4.735 -0.223,0.593 -4.3,16.908 -4.513,18.063 -0.85,4.635 -2.08,8.98 -4.117,13.25 -2.185,4.57 -6.22,10.405 -5.74,15.68 0.172,1.932 2.987,1.797 2.997,-0.138 0.005,-0.775 -0.17,-1.05 -0.517,-1.835 -0.32,-0.722 -1.598,-0.79 -1.94,-0.045 -0.348,0.768 -0.545,1.198 -0.54,2.018 0.997,-0.045 1.997,-0.093 2.997,-0.138 -0.56,-5.537 4.798,-13.065 6.84,-18.272 1.493,-3.795 1.593,-8.023 3.205,-11.753 1.735,-4.007 2.778,-7.752 2.66,-12.12 -0.02,-0.725 -1.15,-0.647 -1.237,0.025"
         inkscape:connector-curvature="0"
         style="fill:#000000" />
      <path
         id="path1019"
         d="m 740.353,178.558 c -3.39,-0.26 -4.823,3.267 -5.848,6.065 -3.405,9.285 -6.222,18.987 -8.027,28.732 -0.393,2.11 2.81,2.733 3.255,0.643 1.792,-8.363 3.98,-16.298 6.615,-24.445 0.582,-1.8 1.845,-8.523 3.965,-8.69 1.467,-0.118 1.54,-2.19 0.04,-2.305"
         inkscape:connector-curvature="0"
         style="fill:#000000" />
      <path
         id="path1021"
         d="m 662.698,204.403 c 0.93,4.855 -1.323,11.955 -2.798,16.54 -1.075,3.332 -4.232,5.305 -5.162,8.42 -1.19,3.987 -0.95,7.922 0.447,11.577 2.205,5.758 5.638,11.473 10.14,15.843 3.06,2.977 5.735,4.502 9.505,6.34 2.243,1.09 8.555,4.5 11.09,4.435 1.038,-0.028 0.545,-3.7 -0.487,-4.255 -6.04,-3.25 -13.103,-4.348 -18.263,-9.34 -4.92,-4.758 -7.642,-12.46 -9.65,-18.885 -1.447,-4.63 1.37,-6.11 3.338,-9.535 1.8,-3.138 2.517,-7.015 3.195,-10.518 0.722,-3.722 2.19,-2.407 1.092,-6.06 -0.245,-0.815 -2.617,-5.452 -2.447,-4.562"
         inkscape:connector-curvature="0"
         style="fill:#000000" />
      <path
         id="path1023"
         d="m 658.858,224.878 c -1.825,-0.088 -3.648,-0.13 -5.473,-0.205 -0.677,-0.03 -1.225,0.575 -1.235,1.225 -0.102,6.367 -4.66,14.225 -6.967,20.062 -1.973,4.993 -3.23,5.163 -4.645,10.333 -2,7.31 -6.79,24.005 -8.328,31.422 -1.622,7.815 -4.622,18.728 -6.437,26.5 -3.548,15.23 -3.86,22.753 -6.943,38.085 -1.507,7.5 -2.717,15.058 -3.642,22.653 -0.788,6.497 -4.358,16.485 -3.043,22.927 0.64,-0.145 3.518,-2.9 4.155,-3.045 -0.022,-0.217 -0.047,-0.432 -0.072,-0.65 -0.118,-1.065 -1.685,-0.84 -1.795,0.13 -0.025,0.23 -0.05,0.46 -0.078,0.69 -0.125,1.098 1.678,1.44 1.923,0.355 1.592,-7.032 1.117,-14.805 2,-21.992 0.932,-7.603 2.325,-15.145 3.845,-22.65 3.08,-15.265 6.73,-30.463 10.212,-45.643 1.625,-7.09 3.273,-14.172 4.778,-21.287 1.72,-8.135 4.58,-16.013 6.772,-24.043 1.845,-6.747 3.98,-13.012 6.52,-19.56 1.318,-3.392 2.48,-6.835 3.565,-10.31 1.268,-4.072 0.34,-2.732 4.805,-2.947 1.298,-0.063 1.423,-1.985 0.083,-2.05"
         inkscape:connector-curvature="0"
         style="fill:#000000" />
      <path
         id="path1025"
         d="m 706.985,308.505 c -1.61,6.44 -1.352,13.548 -2.235,20.15 -1.15,8.628 -2.805,17.193 -4.322,25.76 -3.248,18.29 -5.695,30.665 -7.078,38.295 -0.307,1.7 1.99,2.273 2.573,0.67 4.435,-12.187 5.242,-19.13 7.457,-31.842 1.495,-8.565 6.773,-30.755 7.95,-39.373 0.9,-6.577 -1.327,-7.005 -2.827,-13.532 -0.158,-0.7 -1.315,-0.938 -1.518,-0.128"
         inkscape:connector-curvature="0"
         style="fill:#000000" />
      <path
         id="path1027"
         d="m 711.86,397.56 c -7.235,-0.627 -21.935,7.43 -21.557,15.805 0.03,0.663 0.455,1.065 1.095,1.148 6.132,0.807 12.695,4.132 18.567,6.062 10.728,3.525 19.093,9.18 28.245,15.628 5.538,3.9 11.523,7.097 17.02,11.06 1.938,1.395 4.088,1.165 6.285,0.615 5.84,-1.453 12.963,-7.665 14.7,-13.48 0.588,-1.96 -2.517,-2.595 -3.095,-0.655 -1.27,4.247 -5.93,7.535 -9.492,9.735 -3.183,1.967 -5.19,2.105 -8.48,-0.12 -3.115,-2.105 -8.988,-9.383 -12.19,-11.348 -10.83,-6.647 -13.403,-10.18 -25.665,-14.26 -6.745,-2.245 -17.355,-3.64 -24.295,-5.215 -0.33,-0.075 -0.663,-0.137 -0.993,-0.187 0.583,0.097 -0.087,0.667 1.193,-1.975 1.04,-2.145 3.16,-3.795 4.98,-5.255 3.462,-2.78 8.965,-6.1 13.565,-5.785 1.145,0.08 1.257,-1.673 0.117,-1.773"
         inkscape:connector-curvature="0"
         style="fill:#000000" />
      <path
         id="path1029"
         d="m 406.17,211.42 c -0.075,-0.01 -0.24,-0.257 -0.585,-0.35 -0.58,-0.155 -1.325,-0.125 -1.77,0.33 -0.812,0.83 -1.457,1.963 -2.142,2.908 -1.285,1.777 -1.348,3.48 -0.643,5.517 0.213,0.62 1.143,0.505 1.348,-0.047 0.395,-1.065 0.657,-2.198 1.15,-3.22 0.615,-1.28 1.625,-2.385 2.365,-3.593 -0.375,0.22 -0.75,0.443 -1.125,0.663 0.605,-0.028 1.025,-0.38 1.527,-0.433 1.048,-0.107 0.838,-1.677 -0.125,-1.775"
         inkscape:connector-curvature="0"
         style="fill:#000000" />
      <path
         id="path1031"
         d="m 428.01,232.153 c 0.183,0.04 0.365,0.085 0.548,0.127 0.52,0.318 1.09,0.09 1.332,-0.442 0.398,-0.87 26.105,6.335 29.56,7.737 2.15,0.873 8.315,3.363 6.925,5.655 -1.657,2.735 -1.925,6.268 -3.102,9.21 -0.71,1.78 1.917,3.195 2.665,1.398 1.235,-2.968 1.502,-7.618 3.885,-9.85 0.412,-0.388 0.48,-1.088 0.31,-1.595 -1.825,-5.458 -8.77,-7.713 -13.688,-9.338 -3.877,-1.282 -7.97,-1.665 -11.925,-2.63 -5.095,-1.245 -10.155,-2.902 -15.437,-2.31 -0.308,0.035 -0.575,0.318 -0.675,0.598 0.175,-0.49 0.39,-0.38 -0.715,-0.19 -1.078,0.185 -0.725,1.717 0.317,1.63"
         inkscape:connector-curvature="0"
         style="fill:#000000" />
      <path
         id="path1033"
         d="m 318.428,290.25 c -8.85,13.275 0.112,31.533 8.28,42.145 9.397,12.213 29.105,21.933 50.645,18.885 0.712,-0.1 -6.018,-0.942 -6.705,-1.017 -14.455,-1.578 -27.58,-5.208 -37.58,-16.26 -10.233,-11.313 -19.87,-27.893 -13.595,-43.16 0.255,-0.628 -0.66,-1.173 -1.045,-0.593"
         inkscape:connector-curvature="0"
         style="fill:#000000" />
      <path
         id="path1035"
         d="m 346.045,300.325 c -9.177,5.17 -7.24,16.02 -3.617,22.998 6.427,12.387 19.222,29.322 35.007,27.94 1.095,-0.095 0.8,-1.645 -0.13,-1.795 -15.677,-2.518 -25.047,-13.35 -32.69,-26.575 -2.272,-3.928 -1.137,-0.938 -2.01,-5.373 -1.925,-9.787 2.845,-13.43 5.353,-16.047 1.107,-1.16 -1.913,-1.148 -1.913,-1.148"
         inkscape:connector-curvature="0"
         style="fill:#000000" />
      <path
         id="path1037"
         d="m 285.755,304.293 c -12.075,2.862 -14.752,22.222 -15.19,32.382 -0.467,10.878 5.385,33.238 18.753,31.605 1.165,-0.145 0.162,-0.595 -0.858,-1.142 -11.71,-6.285 -14.065,-22.44 -13.617,-32.853 0.37,-8.522 1.577,-25.115 11.485,-27.757 1.435,-0.383 0.875,-2.578 -0.573,-2.235"
         inkscape:connector-curvature="0"
         style="fill:#000000" />
      <path
         id="path1039"
         d="m 268.468,295.978 c -2.183,-4.015 -9.555,3.192 -11.393,5.085 -6.862,7.065 -12.082,18.085 -12.897,27.545 -0.905,10.51 4.475,20.795 12.292,27.675 7.855,6.915 22.498,12.417 32.563,12.282 1.525,-0.02 -0.795,-2.152 -2.285,-2.285 -8.218,-0.722 -17.11,-6.557 -24.393,-11.22 -7.41,-4.745 -11.972,-12.167 -12.95,-20.855 -0.86,-7.627 0.993,-15.99 4.163,-22.905 1.622,-3.537 3.91,-6.82 6.405,-9.78 0.332,-0.392 7.07,-6.125 7.832,-5.182 0.258,0.32 0.88,0.035 0.663,-0.36"
         inkscape:connector-curvature="0"
         style="fill:#000000" />
      <path
         id="path1041"
         d="m 184.3,582.038 c 0.733,8.387 9.978,15.985 15.395,21.655 11.01,11.517 23.735,21.33 35.503,32.045 9.342,8.512 19.145,16.555 29.845,23.315 8.3,5.247 20.44,12.23 30.685,10.682 0.807,-0.122 0.68,-1.212 -0.043,-1.355 -4.675,-0.935 -9.225,-1.387 -13.787,-2.957 -6.175,-2.128 -11.913,-5.435 -17.418,-8.9 -10.455,-6.58 -19.947,-14.695 -29.072,-22.98 -10.298,-9.348 -21.27,-17.96 -31.28,-27.618 -3.56,-3.437 -6.968,-7.09 -10.255,-10.785 -3.255,-3.662 -7.663,-8.257 -8.15,-13.35 -0.088,-0.927 -1.505,-0.672 -1.423,0.248"
         inkscape:connector-curvature="0"
         style="fill:#000000" />
      <path
         id="path1043"
         d="m 625.405,709.715 c 3.588,0.463 6.835,-0.235 10.518,1.06 4.875,1.718 13.707,2.88 16.767,7.625 0.62,0.963 1.895,0.578 2.053,-0.492 0.752,-5.138 3.89,-10.068 5.51,-14.945 0.215,-0.64 -0.525,-1.013 -0.97,-0.563 -3.615,3.648 -6.073,10.405 -6.728,15.445 0.63,-0.24 1.26,-0.48 1.89,-0.722 -6.227,-7.223 -20.357,-9.41 -29.03,-8.298 -0.5,0.065 -0.517,0.825 -0.01,0.89"
         inkscape:connector-curvature="0"
         style="fill:#000000" />
      <path
         id="path1045"
         d="m 263.788,276.518 c 0.087,0 0.08,-0.138 -0.008,-0.138 -0.09,0 -0.082,0.138 0.008,0.138"
         inkscape:connector-curvature="0"
         style="fill:#000000" />
      <path
         id="path1047"
         d="m 264.45,273.735 c -22.952,6.583 -43.235,26.51 -44.877,50.708 -0.69,10.165 3.972,19.762 10.032,28.137 5.92,8.18 19.948,16.118 30.02,12.433 0.548,-0.2 0.433,-1.15 -0.172,-1.158 -11.128,-0.16 -21.1,-3.902 -28.315,-12.7 -6.61,-8.055 -6.928,-19.632 -6.238,-29.502 1.57,-22.44 19.44,-39.7 39.975,-46.01 1.19,-0.365 0.795,-2.258 -0.425,-1.908"
         inkscape:connector-curvature="0"
         style="fill:#000000" />
      <path
         id="path1049"
         d="m 250.223,343.478 c -3.303,2.037 -3.573,7.942 -2.413,11.197 1.888,5.285 6.045,9.013 11.475,9.915 0.923,0.153 2.913,-0.54 2.13,-0.875 -3.982,-1.707 -8.342,-3.495 -10.717,-7.395 -1.335,-2.192 -2.16,-4.007 -1.578,-6.877 0.208,-1.023 0.773,-3.825 1.818,-4.49 0.88,-0.558 0.192,-2.035 -0.715,-1.475"
         inkscape:connector-curvature="0"
         style="fill:#000000" />
      <path
         id="path1051"
         d="m 191.37,766.965 c 7.545,-2.557 13.915,-10.047 16.838,-16.997 1.715,-4.078 2.462,-11.343 1.597,-15.933 -0.255,-1.352 -2.425,-1.05 -2.38,0.303 0.138,4.132 -1.532,8.897 -2.75,12.77 -2.395,7.617 -6.045,15.467 -13.997,18.412 -0.978,0.368 -0.265,1.773 0.692,1.445"
         inkscape:connector-curvature="0"
         style="fill:#000000" />
      <path
         id="path1053"
         d="m 629.998,391.6 c -5.815,1.175 -10.365,7.66 -13.25,12.303 -1.388,2.232 -3.685,2.112 -6.24,2.44 -3.138,0.4 -8.695,1.452 -11.723,2.217 -0.467,0.12 3.77,1.875 3.76,2.36 -0.005,0.155 -0.007,0.313 -0.012,0.468 -0.04,1.415 2.22,1.467 2.187,0.062 0.013,0.57 2.725,-0.767 3.32,-1.01 2.835,-1.155 4.908,-1.695 7.86,-1.287 0.313,0.042 0.733,-0.168 0.88,-0.45 2.833,-5.478 6.71,-14.098 13.49,-15.603 0.955,-0.212 0.695,-1.695 -0.272,-1.5"
         inkscape:connector-curvature="0"
         style="fill:#000000" />
      <path
         id="path1055"
         d="m 353.795,435.19 c -0.28,4.415 0.63,8.62 0.748,13.113 0.157,6 1.825,5.04 4,5.852 5.33,1.993 16.32,0.008 19.535,-5.217 0.855,-1.388 -1.218,-2.525 -2.138,-1.255 -0.975,1.342 -4.562,2.88 -6.15,3.005 -2.985,0.24 -5.667,1.677 -8.76,1.672 -4.102,-0.002 -4.137,-6.342 -4.8,-8.96 -0.7,-2.76 -0.945,-5.697 -2.272,-8.262 -0.045,-0.088 -0.158,-0.025 -0.163,0.052"
         inkscape:connector-curvature="0"
         style="fill:#000000" />
      <path
         id="path1057"
         d="m 299.978,405.108 c 0,0 -3.398,-3.643 -1.213,-9.95 2.183,-6.31 5.823,-9.95 13.59,-8.253 7.765,1.7 15.71,6.805 20.593,11.035 5.407,4.685 5.045,8.653 2.462,10.565 -4.277,3.168 -11.892,5.098 -17.96,4.125 -6.065,-0.97 -12.862,-3.88 -14.075,-4.852 -1.212,-0.973 -3.397,-2.67 -3.397,-2.67"
         inkscape:connector-curvature="0"
         style="fill:#ffffff" />
      <path
         id="path1059"
         d="m 326.053,395.333 c 4.23,6.692 4.145,14.127 -0.178,16.605 -4.327,2.477 -11.267,-0.938 -15.495,-7.633 -4.23,-6.687 -4.145,-14.122 0.18,-16.602 4.325,-2.478 11.265,0.937 15.493,7.63 z"
         style="fill:url(#Gradient_3)"
         inkscape:connector-curvature="0" />
      <path
         id="path1061"
         d="m 298.895,391.838 c 0,0 -2.735,0.82 -4.375,0 -1.642,-0.82 -3.83,-2.46 -3.555,-1.368 0.273,1.095 1.368,2.735 3.555,3.555 2.188,0.82 3.008,1.093 3.008,1.093 l -0.82,2.462 c 0,0 -2.735,0.82 -4.103,-0.275 -1.367,-1.092 -2.187,-1.365 -2.187,-1.365 0,0 0.82,2.733 3.827,3.553 3.008,0.822 3.828,0.275 3.828,0.275 l 0.547,-3.828 c 0,0 0.82,-4.65 0.275,-4.102"
         inkscape:connector-curvature="0"
         style="fill:#000000" />
      <path
         id="path1063"
         d="m 297.268,388.703 c 0.03,-2.348 4.02,-5.188 5.585,-5.925 5.44,-2.563 13.687,-0.558 18.995,1.757 0.255,0.11 0.435,-0.257 0.19,-0.387 -5.373,-2.853 -13.813,-4.7 -19.638,-2.425 -2.692,1.052 -6.062,3.72 -6.022,6.97 0.007,0.505 0.885,0.515 0.89,0.01"
         inkscape:connector-curvature="0"
         style="fill:#000000" />
      <path
         id="path1065"
         d="m 377.643,401.595 c 0,0 -5.125,-8.232 -3.668,-12.845 1.455,-4.612 4.853,-10.92 16.745,-10.435 11.893,0.485 19.9,4.368 24.755,7.523 4.853,3.155 4.61,5.825 4.61,5.825 0,0 -2.427,7.52 -8.252,11.162 -5.823,3.64 -14.075,6.795 -20.143,5.34 -6.067,-1.457 -11.885,-5.13 -11.885,-5.13 l -2.162,-1.44"
         inkscape:connector-curvature="0"
         style="fill:#ffffff" />
      <path
         id="path1067"
         d="m 404.69,390.69 c 2.755,7.69 0.968,15.513 -3.985,17.473 -4.957,1.965 -11.207,-2.675 -13.962,-10.36 -2.755,-7.683 -0.965,-15.508 3.987,-17.47 4.958,-1.965 11.205,2.675 13.96,10.357 z"
         style="fill:url(#Gradient_4)"
         inkscape:connector-curvature="0" />
      <path
         id="path1069"
         d="m 375.558,373.718 c 0,0 0.272,1.912 2.735,3.555 2.46,1.64 5.467,1.64 5.467,1.64 l -4.92,2.187 c 0,0 -1.915,-1.64 -3.01,-3.282 -1.092,-1.64 -1.365,-3.008 -1.365,-4.1 0,-1.095 0.82,-0.82 1.093,0"
         inkscape:connector-curvature="0"
         style="fill:#000000" />
      <path
         id="path1071"
         d="m 373.918,386.84 c 0,0 -2.733,0.003 -4.375,-1.092 -1.64,-1.093 -2.188,-2.733 -2.733,-2.46 -0.547,0.272 -0.275,2.185 2.46,4.372 2.735,2.188 4.375,2.463 4.375,2.463 l 0.273,-3.283"
         inkscape:connector-curvature="0"
         style="fill:#000000" />
      <path
         id="path1073"
         d="m 379.268,375.31 c 9.995,-8.85 26.365,1.193 35.805,6.348 0.332,0.18 0.565,-0.288 0.335,-0.523 -8.263,-8.47 -26.393,-14.325 -36.453,-6.275 -0.277,0.223 0.053,0.678 0.313,0.45"
         inkscape:connector-curvature="0"
         style="fill:#000000" />
      <path
         id="path1075"
         d="m 403.305,455.31 c 0.553,0.753 1.845,0.985 2.66,1.373 1.508,0.72 2.795,-1.468 1.295,-2.273 -1.2,-0.647 -2.995,-1.37 -3.982,0.03 -0.193,0.273 -0.165,0.608 0.027,0.87"
         inkscape:connector-curvature="0"
         style="fill:#000000" />
      <path
         id="path1077"
         d="m 299.015,401.373 c 0.065,-9.175 3.443,-10.963 12.233,-11.245 5.332,-0.17 9.44,1.835 14.372,3.632 3.083,1.128 7.913,6.198 11.048,7.463 1.122,0.452 -1.47,-4.903 -1.945,-5.788 -4.883,-9.082 -19.595,-11.692 -28.863,-9.68 -6.64,1.443 -11.537,9.348 -7.985,15.785 0.253,0.458 1.135,0.49 1.14,-0.167"
         inkscape:connector-curvature="0"
         style="fill:#000000" />
      <path
         id="path1079"
         d="m 376.38,395.615 c -4.547,-13.422 6.455,-14.155 17.218,-13.232 8.972,0.77 19.462,4.165 26.112,10.017 1.415,1.245 1.61,-1.795 0.803,-3.312 -2.343,-4.418 -8.415,-6.853 -12.763,-8.8 -5.865,-2.625 -12.32,-3.793 -18.72,-3.698 -11.037,0.168 -19.772,9.095 -14.342,20.32 0.46,0.948 2.12,0.398 1.77,-0.635 l -0.078,-0.66"
         inkscape:connector-curvature="0"
         style="fill:#000000" />
      <path
         id="path1081"
         d="m 322.388,401.898 c 0.877,2.025 0.515,4.132 -0.81,4.707 -1.325,0.575 -3.11,-0.6 -3.99,-2.625 -0.878,-2.025 -0.515,-4.132 0.807,-4.705 1.328,-0.577 3.113,0.598 3.993,2.623"
         inkscape:connector-curvature="0"
         style="fill:#2c0800" />
      <path
         id="path1083"
         d="m 323.878,406.088 c 0,1.62 -1.355,2.93 -3.025,2.93 -1.67,0 -3.025,-1.31 -3.025,-2.93 0,-1.62 1.355,-2.933 3.025,-2.933 1.67,0 3.025,1.313 3.025,2.933"
         inkscape:connector-curvature="0"
         style="fill:#ffffff" />
      <path
         id="path1085"
         d="m 398.38,395.865 c 0.775,2.048 0.103,4.2 -1.497,4.805 -1.6,0.605 -3.528,-0.565 -4.3,-2.615 -0.775,-2.047 -0.105,-4.2 1.497,-4.805 1.6,-0.605 3.528,0.565 4.3,2.615"
         inkscape:connector-curvature="0"
         style="fill:#2c0800" />
      <path
         id="path1087"
         d="m 400.673,401.703 c 0,2.117 -1.625,3.835 -3.63,3.835 -2.005,0 -3.633,-1.718 -3.633,-3.835 0,-2.118 1.628,-3.833 3.633,-3.833 2.005,0 3.63,1.715 3.63,3.833"
         inkscape:connector-curvature="0"
         style="fill:#ffffff" />
      <path
         id="path1089"
         d="m 405.875,683.513 c 3.423,-0.038 7.04,-1.893 10.26,-2.893 7.78,-2.412 15.78,-3.975 23.87,-4.882 31.12,-3.493 62.35,4.282 90.97,16.032 1.148,0.473 1.728,-1.337 0.605,-1.817 -28.16,-11.99 -58.727,-19.223 -89.445,-16.193 -8.675,0.858 -17.215,2.708 -25.547,5.243 -3.36,1.02 -7.345,3.272 -10.845,3.525 -0.65,0.045 -0.493,0.992 0.132,0.985"
         inkscape:connector-curvature="0"
         style="fill:#000000" />
    </g>
  </g>
</svg>
