<?xml version="1.0" encoding="UTF-8" standalone="no"?>
<!-- Created with Inkscape (http://www.inkscape.org/) -->

<svg
   xmlns:dc="http://purl.org/dc/elements/1.1/"
   xmlns:cc="http://creativecommons.org/ns#"
   xmlns:rdf="http://www.w3.org/1999/02/22-rdf-syntax-ns#"
   xmlns:svg="http://www.w3.org/2000/svg"
   xmlns="http://www.w3.org/2000/svg"
   xmlns:sodipodi="http://sodipodi.sourceforge.net/DTD/sodipodi-0.dtd"
   xmlns:inkscape="http://www.inkscape.org/namespaces/inkscape"
   id="svg2"
   version="1.1"
   inkscape:version="0.91 r13725"
   xml:space="preserve"
   width="405.03577"
   height="810"
   viewBox="0 0 405.03577 810"
   sodipodi:docname="publicdomainq-man-smartphone.svg"
   inkscape:export-filename="/media/sdb1/_GRAFIKA/Publicdomainq/lidi/publicdomainq-man-smartphone.png"
   inkscape:export-xdpi="88.930695"
   inkscape:export-ydpi="88.930695"><title
     id="title7598">Man using a smartphone</title><metadata
     id="metadata8"><rdf:RDF><cc:Work
         rdf:about=""><dc:format>image/svg+xml</dc:format><dc:type
           rdf:resource="http://purl.org/dc/dcmitype/StillImage" /><dc:title>Man using a smartphone</dc:title><cc:license
           rdf:resource="http://creativecommons.org/publicdomain/zero/1.0/" /><dc:subject><rdf:Bag><rdf:li>man</rdf:li><rdf:li>male</rdf:li><rdf:li>work</rdf:li><rdf:li>office</rdf:li><rdf:li>telephone</rdf:li><rdf:li>smartphone</rdf:li><rdf:li>photo</rdf:li><rdf:li>selfie</rdf:li><rdf:li>phone</rdf:li><rdf:li>call</rdf:li><rdf:li>suit</rdf:li><rdf:li>publicdomainq.net</rdf:li></rdf:Bag></dc:subject><dc:description>This image was adapted from a picture posted to publicdomainq.net. All of the images on these sites are in the public domain i.e. CC0. This site is only in Japanese but can be easily navigated with Google Translate.</dc:description></cc:Work><cc:License
         rdf:about="http://creativecommons.org/publicdomain/zero/1.0/"><cc:permits
           rdf:resource="http://creativecommons.org/ns#Reproduction" /><cc:permits
           rdf:resource="http://creativecommons.org/ns#Distribution" /><cc:permits
           rdf:resource="http://creativecommons.org/ns#DerivativeWorks" /></cc:License></rdf:RDF></metadata><defs
     id="defs6" /><sodipodi:namedview
     pagecolor="#ffffff"
     bordercolor="#666666"
     borderopacity="1"
     objecttolerance="10"
     gridtolerance="10"
     guidetolerance="10"
     inkscape:pageopacity="0"
     inkscape:pageshadow="2"
     inkscape:window-width="1920"
     inkscape:window-height="1125"
     id="namedview4"
     showgrid="false"
     inkscape:zoom="0.82809606"
     inkscape:cx="157.05061"
     inkscape:cy="497.44062"
     inkscape:window-x="0"
     inkscape:window-y="0"
     inkscape:window-maximized="1"
     inkscape:current-layer="svg2"
     fit-margin-top="5"
     fit-margin-left="5"
     fit-margin-bottom="5"
     fit-margin-right="5" /><g
     id="g12"
     transform="matrix(0.4938176,0,0,-0.4938176,5.0011108,804.96925)"><path
       d="m 784.961,4.17969 c 0,0 12.898,294.71131 5.891,375.34031 -8.997,103.339 -32.715,113.671 -67.715,137.5 -59.836,40.73 -222.676,91.531 -222.676,91.531 l -212.5,0 c 0,0 -162.844,-50.801 -222.6797,-91.531 -35,-23.829 -47,-34.161 -55.99224,-137.5 C 2.27344,298.891 21.7852,71.0586 21.7852,71.0586 c 0,0 16.6406,-46.8594 37.5703,-55.8086 C 80.2852,6.28906 143.477,4.17969 143.477,4.17969 l 641.484,0"
       style="fill:#595f9d;fill-opacity:1;fill-rule:nonzero;stroke:none"
       id="path14"
       inkscape:connector-curvature="0" /><path
       d="m 254.297,101.051 c -38.977,0 -77.356,2.328 -114.988,6.84 0,-1.832 -24.172,-94.3324 -23.34,-102.10194 15.386,-1.21093 27.508,-1.60937 27.508,-1.60937 l 641.484,0 c 0,0 6.555,149.80031 7.773,265.01931 C 643.34,163.73 456.746,101.051 254.297,101.051"
       style="fill:#494e7f;fill-opacity:1;fill-rule:nonzero;stroke:none"
       id="path16"
       inkscape:connector-curvature="0" /><path
       d="m 110.344,8.55859 c 15.625,3.75001 51.25,41.87111 80,80.62111 28.75,38.7503 106.597,180.5193 111.043,196.4613 7.082,25.418 -14.168,61.039 -14.168,61.039 l -17.922,21.871 -48.328,42.82 c -6.66,5.84 -16.321,18.899 -24.375,5.938 C 164.719,366.059 110.547,276.891 85.1289,241.48 72.0703,223.289 39.9219,187.051 32.4219,169.551 L 110.344,8.55859"
       style="fill:#595f9d;fill-opacity:1;fill-rule:nonzero;stroke:none"
       id="path18"
       inkscape:connector-curvature="0" /><path
       d="m 32.4219,169.551 c 7.5,17.5 39.6484,53.738 52.707,71.929 25.4181,35.411 71.4731,114.989 103.3481,166.239 8.054,12.961 23.957,10.742 30.617,4.902 l 12.539,-6.48 c -6.66,5.839 -17.832,-1.75 -25.891,-14.711 C 173.867,340.18 121.035,252.219 95.6133,216.809 83.3594,199.738 59.7188,178.969 37.6367,142.301 32.207,132.371 18.8867,94.3789 18.8867,94.3789 l -5.4179,45.0001 c 0,0 15.039,23.781 18.9531,30.172"
       style="fill:#8d97d4;fill-opacity:1;fill-rule:nonzero;stroke:none"
       id="path20"
       inkscape:connector-curvature="0" /><path
       d="m 8.47656,338.559 c 0,0 -17.92969,84.961 66.66014,146.671 58.4763,42.649 229.7653,94.071 229.7653,94.071 l 196.231,-1.352 c 0,0 171.086,-54.39 237.961,-96.269 13.941,-8.731 31.875,-16.871 43.125,-43.121 -8.75,45.621 -36.684,63.203 -59.082,78.461 -59.836,40.73 -222.676,91.531 -222.676,91.531 l -212.5,0 c 0,0 -163.559,-49.77 -222.6797,-91.531 C -1.53125,469.809 9.28906,382.461 9.28906,382.461 l -0.8125,-43.902"
       style="fill:#8d97d4;fill-opacity:1;fill-rule:nonzero;stroke:none"
       id="path22"
       inkscape:connector-curvature="0" /><path
       d="m 437.336,676.215 c 0,0 -0.449,-31.961 9.168,-47.91 l -104.602,0 c 9.614,15.949 9.161,47.91 9.161,47.91 l 86.273,0"
       style="fill:#fcd0b4;fill-opacity:1;fill-rule:nonzero;stroke:none"
       id="path24"
       inkscape:connector-curvature="0" /><path
       d="m 367.219,4.17969 c 0,0 -65.422,367.44931 -74.59,470.78131 -7.277,81.961 -1.66,130.828 -1.66,130.828 l -3.008,2.762 c 0,0 26.285,31.512 29.684,33.914 11.796,8.332 28.839,6.25 28.839,6.25 l 92.852,4.109 c 0,0 17.629,-2.027 28.644,-7.859 3.68,-1.945 32.481,-36.414 32.481,-36.414 l -3.012,-2.762 c 0,0 5.617,-48.867 -1.656,-130.828 C 486.621,371.629 426.57,4.17969 426.57,4.17969 l -59.351,0"
       style="fill:#ffffff;fill-opacity:1;fill-rule:nonzero;stroke:none"
       id="path26"
       inkscape:connector-curvature="0" /><path
       d="m 351.973,654.547 -17.676,-11.25 c 0,0 -12.5,-10 -10,-24.168 4.043,-22.891 50.848,-57.5 50.848,-57.5 l 19.164,-110 -0.2,0 19.161,110 c 0,0 46.808,34.609 50.851,57.5 2.5,14.168 -10,24.168 -10,24.168 l -17.676,11.25 -84.472,0"
       style="fill:#fcd0b4;fill-opacity:1;fill-rule:nonzero;stroke:none"
       id="path28"
       inkscape:connector-curvature="0" /><path
       d="m 351.973,673.305 84.472,0 0,-18.758 c 0,0 -25.793,-36.559 -91.726,-24.055 l 7.254,42.813"
       style="fill:#e59686;fill-opacity:1;fill-rule:nonzero;stroke:none"
       id="path30"
       inkscape:connector-curvature="0" /><path
       d="m 382.727,498.129 -9.985,58.5 -52.304,-67.231 c 0,0 26.21,22.551 62.289,8.731"
       style="fill:#d4e2e7;fill-opacity:1;fill-rule:nonzero;stroke:none"
       id="path32"
       inkscape:connector-curvature="0" /><path
       d="m 405.691,498.129 9.985,58.5 52.304,-67.231 c 0,0 -26.21,22.551 -62.289,8.731"
       style="fill:#d4e2e7;fill-opacity:1;fill-rule:nonzero;stroke:none"
       id="path34"
       inkscape:connector-curvature="0" /><path
       d="m 351.063,676.215 c 0,0 0.453,-31.961 -9.161,-47.91"
       style="fill:none;stroke:#231f20;stroke-width:14;stroke-linecap:round;stroke-linejoin:round;stroke-miterlimit:10;stroke-dasharray:none;stroke-opacity:1"
       id="path36"
       inkscape:connector-curvature="0" /><path
       d="m 437.336,676.215 c 0,0 -0.449,-31.961 9.168,-47.91"
       style="fill:none;stroke:#231f20;stroke-width:14;stroke-linecap:round;stroke-linejoin:round;stroke-miterlimit:10;stroke-dasharray:none;stroke-opacity:1"
       id="path38"
       inkscape:connector-curvature="0" /><path
       d="m 290.969,605.789 c 0,0 -5.617,-48.867 1.66,-130.828 9.168,-103.332 74.59,-467.03131 74.59,-467.03131"
       style="fill:none;stroke:#231f20;stroke-width:12;stroke-linecap:round;stroke-linejoin:round;stroke-miterlimit:10;stroke-dasharray:none;stroke-opacity:1"
       id="path40"
       inkscape:connector-curvature="0" /><path
       d="M 263.059,208.582 341.902,21.0586"
       style="fill:none;stroke:#231f20;stroke-width:12;stroke-linecap:round;stroke-linejoin:round;stroke-miterlimit:10;stroke-dasharray:none;stroke-opacity:1"
       id="path42"
       inkscape:connector-curvature="0" /><path
       d="M 236.063,589.32 175.73,481.172 247.395,454.781"
       style="fill:none;stroke:#231f20;stroke-width:12;stroke-linecap:round;stroke-linejoin:round;stroke-miterlimit:10;stroke-dasharray:none;stroke-opacity:1"
       id="path44"
       inkscape:connector-curvature="0" /><path
       d="m 346.484,648.715 c 0,0 -17.043,2.082 -28.839,-6.25 -3.399,-2.402 -29.684,-33.914 -29.684,-33.914 0,0 -160.883,-53.852 -222.6797,-91.531 C 49.7188,507.309 18.4688,487.309 12.6367,436.891 0.976563,286.059 8.46875,111.059 25.3438,57.3086 42.2188,3.55859 94.7188,4.80859 110.344,8.55859"
       style="fill:none;stroke:#231f20;stroke-width:14;stroke-linecap:round;stroke-linejoin:round;stroke-miterlimit:10;stroke-dasharray:none;stroke-opacity:1"
       id="path46"
       inkscape:connector-curvature="0" /><path
       d="m 289.297,547.461 c 0,0 7.5,-55 20.832,-72.5 l 58.34,81.668"
       style="fill:none;stroke:#231f20;stroke-width:12;stroke-linecap:round;stroke-linejoin:round;stroke-miterlimit:10;stroke-dasharray:none;stroke-opacity:1"
       id="path48"
       inkscape:connector-curvature="0" /><path
       d="m 497.449,605.789 c 0,0 5.617,-48.867 -1.656,-130.828 C 486.621,371.629 425.969,7.92969 425.969,7.92969"
       style="fill:none;stroke:#231f20;stroke-width:12;stroke-linecap:round;stroke-linejoin:round;stroke-miterlimit:10;stroke-dasharray:none;stroke-opacity:1"
       id="path50"
       inkscape:connector-curvature="0" /><path
       d="M 552.355,589.32 612.688,481.172 541.023,454.781 607.449,397.461 446.504,21.0586"
       style="fill:none;stroke:#231f20;stroke-width:12;stroke-linecap:round;stroke-linejoin:round;stroke-miterlimit:10;stroke-dasharray:none;stroke-opacity:1"
       id="path52"
       inkscape:connector-curvature="0" /><path
       d="m 439.336,652.824 c 0,0 17.629,-2.027 28.644,-7.859 3.68,-1.945 32.481,-36.414 32.481,-36.414 0,0 162.84,-50.801 222.676,-91.531 35,-23.829 58.718,-34.161 67.715,-137.5 7.007,-80.629 -5.891,-371.59031 -5.891,-371.59031"
       style="fill:none;stroke:#231f20;stroke-width:14;stroke-linecap:round;stroke-linejoin:round;stroke-miterlimit:10;stroke-dasharray:none;stroke-opacity:1"
       id="path54"
       inkscape:connector-curvature="0" /><path
       d="m 454.121,643.297 c 0,0 12.5,-10 10,-24.168 -4.043,-22.891 -50.851,-57.5 -50.851,-57.5 l -19.161,-110 0.2,0 -19.164,110 c 0,0 -46.805,34.609 -50.848,57.5 -2.5,14.168 10,24.168 10,24.168"
       style="fill:none;stroke:#231f20;stroke-width:12;stroke-linecap:round;stroke-linejoin:round;stroke-miterlimit:10;stroke-dasharray:none;stroke-opacity:1"
       id="path56"
       inkscape:connector-curvature="0" /><path
       d="m 499.121,547.461 c 0,0 -7.5,-55 -20.828,-72.5 l -58.344,81.668"
       style="fill:none;stroke:#231f20;stroke-width:12;stroke-linecap:round;stroke-linejoin:round;stroke-miterlimit:10;stroke-dasharray:none;stroke-opacity:1"
       id="path58"
       inkscape:connector-curvature="0" /><path
       d="M 730.781,382.461 662.18,7.92969"
       style="fill:none;stroke:#231f20;stroke-width:14;stroke-linecap:round;stroke-linejoin:round;stroke-miterlimit:10;stroke-dasharray:none;stroke-opacity:1"
       id="path60"
       inkscape:connector-curvature="0" /><path
       d="m 730.969,1094.46 c 36.25,193.75 6.148,287.88 -40.102,354.13 -48.418,69.36 -121.25,81.25 -121.25,81.25 -26.25,85 -197.5,113.75 -321.25,43.75 -96.336,-54.5 -117.5,-100.42 -117.5,-100.42 C -14.0313,1368.62 57.3828,1094.52 57.3828,1094.52 l 1.086,-31.31 671.2502,1.25 1.25,30"
       style="fill:#5c3d33;fill-opacity:1;fill-rule:nonzero;stroke:none"
       id="path62"
       inkscape:connector-curvature="0" /><path
       d="m 145.918,1434.68 c 0,0 21.16,45.92 117.5,100.42 123.75,70 295,41.25 321.25,-43.75 0,0 72.832,-11.88 121.25,-81.25 9.031,-12.94 17.434,-26.95 24.852,-42.55 -10.04,32.24 -24.012,58.29 -39.903,81.04 -48.418,69.36 -121.25,81.25 -121.25,81.25 -26.25,85 -197.5,113.75 -321.25,43.75 -96.336,-54.5 -117.5,-100.42 -117.5,-100.42 C -14.0313,1368.62 57.3828,1094.52 57.3828,1094.52 l 1.086,-31.31 12.246,0.02 c -9.9921,43.82 -55.8125,276.92 75.2032,371.45"
       style="fill:#bea193;fill-opacity:1;fill-rule:nonzero;stroke:none"
       id="path64"
       inkscape:connector-curvature="0" /><path
       d="m 100.684,1079.01 c 0,0 -61.5824,49.37 -84.7152,-28.06 C -10.6055,961.996 76.0742,859.457 131.074,853.207"
       style="fill:#fcd0b4;fill-opacity:1;fill-rule:nonzero;stroke:none"
       id="path66"
       inkscape:connector-curvature="0" /><path
       d="m 100.684,1079.01 c 0,0 -61.5824,49.37 -84.7152,-28.06 C -10.6055,961.996 76.0742,859.457 131.074,853.207"
       style="fill:none;stroke:#231f20;stroke-width:14;stroke-linecap:round;stroke-linejoin:round;stroke-miterlimit:10;stroke-dasharray:none;stroke-opacity:1"
       id="path68"
       inkscape:connector-curvature="0" /><path
       d="m 49.8828,966.508 c 12.6563,-28.789 36.6602,-46.094 53.5942,-38.653 16.953,7.461 20.41,36.836 7.734,65.645 -12.6563,28.79 -36.6602,46.09 -53.5938,38.63 -16.9531,-7.44 -20.3906,-36.814 -7.7344,-65.622"
       style="fill:#e59686;fill-opacity:1;fill-rule:nonzero;stroke:none"
       id="path70"
       inkscape:connector-curvature="0" /><path
       d="m 48.8867,1048.38 c 0,0 32.7149,14.38 58.0473,-41.44"
       style="fill:none;stroke:#231f20;stroke-width:14;stroke-linecap:round;stroke-linejoin:round;stroke-miterlimit:10;stroke-dasharray:none;stroke-opacity:1"
       id="path72"
       inkscape:connector-curvature="0" /><path
       d="m 683.75,1079.01 c 0,0 61.582,49.37 84.719,-28.06 26.57,-88.954 -60.11,-191.493 -115.11,-197.743"
       style="fill:#fcd0b4;fill-opacity:1;fill-rule:nonzero;stroke:none"
       id="path74"
       inkscape:connector-curvature="0" /><path
       d="m 683.75,1079.01 c 0,0 61.582,49.37 84.719,-28.06 26.57,-88.954 -60.11,-191.493 -115.11,-197.743"
       style="fill:none;stroke:#231f20;stroke-width:14;stroke-linecap:round;stroke-linejoin:round;stroke-miterlimit:10;stroke-dasharray:none;stroke-opacity:1"
       id="path76"
       inkscape:connector-curvature="0" /><path
       d="m 734.551,966.508 c -12.656,-28.789 -36.66,-46.094 -53.594,-38.653 -16.953,7.461 -20.41,36.836 -7.734,65.645 12.656,28.79 36.66,46.09 53.593,38.63 16.954,-7.44 20.391,-36.814 7.735,-65.622"
       style="fill:#e59686;fill-opacity:1;fill-rule:nonzero;stroke:none"
       id="path78"
       inkscape:connector-curvature="0" /><path
       d="m 735.547,1048.38 c 0,0 -32.715,14.38 -58.047,-41.44"
       style="fill:none;stroke:#231f20;stroke-width:14;stroke-linecap:round;stroke-linejoin:round;stroke-miterlimit:10;stroke-dasharray:none;stroke-opacity:1"
       id="path80"
       inkscape:connector-curvature="0" /><path
       d="m 695.027,1119.88 c -2.644,-67.49 -15.164,-212.239 -55.269,-303.763 -39.262,-89.59 -126.289,-129.98 -217.539,-153.406 -29.582,-6.184 -57.5,0 -57.5,0 -91.25,23.426 -184.817,67.098 -217.539,153.406 -35.442,93.446 -52.6292,236.273 -55.2737,303.763 17.4417,70.58 47.6137,127.19 72.3637,165.07 l 10.039,0.35 c 28.086,1.68 55.371,9.78 80.242,20.7 l 7.258,-9.87 c 117.5,-5 227.91,63.33 264.16,112.08 0,0 14.597,-121.24 135.008,-184.58 l 6.601,0.01 c 10.547,-26.62 20.43,-56.83 27.442,-89.26 l 0.007,-14.5"
       style="fill:#fcd0b4;fill-opacity:1;fill-rule:nonzero;stroke:none"
       id="path82"
       inkscape:connector-curvature="0" /><path
       d="m 223.613,1519.51 c 0,0 80.821,-53.34 179.629,-56.6 0,0 36.043,-11.94 -36.047,-15.27 -72.097,-3.36 -148.14,4.66 -193.855,26.81 l 50.273,45.06"
       style="fill:#bea193;fill-opacity:1;fill-rule:nonzero;stroke:none"
       id="path84"
       inkscape:connector-curvature="0" /><path
       d="m 204.719,1338.23 c 0,0 -79.574,-83.77 -112.8127,-218.35 2.6445,-67.49 19.8317,-210.317 55.2737,-303.763 32.722,-86.308 157.675,-153.406 246.289,-153.406 83.75,0 207.027,63.816 246.289,153.406 40.105,91.524 52.625,236.273 55.269,303.763"
       style="fill:none;stroke:#231f20;stroke-width:14;stroke-linecap:round;stroke-linejoin:round;stroke-miterlimit:10;stroke-dasharray:none;stroke-opacity:1"
       id="path86"
       inkscape:connector-curvature="0" /><path
       d="m 370.129,1043.01 c 0,0 6.914,-26.27 2.305,-53.338"
       style="fill:none;stroke:#231f20;stroke-width:12;stroke-linecap:round;stroke-linejoin:round;stroke-miterlimit:10;stroke-dasharray:none;stroke-opacity:1"
       id="path88"
       inkscape:connector-curvature="0" /><path
       d="m 384.434,1004.63 c 0,0 -27.903,-34.88 -28.606,-47.439 -0.691,-12.539 22.942,-33.476 22.942,-33.476"
       style="fill:none;stroke:#231f20;stroke-width:12;stroke-linecap:round;stroke-linejoin:round;stroke-miterlimit:10;stroke-dasharray:none;stroke-opacity:1"
       id="path90"
       inkscape:connector-curvature="0" /><path
       d="m 225.227,979.555 c 0,-14.746 -23.567,-26.7 -52.629,-26.7 -29.063,0 -52.649,11.954 -52.649,26.7 0,14.746 23.586,26.675 52.649,26.675 29.062,0 52.629,-11.929 52.629,-26.675"
       style="fill:#f68499;fill-opacity:1;fill-rule:nonzero;stroke:none"
       id="path92"
       inkscape:connector-curvature="0" /><path
       d="m 560.051,979.555 c 0,-14.746 23.562,-26.7 52.625,-26.7 29.062,0 52.644,11.954 52.644,26.7 0,14.746 -23.582,26.675 -52.644,26.675 -29.063,0 -52.625,-11.929 -52.625,-26.675"
       style="fill:#f68499;fill-opacity:1;fill-rule:nonzero;stroke:none"
       id="path94"
       inkscape:connector-curvature="0" /><path
       d="m 324.871,1069.98 c 0,-43.8 -27.969,-79.292 -62.469,-79.292 -34.531,0 -62.48,35.492 -62.48,79.292 0,43.83 27.949,79.35 62.48,79.35 34.5,0 62.469,-35.52 62.469,-79.35"
       style="fill:#ffffff;fill-opacity:1;fill-rule:nonzero;stroke:none"
       id="path96"
       inkscape:connector-curvature="0" /><path
       d="m 462.063,1069.98 c 0,-43.8 27.964,-79.292 62.48,-79.292 34.52,0 62.477,35.492 62.477,79.292 0,43.83 -27.957,79.35 -62.477,79.35 -34.516,0 -62.48,-35.52 -62.48,-79.35"
       style="fill:#ffffff;fill-opacity:1;fill-rule:nonzero;stroke:none"
       id="path98"
       inkscape:connector-curvature="0" /><path
       d="m 198.594,1084.79 c 0,0 6.64,48.41 51.855,61.85 52.879,15.74 66.438,-37.66 66.438,-37.66 0,0 -27.539,20.49 -60.356,12.12 -30.945,-7.88 -57.937,-36.31 -57.937,-36.31"
       style="fill:#deedfa;fill-opacity:1;fill-rule:nonzero;stroke:none"
       id="path100"
       inkscape:connector-curvature="0" /><path
       d="m 588.352,1084.79 c 0,0 -6.653,48.41 -51.86,61.85 -52.871,15.74 -66.441,-37.66 -66.441,-37.66 0,0 27.547,20.49 60.347,12.12 30.969,-7.88 57.954,-36.31 57.954,-36.31"
       style="fill:#deedfa;fill-opacity:1;fill-rule:nonzero;stroke:none"
       id="path102"
       inkscape:connector-curvature="0" /><path
       d="m 472.371,1046.65 c 0,-29.31 15.957,-53.13 35.617,-53.13 19.649,0 35.606,23.82 35.606,53.13 0,29.34 -15.957,53.11 -35.606,53.11 -19.66,0 -35.617,-23.77 -35.617,-53.11"
       style="fill:#231f20;fill-opacity:1;fill-rule:nonzero;stroke:none"
       id="path104"
       inkscape:connector-curvature="0" /><path
       d="m 470.051,1108.98 c 0,0 13.57,53.4 66.441,37.66 45.207,-13.44 51.86,-61.85 51.86,-61.85"
       style="fill:none;stroke:#231f20;stroke-width:14;stroke-linecap:round;stroke-linejoin:round;stroke-miterlimit:10;stroke-dasharray:none;stroke-opacity:1"
       id="path106"
       inkscape:connector-curvature="0" /><path
       d="m 336.758,1210.43 c -3.219,-3.56 -20.641,10.11 -42.754,13.06 -10.957,1.74 -22.781,1.35 -32.899,0 -10.242,-1.14 -16.917,-3.72 -20.933,-5.35 -7.649,-3.14 -15.52,-8.62 -21.867,-12.75 -6.41,-4.04 -11.778,-6.89 -16.606,-3.22 -4.734,3.56 -2.816,10.78 3.598,17.97 6.32,7.24 16.871,13.7 26.683,17.68 2.473,0.98 6.09,2.43 10.786,3.62 4.652,1.29 10.574,2.12 16.218,2.57 11.653,0.96 25.875,0.47 38.907,-3.28 13.066,-3.67 24.242,-10.54 30.882,-16.92 6.723,-6.38 9.504,-11.72 7.985,-13.38"
       style="fill:#231f20;fill-opacity:1;fill-rule:nonzero;stroke:none"
       id="path108"
       inkscape:connector-curvature="0" /><path
       d="m 451.855,1210.43 c -1.523,1.66 1.258,7 7.981,13.38 6.641,6.38 17.82,13.26 30.887,16.92 13.027,3.75 27.257,4.25 38.906,3.28 5.644,-0.45 11.57,-1.27 16.223,-2.57 4.695,-1.18 8.308,-2.64 10.781,-3.62 9.812,-3.98 20.371,-10.44 26.687,-17.68 6.414,-7.19 8.328,-14.41 3.594,-17.97 -4.824,-3.66 -10.195,-0.82 -16.601,3.22 -6.348,4.13 -14.219,9.62 -21.868,12.75 -4.019,1.63 -10.691,4.21 -20.933,5.35 -10.117,1.35 -21.946,1.74 -32.903,0 -22.121,-2.95 -39.543,-16.61 -42.754,-13.06"
       style="fill:#231f20;fill-opacity:1;fill-rule:nonzero;stroke:none"
       id="path110"
       inkscape:connector-curvature="0" /><path
       d="m 261.809,1296.13 c 117.5,-5 227.91,63.33 264.16,112.08 0,0 14.597,-121.24 135.008,-184.58"
       style="fill:none;stroke:#231f20;stroke-width:14;stroke-linecap:round;stroke-linejoin:round;stroke-miterlimit:10;stroke-dasharray:none;stroke-opacity:1"
       id="path112"
       inkscape:connector-curvature="0" /><path
       d="m 370.977,1385.3 c 0,0 -92.918,-93.75 -196.668,-100"
       style="fill:none;stroke:#231f20;stroke-width:14;stroke-linecap:round;stroke-linejoin:round;stroke-miterlimit:10;stroke-dasharray:none;stroke-opacity:1"
       id="path114"
       inkscape:connector-curvature="0" /><path
       d="m 610.137,1335.08 c 0,0 70.008,-100.62 90.008,-228.12"
       style="fill:none;stroke:#231f20;stroke-width:14;stroke-linecap:round;stroke-linejoin:round;stroke-miterlimit:10;stroke-dasharray:none;stroke-opacity:1"
       id="path116"
       inkscape:connector-curvature="0" /><path
       d="m 730.969,1094.46 c 45,196.25 6.148,287.88 -40.102,354.13 -48.418,69.36 -121.25,81.25 -121.25,81.25 -26.25,85 -197.5,113.75 -321.25,43.75 -96.336,-54.5 -117.5,-100.42 -117.5,-100.42 C -29.0313,1353.7 57.3828,1094.52 57.3828,1094.52"
       style="fill:none;stroke:#231f20;stroke-width:14;stroke-linecap:round;stroke-linejoin:round;stroke-miterlimit:10;stroke-dasharray:none;stroke-opacity:1"
       id="path118"
       inkscape:connector-curvature="0" /><path
       d="m 314.563,1046.65 c 0,-29.31 -15.95,-53.13 -35.618,-53.13 -19.636,0 -35.586,23.82 -35.586,53.13 0,29.34 15.95,53.11 35.586,53.11 19.668,0 35.618,-23.77 35.618,-53.11"
       style="fill:#231f20;fill-opacity:1;fill-rule:nonzero;stroke:none"
       id="path120"
       inkscape:connector-curvature="0" /><path
       d="m 312.852,1065.66 c 0,-6.9 -4.883,-12.49 -10.918,-12.49 -6.004,0 -10.899,5.59 -10.899,12.49 0,6.92 4.895,12.54 10.899,12.54 6.035,0 10.918,-5.62 10.918,-12.54"
       style="fill:#ffffff;fill-opacity:1;fill-rule:nonzero;stroke:none"
       id="path122"
       inkscape:connector-curvature="0" /><path
       d="m 541.68,1065.66 c 0,-6.9 -4.883,-12.49 -10.918,-12.49 -6.016,0 -10.907,5.59 -10.907,12.49 0,6.92 4.891,12.54 10.907,12.54 6.035,0 10.918,-5.62 10.918,-12.54"
       style="fill:#ffffff;fill-opacity:1;fill-rule:nonzero;stroke:none"
       id="path124"
       inkscape:connector-curvature="0" /><path
       d="m 316.887,1108.98 c 0,0 -13.559,53.4 -66.438,37.66 -45.215,-13.44 -51.855,-61.85 -51.855,-61.85"
       style="fill:none;stroke:#231f20;stroke-width:14;stroke-linecap:round;stroke-linejoin:round;stroke-miterlimit:10;stroke-dasharray:none;stroke-opacity:1"
       id="path126"
       inkscape:connector-curvature="0" /><path
       d="m 355.215,822.492 c 10.578,-17.703 50.129,-19.433 60.754,0.567"
       style="fill:none;stroke:#231f20;stroke-width:14;stroke-linecap:round;stroke-linejoin:round;stroke-miterlimit:10;stroke-dasharray:none;stroke-opacity:1"
       id="path128"
       inkscape:connector-curvature="0" /><path
       d="m 453.469,482.398 c 0,-6.238 -5.102,-11.339 -11.34,-11.339 l -148.574,0 c -6.242,0 -11.336,5.101 -11.336,11.339 l 0,267.325 c 0,6.238 5.094,11.336 11.336,11.336 l 148.574,0 c 6.238,0 11.34,-5.098 11.34,-11.336 l 0,-267.325"
       style="fill:#f4f4f4;fill-opacity:1;fill-rule:nonzero;stroke:none"
       id="path130"
       inkscape:connector-curvature="0" /><path
       d="m 282.844,553.559 0,59.742 171.492,98.707 0.383,-74.699 -171.875,-83.75"
       style="fill:#d3d2d2;fill-opacity:1;fill-rule:nonzero;stroke:none"
       id="path132"
       inkscape:connector-curvature="0" /><path
       d="m 453.469,482.398 c 0,-6.238 -5.102,-11.339 -11.34,-11.339 l -148.574,0 c -6.242,0 -11.336,5.101 -11.336,11.339 l 0,267.325 c 0,6.238 5.094,11.336 11.336,11.336 l 148.574,0 c 6.238,0 11.34,-5.098 11.34,-11.336 l 0,-267.325 z"
       style="fill:none;stroke:#231f20;stroke-width:14;stroke-linecap:round;stroke-linejoin:round;stroke-miterlimit:10;stroke-dasharray:none;stroke-opacity:1"
       id="path134"
       inkscape:connector-curvature="0" /><path
       d="m 116.594,411.82 19.375,-90.14"
       style="fill:none;stroke:#231f20;stroke-width:14;stroke-linecap:round;stroke-linejoin:round;stroke-miterlimit:10;stroke-dasharray:none;stroke-opacity:1"
       id="path136"
       inkscape:connector-curvature="0" /><path
       d="m 32.4219,169.551 c 7.5,17.5 39.6484,53.738 52.707,71.929 25.4181,35.411 65.8481,107.911 98.3481,159.571 8.125,12.918 21.66,17.5 31.66,11.668 l 54.16,-44.168 9.922,-37.813 c 0,0 21.25,-35.629 14.172,-61.047 C 288.945,253.75 219.094,127.93 190.344,89.1797 c -28.75,-38.75 -64.375,-76.8711 -80,-80.62111"
       style="fill:none;stroke:#231f20;stroke-width:14;stroke-linecap:round;stroke-linejoin:round;stroke-miterlimit:10;stroke-dasharray:none;stroke-opacity:1"
       id="path138"
       inkscape:connector-curvature="0" /><path
       d="m 189.922,377.309 c 0,0 -4.805,-10.27 -1.445,-25.008 7.5,-32.91 58.75,-106.66 75.82,-97.5 0,0 28.164,44.14 28.34,52.5 0.41,19.168 -14.793,35.008 -14.793,35.008 0,0 -43.449,80.882 -54.375,78.332 -12.5,-2.922 -33.547,-43.332 -33.547,-43.332"
       style="fill:#ffffff;fill-opacity:1;fill-rule:nonzero;stroke:none"
       id="path140"
       inkscape:connector-curvature="0" /><path
       d="m 189.922,377.309 c 0,0 -4.805,-10.27 -1.445,-25.008 7.5,-32.91 58.75,-106.66 75.82,-97.5 0,0 28.164,44.14 28.34,52.5 0.41,19.168 -14.793,35.008 -14.793,35.008 0,0 -43.449,80.882 -54.375,78.332 -12.5,-2.922 -33.547,-43.332 -33.547,-43.332 z"
       style="fill:none;stroke:#231f20;stroke-width:12;stroke-linecap:round;stroke-linejoin:round;stroke-miterlimit:10;stroke-dasharray:none;stroke-opacity:1"
       id="path142"
       inkscape:connector-curvature="0" /><path
       d="m 218.887,388.551 c 0,0 -1.25,-11.25 -0.828,-13.332 0.418,-2.078 26.668,-47.508 29.168,-51.668 2.5,-4.16 24.992,-19.172 29.16,-10 4.172,9.168 -2.078,28.34 -2.078,28.34 l -40.832,46.25 -14.59,0.41"
       style="fill:#fcd0b4;fill-opacity:1;fill-rule:nonzero;stroke:none"
       id="path144"
       inkscape:connector-curvature="0" /><path
       d="m 218.887,391.051 c 15,18.75 17.922,40 17.922,40 0,0 -3.332,82.508 0,93.34 3.328,10.828 15,47.539 15.828,58.328 1.66,21.672 0.41,40.418 -3.34,51.679 -2.871,8.633 19.375,8.114 25,-3.761 5.625,-11.875 7.922,-17.078 7.922,-44.578 l 0,-43.758 c 0,0 69.16,54.16 79.578,62.5 10.422,8.34 84.582,58.328 98.75,62.5 14.172,4.168 28.34,-7.914 15.84,-25.832 -12.5,-17.918 -101.668,-82.91 -101.668,-82.91 0,0 74.422,46.312 80.625,49.062 18.75,8.328 37.957,-16.312 15.828,-32.922 -6.66,-5 -78.953,-51.558 -78.953,-51.558 0,0 59.246,32.64 65.625,36.359 18.75,10.93 32.183,-11.25 13.75,-29.691 -10.903,-10.899 -57.192,-43.129 -57.192,-43.129 0,0 31.313,18.179 39.067,21.879 20.308,9.691 31.558,-7.5 11.875,-28.129 -17.434,-18.27 -31.457,-30.629 -44.375,-41.039 -8.852,-7.129 -29.465,-44.051 -99.199,-64.032 -7.368,-2.109 -13.125,-9.23 -13.125,-9.23 l -36.848,-55.078"
       style="fill:#fcd0b4;fill-opacity:1;fill-rule:nonzero;stroke:none"
       id="path146"
       inkscape:connector-curvature="0" /><path
       d="m 218.887,391.051 c 15,18.75 17.922,40 17.922,40 0,0 -3.332,82.508 0,93.34 3.328,10.828 15,47.539 15.828,58.328 1.66,21.672 0.41,40.418 -3.34,51.679 -2.871,8.633 19.375,8.114 25,-3.761 5.625,-11.875 7.922,-17.078 7.922,-44.578 l 0,-43.758 c 0,0 69.16,54.16 79.578,62.5 10.422,8.34 84.582,58.328 98.75,62.5 14.172,4.168 28.34,-7.914 15.84,-25.832 -12.5,-17.918 -101.668,-82.91 -101.668,-82.91 0,0 74.422,46.312 80.625,49.062 18.75,8.328 37.957,-16.312 15.828,-32.922 -6.66,-5 -78.953,-51.558 -78.953,-51.558 0,0 59.246,32.64 65.625,36.359 18.75,10.93 32.183,-11.25 13.75,-29.691 -10.903,-10.899 -57.192,-43.129 -57.192,-43.129 0,0 31.313,18.179 39.067,21.879 20.308,9.691 31.558,-7.5 11.875,-28.129 -17.434,-18.27 -31.457,-30.629 -44.375,-41.039 -8.852,-7.129 -29.465,-44.051 -99.199,-64.032 -7.368,-2.109 -13.125,-9.23 -13.125,-9.23 l -36.848,-55.078"
       style="fill:none;stroke:#231f20;stroke-width:14;stroke-linecap:round;stroke-linejoin:round;stroke-miterlimit:10;stroke-dasharray:none;stroke-opacity:1"
       id="path148"
       inkscape:connector-curvature="0" /><path
       d="m 218.887,401.891 c 0,0 -3.926,-13.731 0,-28.34 6.551,-24.36 36.25,-72.5 57.91,-70"
       style="fill:none;stroke:#231f20;stroke-width:12;stroke-linecap:round;stroke-linejoin:round;stroke-miterlimit:10;stroke-dasharray:none;stroke-opacity:1"
       id="path150"
       inkscape:connector-curvature="0" /><path
       d="m 337.02,722.008 c 0,-7.699 -6.227,-13.93 -13.922,-13.93 -7.7,0 -13.926,6.231 -13.926,13.93 0,7.691 6.226,13.922 13.926,13.922 7.695,0 13.922,-6.231 13.922,-13.922"
       style="fill:#f4f4f4;fill-opacity:1;fill-rule:nonzero;stroke:none"
       id="path152"
       inkscape:connector-curvature="0" /><path
       d="m 337.02,722.008 c 0,-7.699 -6.227,-13.93 -13.922,-13.93 -7.7,0 -13.926,6.231 -13.926,13.93 0,7.691 6.226,13.922 13.926,13.922 7.695,0 13.922,-6.231 13.922,-13.922 z"
       style="fill:none;stroke:#231f20;stroke-width:10;stroke-linecap:round;stroke-linejoin:round;stroke-miterlimit:10;stroke-dasharray:none;stroke-opacity:1"
       id="path154"
       inkscape:connector-curvature="0" /></g></svg>