<?xml version="1.0" encoding="UTF-8"?>
<!DOCTYPE svg PUBLIC "-//W3C//DTD SVG 1.1//EN" "http://www.w3.org/Graphics/SVG/1.1/DTD/svg11.dtd">
<svg version="1.1" xmlns="http://www.w3.org/2000/svg" xmlns:xlink="http://www.w3.org/1999/xlink" x="0" y="0" width="1476" height="693" viewBox="0, 0, 1476, 693">
  <g id="Layer_1">
    <path d="M1369.755,266.526 L1336.494,264.273 L1360.017,180.273 C1360.017,180.273 1338.519,91.881 1166.646,73.284 C1081.194,64.026 1032.939,82.377 1005.993,103.164 C955.545,52.455 850.434,17.568 728.883,17.568 C612.588,17.568 511.347,49.5 458.619,96.669 C430.326,78.801 383.694,65.007 307.305,73.284 C135.435,91.881 113.94,180.273 113.94,180.273 L137.46,264.273 L104.199,266.526 C50.967,270.123 11.187,310.398 15.348,356.502 L50.709,545.406 C54.369,586.023 86.07,617.91 124.692,622.824 L124.692,640.77 C124.692,661.326 143.928,677.952 167.658,677.952 L1306.302,677.952 C1330.029,677.952 1349.268,661.326 1349.268,640.77 L1349.268,622.824 C1387.878,617.91 1419.582,586.023 1423.245,545.406 L1458.606,356.502 C1462.77,310.398 1422.984,270.123 1369.755,266.526" fill="#545453"/>
    <path d="M1369.755,266.526 L1336.494,264.273 L1360.017,180.273 C1360.017,180.273 1338.519,91.881 1166.646,73.284 C1081.194,64.026 1032.939,82.377 1005.993,103.164 C955.545,52.455 850.434,17.568 728.883,17.568 C612.588,17.568 511.347,49.5 458.619,96.669 C430.326,78.801 383.694,65.007 307.305,73.284 C135.435,91.881 113.94,180.273 113.94,180.273 L137.46,264.273 L104.199,266.526 C50.967,270.123 11.187,310.398 15.348,356.502 L50.709,545.406 C54.369,586.023 86.07,617.91 124.692,622.824 L124.692,640.77 C124.692,661.326 143.928,677.952 167.658,677.952 L1306.302,677.952 C1330.029,677.952 1349.268,661.326 1349.268,640.77 L1349.268,622.824 C1387.878,617.91 1419.582,586.023 1423.245,545.406 L1458.606,356.502 C1462.77,310.398 1422.984,270.123 1369.755,266.526 z" fill-opacity="0" stroke="#545453" stroke-width="30.096" stroke-linecap="round" stroke-linejoin="round"/>
    <path d="M1037.883,171.084 C1037.883,86.304 899.535,17.568 728.883,17.568 C558.222,17.568 419.88,86.304 419.88,171.084 C419.88,171.636 419.952,172.185 419.955,172.743 L419.955,459.489 L1037.787,459.489 L1037.787,172.827 C1037.799,172.242 1037.883,171.672 1037.883,171.084" fill="#CC572F"/>
    <path d="M1037.883,171.084 C1037.883,86.304 899.535,17.568 728.883,17.568 C558.222,17.568 419.88,86.304 419.88,171.084 C419.88,171.636 419.952,172.185 419.955,172.743 L419.955,459.489 L1037.787,459.489 L1037.787,172.827 C1037.799,172.242 1037.883,171.672 1037.883,171.084 z" fill-opacity="0" stroke="#545453" stroke-width="5.016" stroke-linecap="round" stroke-linejoin="round"/>
    <path d="M199.884,487.257 L113.94,180.273 C113.94,180.273 135.435,91.881 307.305,73.284 C479.169,54.657 500.652,147.702 500.652,147.702 L484.539,454.689 L199.884,487.257" fill="#CC572F"/>
    <path d="M199.884,487.257 L113.94,180.273 C113.94,180.273 135.435,91.881 307.305,73.284 C479.169,54.657 500.652,147.702 500.652,147.702 L484.539,454.689 L199.884,487.257 z" fill-opacity="0" stroke="#545453" stroke-width="5.016" stroke-linecap="round" stroke-linejoin="round"/>
    <path d="M1274.073,487.257 L1360.017,180.273 C1360.017,180.273 1338.519,91.881 1166.646,73.284 C994.785,54.657 973.299,147.702 973.299,147.702 L989.403,454.689 L1274.073,487.257" fill="#CC572F"/>
    <path d="M1274.073,487.257 L1360.017,180.273 C1360.017,180.273 1338.519,91.881 1166.646,73.284 C994.785,54.657 973.299,147.702 973.299,147.702 L989.403,454.689 L1274.073,487.257 z" fill-opacity="0" stroke="#545453" stroke-width="5.016" stroke-linecap="round" stroke-linejoin="round"/>
    <path d="M1292.874,473.436 C1292.874,504.27 1043.988,529.239 736.98,529.239 C429.966,529.239 181.086,504.27 181.086,473.436 C181.086,442.599 429.966,417.612 736.98,417.612 C1043.988,417.612 1292.874,442.599 1292.874,473.436" fill="#CC572F"/>
    <path d="M1292.874,473.436 C1292.874,504.27 1043.988,529.239 736.98,529.239 C429.966,529.239 181.086,504.27 181.086,473.436 C181.086,442.599 429.966,417.612 736.98,417.612 C1043.988,417.612 1292.874,442.599 1292.874,473.436 z" fill-opacity="0" stroke="#545453" stroke-width="5.016" stroke-linecap="round" stroke-linejoin="round"/>
    <path d="M1349.268,640.77 C1349.268,661.326 1330.029,677.952 1306.302,677.952 L167.658,677.952 C143.928,677.952 124.692,661.326 124.692,640.77 L124.692,501.204 C124.692,480.669 143.928,464.001 167.658,464.001 L1306.302,464.001 C1330.029,464.001 1349.268,480.669 1349.268,501.204 L1349.268,640.77" fill="#CC572F"/>
    <path d="M1349.268,640.77 C1349.268,661.326 1330.029,677.952 1306.302,677.952 L167.658,677.952 C143.928,677.952 124.692,661.326 124.692,640.77 L124.692,501.204 C124.692,480.669 143.928,464.001 167.658,464.001 L1306.302,464.001 C1330.029,464.001 1349.268,480.669 1349.268,501.204 L1349.268,640.77 z" fill-opacity="0" stroke="#545453" stroke-width="5.016" stroke-linecap="round" stroke-linejoin="round"/>
    <path d="M265.902,530.859 C270.06,576.963 236.52,616.842 191.013,619.899 L140.649,623.322 C95.133,626.409 54.864,591.513 50.709,545.406 L15.348,356.502 C11.187,310.398 50.967,270.123 104.199,266.526 L163.104,262.539 C216.324,258.945 262.845,293.391 267.006,339.495 L265.902,530.859" fill="#CE542E"/>
    <path d="M265.902,530.859 C270.06,576.963 236.52,616.842 191.013,619.899 L140.649,623.322 C95.133,626.409 54.864,591.513 50.709,545.406 L15.348,356.502 C11.187,310.398 50.967,270.123 104.199,266.526 L163.104,262.539 C216.324,258.945 262.845,293.391 267.006,339.495 L265.902,530.859 z" fill-opacity="0" stroke="#545453" stroke-width="5.016" stroke-linecap="round" stroke-linejoin="round"/>
    <path d="M1208.055,530.859 C1203.891,576.963 1237.431,616.842 1282.938,619.899 L1333.302,623.322 C1378.815,626.409 1419.087,591.513 1423.245,545.406 L1458.606,356.502 C1462.77,310.398 1422.984,270.123 1369.755,266.526 L1310.847,262.539 C1257.624,258.945 1211.103,293.391 1206.942,339.495 L1208.055,530.859" fill="#CC572F"/>
    <path d="M1208.055,530.859 C1203.891,576.963 1237.431,616.842 1282.938,619.899 L1333.302,623.322 C1378.815,626.409 1419.087,591.513 1423.245,545.406 L1458.606,356.502 C1462.77,310.398 1422.984,270.123 1369.755,266.526 L1310.847,262.539 C1257.624,258.945 1211.103,293.391 1206.942,339.495 L1208.055,530.859 z" fill-opacity="0" stroke="#545453" stroke-width="5.016" stroke-linecap="round" stroke-linejoin="round"/>
  </g>
</svg>
