<?xml version="1.0" encoding="UTF-8"?>
<!DOCTYPE svg PUBLIC "-//W3C//DTD SVG 1.1//EN" "http://www.w3.org/Graphics/SVG/1.1/DTD/svg11.dtd">
<svg version="1.1" xmlns="http://www.w3.org/2000/svg" xmlns:xlink="http://www.w3.org/1999/xlink" x="0" y="0" width="450" height="810" viewBox="0, 0, 450, 810">
  <g id="Layer_1">
    <path d="M394.19,803.405 C409.18,645.905 398.615,559.205 371.105,551.485 C357.52,547.675 278.095,518.53 251.825,508.365 L195.025,508.04 C168.75,518.2 94.435,545.21 80.855,549.02 C53.35,556.74 38.365,564.96 46.125,727.405 L52.865,779.125 C52.865,779.125 55.92,799.785 80.295,805.72 C104.67,811.66 111.89,793.795 111.89,793.795 L394.19,803.405" fill="#E56E8A"/>
    <path d="M199.98,496.88 L197.6,522.35 C197.6,522.35 211.975,541.935 224.68,541.935 C243.43,541.935 251.15,516.2 251.15,516.2 L250.07,495.835" fill="#F8D2B5"/>
    <path d="M250.75,507.985 C250.75,507.985 369.91,550.905 374.5,553.405 C377.08,554.81 385.46,560.125 391.28,571.11 C391.16,570.69 394.035,586.88 393.78,586.94 C387.49,579.47 379.21,568.6 370.03,565.275 C355.155,559.895 256.535,525.96 256.535,525.96 L250.75,507.985" fill="#EC9FAF"/>
    <path d="M197.89,507.985 C197.89,507.985 78.73,550.905 74.14,553.405 C71.56,554.81 59.21,559.42 53.39,570.41 C53.505,569.99 50.185,590.625 50.44,590.685 C56.69,581.105 65.565,569.77 74.61,566.105 C92.11,559.02 192.11,525.96 192.11,525.96 L197.89,507.985" fill="#EC9FAF"/>
    <path d="M199.94,477.14 L250.07,477.14 L250.49,501.53 C250.49,501.53 244.315,524.085 196.46,522.175 L198.335,505.99 L199.94,477.14" fill="#CF957E"/>
    <path d="M245.615,732.8 C181.755,737.395 118.92,726.67 97.465,706.235 C102.995,733.13 96.87,794.79 100.38,803.415 L395.275,803.415 C398.78,794.81 402.45,707.255 402.96,665.365 C378.435,691.93 316.475,727.705 245.615,732.8" fill="#DA5275"/>
    <path d="M224.265,781.515 C260.655,636.285 256.125,552.59 252.88,525.06 L251.15,516.2 C251.15,516.2 243.43,541.935 224.68,541.935 C211.975,541.935 197.6,522.35 197.6,522.35 L195.86,526.315 C192.53,555.295 188.49,638.73 224.265,781.515" fill="#FFFFFE"/>
    <path d="M204.365,566.825 C204.365,566.825 222.355,542.975 225.35,542.84 C228.34,542.705 242.08,566.825 242.08,566.825 C242.08,566.825 228.045,553.27 204.365,566.825" fill="#BBC9CD"/>
    <g>
      <path d="M196.9,507.36 C170.625,517.52 87.665,547.675 74.085,551.485 M251.825,508.365 C278.095,518.53 357.52,547.675 371.105,551.485 C398.615,559.205 409.18,645.905 395.02,800.905" fill-opacity="0" stroke="#1A1919" stroke-width="7" stroke-linecap="round" stroke-linejoin="round"/>
      <path d="M367.6,594.435 L331.345,801.105 M80.935,594.435 L112.725,775.685" fill-opacity="0" stroke="#1A1919" stroke-width="6" stroke-linecap="round" stroke-linejoin="round"/>
    </g>
    <path d="M380.185,651.76 C380.185,651.76 371.485,701.08 345.1,725.685" fill-opacity="0" stroke="#1A1919" stroke-width="5" stroke-linecap="round" stroke-linejoin="round"/>
    <g>
      <path d="M274.885,490.105 C359.27,499.925 374.68,454.54 374.68,454.54 L385.5,497.835 C414.68,473.695 421.59,369.105 421.59,369.105 L433.095,275.52 C447.96,63.64 336.915,53.095 336.915,53.095 C313.485,0.565 142.245,-36.975 56.085,88.435 C1.63,167.655 11.565,278.44 11.565,278.44 L39.07,373.985 C39.07,373.985 60.14,451.915 40.325,488.57 C40.325,488.57 77.185,481.075 81.355,469.425 C81.355,469.425 93,493.58 168.01,488.62" fill="#7D4D3F"/>
      <path d="M336.915,53.095 C313.485,0.565 142.245,-36.975 56.085,88.435 C1.63,167.655 11.565,278.44 11.565,278.44 L28.715,274.235 C28.715,274.235 19.24,125.6 106.49,61.34 C206.35,-12.23 298.7,34.87 334.815,52.245 C335.665,52.255 336.915,53.095 336.915,53.095" fill="#E0B79F"/>
      <path d="M55.08,287.055 C55.08,287.055 44.99,267.455 25.995,273.385 C-13.64,285.755 -0.955,371.65 64.51,379.075" fill="#F8D2B5"/>
      <path d="M392.9,287.485 C392.9,287.485 403.02,267.895 422.02,273.835 C461.62,286.25 451.065,372.135 384.55,379.53" fill="#F8D2B5"/>
    </g>
    <path d="M390.87,266.85 C386.105,278.085 381.3,284.915 381.3,284.915 C365.625,164.085 235.645,110.555 235.645,110.555 C304.1,170.795 304.68,204.425 304.68,204.425 C189.04,210.65 131.23,128.26 131.23,128.26 C131.23,128.26 130.62,142.575 123.085,164.43 C114.16,190.245 95.545,226.53 56.94,262.22 C56.875,262.765 56.85,263.08 56.85,263.08 C54.87,295.66 55.375,352.295 70.54,397.745 C97.4,478.205 183.14,496.46 223.845,496.465 C264.55,496.48 350.32,478.29 377.205,397.85 C391.57,354.85 397.89,301.22 391.29,268.655 C391.16,268.07 390.995,267.44 390.87,266.85" fill="#F8D2B5"/>
    <path d="M179.5,300.92 C179.495,325.755 164.055,345.87 145.025,345.865 C125.99,345.86 110.555,325.735 110.565,300.91 C110.575,276.06 126.02,255.95 145.055,255.945 C164.085,255.965 179.505,276.09 179.5,300.92" fill="#FFFFFE"/>
    <path d="M339.1,300.98 C339.09,325.81 323.66,345.925 304.62,345.92 C285.595,345.905 270.155,325.78 270.165,300.95 C270.175,276.115 285.625,256 304.66,256.01 C323.68,256.015 339.12,276.15 339.1,300.98" fill="#FFFFFE"/>
    <path d="M125.875,350.93 C125.875,358.7 112.765,365.005 96.59,364.995 C80.425,364.995 67.32,358.675 67.32,350.905 C67.32,343.13 80.435,336.845 96.6,336.85 C112.77,336.85 125.88,343.16 125.875,350.93" fill="#EC9896"/>
    <path d="M380.74,351.015 C380.74,358.79 367.625,365.065 351.475,365.085 C335.305,365.07 322.195,358.755 322.185,350.985 C322.195,343.225 335.31,336.925 351.465,336.93 C367.645,336.93 380.73,343.24 380.74,351.015" fill="#EC9896"/>
    <path d="M59.725,351.985 L56.82,320.375 C56.82,320.375 48.61,300.785 36,297.735 C19.755,293.83 19.415,320.02 30.565,334.815 C47.635,357.445 59.725,351.985 59.725,351.985" fill="#CF957E"/>
    <path d="M390.545,352.09 L393.485,320.485 C393.485,320.485 401.71,300.895 414.325,297.865 C430.585,293.965 430.9,320.155 419.725,334.94 C402.645,357.57 390.545,352.09 390.545,352.09" fill="#CF957E"/>
    <path d="M148.085,266.965 C156.065,266.96 163.675,268.425 170.695,270.965 C164.385,261.78 155.255,255.95 145.055,255.945 C133.535,255.94 123.36,263.335 117.085,274.665 C126.235,269.795 136.795,266.965 148.085,266.965" fill="#D2E0EB"/>
    <path d="M301.845,267.02 C293.84,267.015 286.24,268.465 279.23,270.995 C285.535,261.815 294.67,256 304.865,256 C316.385,256.01 326.57,263.41 332.82,274.735 C323.69,269.855 313.115,267.025 301.845,267.02" fill="#D2E0EB"/>
    <path d="M75.585,79.67 C130.16,98.005 166.4,98.235 186.715,95.44 C200.375,93.57 193.18,88.68 186.97,87.6 C123.015,76.355 103.94,51.805 103.94,51.805 L75.585,79.67" fill="#E0B79F"/>
    <g>
      <path d="M175.74,274.865 C161.29,244.38 100.7,244.215 109.325,316.14" fill-opacity="0" stroke="#1A1919" stroke-width="8" stroke-linecap="round" stroke-linejoin="round"/>
      <path d="M55.08,287.055 C55.08,287.055 44.99,267.455 25.995,273.385 C-13.64,285.755 -0.955,371.65 64.51,379.075 M26.685,296.53 C26.685,296.53 39.765,287.645 55.775,322.675 M56.85,263.08 C54.87,295.66 55.375,352.295 70.54,397.745 C97.4,478.205 183.14,496.46 223.845,496.465 C264.55,496.48 350.32,478.29 377.205,397.85 C391.57,354.85 392.84,301.86 391.29,268.655 M272.47,219.06 C285.605,209.06 318.74,204.08 336.855,225.97 M177.595,219.06 C164.465,209.06 131.33,204.08 113.215,225.97" fill-opacity="0" stroke="#1A1919" stroke-width="7" stroke-linecap="round" stroke-linejoin="round"/>
      <path d="M272.525,277.84 C284.375,244.485 349.11,242.045 340.155,316.215" fill-opacity="0" stroke="#1A1919" stroke-width="8" stroke-linecap="round" stroke-linejoin="round"/>
      <path d="M392.9,287.485 C392.9,287.485 403.02,267.895 422.02,273.835 C461.62,286.25 451.065,372.135 384.55,379.53 M420.93,297.005 C420.93,297.005 407.86,288.09 391.815,323.12 M97.465,294.885 L108.485,301.76 M341.005,301.835 L355.77,294.97 M223.88,374.04 L223.885,364.035 M387.285,177.425 C419.035,231.605 381.3,284.915 381.3,284.915 C365.625,164.085 235.645,110.555 235.645,110.555 C304.1,170.795 304.68,204.425 304.68,204.425 C189.04,210.65 131.23,128.26 131.23,128.26 C131.23,128.26 128.24,198.285 53.82,265.125 C53.82,265.125 43.1,218.15 58.735,183.155 M12.67,282.245 C12.67,282.245 1.63,167.655 56.085,88.435 C142.245,-36.975 313.485,0.565 336.915,53.095 C336.915,53.095 447.59,66.56 432.735,278.42 M39.07,373.985 C39.07,373.985 60.14,451.915 40.325,488.57 C40.325,488.57 77.185,481.075 81.355,469.425 C81.355,469.425 93,493.58 168.01,488.62 M421.59,369.105 C421.59,369.105 414.68,473.695 385.5,497.835 L374.68,454.54 C374.68,454.54 359.27,499.925 274.885,490.105" fill-opacity="0" stroke="#1A1919" stroke-width="7" stroke-linecap="round" stroke-linejoin="round"/>
    </g>
    <path d="M265.275,514.32 L307.18,562.765 L291.785,577.12 L309.16,596.33 L236.26,775.685 M185.09,512.765 L143.01,562.765 L158.4,577.12 L141.03,596.33 L213.935,775.685" fill-opacity="0" stroke="#1A1919" stroke-width="6" stroke-linecap="round" stroke-linejoin="round"/>
    <path d="M199.76,495.14 L197.6,522.35 C197.6,522.35 211.975,541.935 224.68,541.935 C243.43,541.935 251.15,516.2 251.15,516.2 L250.585,495.565 M197.6,514.65 C197.6,514.65 178.85,600.265 224.265,781.515 M251.345,514.855 C251.345,514.855 269.68,600.265 224.265,781.515" fill-opacity="0" stroke="#1A1919" stroke-width="7" stroke-linecap="round" stroke-linejoin="round"/>
    <path d="M195.095,578.185 L224.68,541.935 L254.47,581.935" fill-opacity="0" stroke="#1A1919" stroke-width="6" stroke-linecap="round" stroke-linejoin="round"/>
    <path d="M174.14,315.55 C174.12,332.465 164.595,346.17 152.865,346.17 C141.135,346.17 131.63,332.45 131.635,315.54 C131.64,298.625 141.155,284.91 152.885,284.92 C164.62,284.925 174.14,298.64 174.14,315.55" fill="#1A1919"/>
    <path d="M274.95,315.575 C274.94,332.5 284.465,346.205 296.19,346.21 C307.93,346.22 317.44,332.51 317.46,315.595 C317.46,298.67 307.95,284.965 296.22,284.965 C284.48,284.96 274.95,298.66 274.95,315.575" fill="#1A1919"/>
    <path d="M173.76,305.305 C173.755,308.76 170.95,311.57 167.475,311.57 C164.01,311.57 161.205,308.76 161.205,305.305 C161.21,301.82 164.02,299.02 167.49,299.03 C170.955,299.03 173.755,301.835 173.76,305.305" fill="#FFFFFE"/>
    <path d="M315.8,305.345 C315.81,308.815 312.99,311.615 309.53,311.605 C306.075,311.615 303.26,308.805 303.25,305.335 C303.25,301.87 306.065,299.065 309.55,299.065 C313.01,299.065 315.83,301.89 315.8,305.345" fill="#FFFFFE"/>
    <path d="M276.57,396.52 C269.53,407.48 253.315,427.04 225.12,427.04 C196.93,427.04 180.715,407.48 173.655,396.52" fill-opacity="0" stroke="#1A1919" stroke-width="7" stroke-linecap="round" stroke-linejoin="round"/>
    <path d="M96.01,805.72 C103.825,803.845 121.635,784.785 136.01,765.41 C150.385,746.035 181.885,686.52 184.105,678.555 C187.645,665.845 176.52,644.89 176.52,644.89 L172.57,631.47 L148.405,610.055 C145.075,607.135 135.4,605.135 131.37,611.615 C115.435,637.24 96.115,671.555 83.405,689.26 C76.875,698.35 60.8,716.475 57.05,725.225 L96.01,805.72" fill="#E56E8A"/>
    <path d="M57.05,725.225 C60.8,716.475 76.875,698.35 83.405,689.26 C96.115,671.555 116.225,637.51 132.16,611.885 C136.19,605.405 144.14,606.51 147.47,609.43 L153.74,612.675 C150.405,609.755 144.82,613.55 140.795,620.025 C124.855,645.65 101.355,683.89 88.645,701.595 C82.52,710.13 70.7,720.515 59.66,738.85 C56.945,743.815 50.285,762.81 50.285,762.81 L47.575,740.31 C47.575,740.31 55.095,728.42 57.05,725.225" fill="#EC9FAF"/>
    <path d="M237.1,572.825 L242.09,543.57 L268.24,577.19 C268.24,577.19 255.135,565.915 237.1,572.825" fill="#CFDCE0"/>
    <path d="M252.92,483.78 C252.92,483.78 252.695,499.765 257.505,507.735 M74.085,551.485 C63.99,555.195 50.075,566.345 47.16,591.555 C41.33,666.97 45.075,754.47 53.51,781.345 C61.95,808.22 88.2,807.595 96.01,805.72" fill-opacity="0" stroke="#1A1919" stroke-width="7" stroke-linecap="round" stroke-linejoin="round"/>
    <path d="M260.985,574.6 C260.985,577.725 258.44,580.27 255.315,580.27 L181.03,580.27 C177.91,580.27 175.36,577.725 175.36,574.6 L175.36,456.105 C175.36,452.985 177.91,450.435 181.03,450.435 L255.315,450.435 C258.44,450.435 260.985,452.985 260.985,456.105 L260.985,574.6" fill="#F2F1F0"/>
    <path d="M175.675,554.185 L175.675,524.315 L261.42,474.965 L261.61,512.31 L175.675,554.185" fill="#CBCCCB"/>
    <path d="M260.985,574.6 C260.985,577.725 258.44,580.27 255.315,580.27 L181.03,580.27 C177.91,580.27 175.36,577.725 175.36,574.6 L175.36,456.105 C175.36,452.985 177.91,450.435 181.03,450.435 L255.315,450.435 C258.44,450.435 260.985,452.985 260.985,456.105 L260.985,574.6 z M57.05,725.225 C60.8,716.475 76.875,698.35 83.405,689.26 C96.115,671.555 113.41,641.05 129.66,615.22 C133.725,608.76 140.49,606.47 145.49,609.385 L172.57,631.47 L177.53,650.375 C177.53,650.375 188.155,668.185 184.615,680.895 C182.395,688.865 150.385,746.035 136.01,765.41 C121.635,784.785 103.825,803.845 96.01,805.72" fill-opacity="0" stroke="#1A1919" stroke-width="7" stroke-linecap="round" stroke-linejoin="round"/>
    <path d="M132.885,627.09 C132.885,627.09 130.48,632.22 132.16,639.595 C135.91,656.05 161.535,692.925 170.07,688.345 C170.07,688.345 184.155,666.27 184.24,662.095 C184.445,652.51 176.845,644.59 176.845,644.59 C176.845,644.59 155.12,604.15 149.655,605.425 C143.405,606.885 132.885,627.09 132.885,627.09" fill="#FFFFFE"/>
    <path d="M132.885,627.09 C132.885,627.09 130.48,632.22 132.16,639.595 C135.91,656.05 161.535,692.925 170.07,688.345 C170.07,688.345 184.155,666.27 184.24,662.095 C184.445,652.51 176.845,644.59 176.845,644.59 C176.845,644.59 155.12,604.15 149.655,605.425 C143.405,606.885 132.885,627.09 132.885,627.09 z" fill-opacity="0" stroke="#1A1919" stroke-width="6" stroke-linecap="round" stroke-linejoin="round"/>
    <path d="M147.365,621.47 C147.365,621.47 146.74,627.095 146.95,628.135 C147.16,629.175 160.285,651.89 161.535,653.97 C162.785,656.05 174.03,663.555 176.115,658.97 C178.2,654.385 175.075,644.8 175.075,644.8 L154.66,621.675 L147.365,621.47" fill="#F8D2B5"/>
    <path d="M147.365,620.22 C154.865,610.845 152.655,606.365 152.655,606.365 C152.655,606.365 150.99,565.11 152.655,559.695 C154.32,554.28 160.155,535.925 160.57,530.53 C161.4,519.695 160.775,510.32 158.9,504.69 C157.465,500.375 168.59,500.635 171.4,506.57 C174.215,512.51 175.36,515.11 175.36,528.86 L175.36,550.74 C175.36,550.74 209.94,523.66 215.15,519.49 C220.36,515.32 257.44,490.325 264.525,488.24 C271.61,486.155 278.69,492.195 272.44,501.155 C266.195,510.115 221.61,542.61 221.61,542.61 C221.61,542.61 258.825,519.455 261.925,518.08 C271.3,513.915 280.9,526.235 269.835,534.54 C266.51,537.04 230.36,560.32 230.36,560.32 C230.36,560.32 259.985,544 263.175,542.14 C272.55,536.675 279.27,547.765 270.05,556.985 C264.6,562.435 241.455,578.55 241.455,578.55 C241.455,578.55 257.11,569.46 260.985,567.61 C271.14,562.765 276.765,571.36 266.925,581.675 C258.21,590.81 251.195,596.99 244.735,602.195 C240.31,605.76 230.005,624.22 195.135,634.21 C191.455,635.265 188.575,638.825 188.575,638.825 L173.82,660.22" fill="#F8D2B5"/>
    <path d="M147.365,620.22 C154.865,610.845 152.655,606.365 152.655,606.365 C152.655,606.365 150.99,565.11 152.655,559.695 C154.32,554.28 160.155,535.925 160.57,530.53 C161.4,519.695 160.775,510.32 158.9,504.69 C157.465,500.375 168.59,500.635 171.4,506.57 C174.215,512.51 175.36,515.11 175.36,528.86 L175.36,550.74 C175.36,550.74 209.94,523.66 215.15,519.49 C220.36,515.32 257.44,490.325 264.525,488.24 C271.61,486.155 278.69,492.195 272.44,501.155 C266.195,510.115 221.61,542.61 221.61,542.61 C221.61,542.61 258.825,519.455 261.925,518.08 C271.3,513.915 280.9,526.235 269.835,534.54 C266.51,537.04 230.36,560.32 230.36,560.32 C230.36,560.32 259.985,544 263.175,542.14 C272.55,536.675 279.27,547.765 270.05,556.985 C264.6,562.435 241.455,578.55 241.455,578.55 C241.455,578.55 257.11,569.46 260.985,567.61 C271.14,562.765 276.765,571.36 266.925,581.675 C258.21,590.81 251.195,596.99 244.735,602.195 C240.31,605.76 230.005,624.22 195.135,634.21 C191.455,635.265 188.575,638.825 188.575,638.825 L173.82,660.22" fill-opacity="0" stroke="#1A1919" stroke-width="7" stroke-linecap="round" stroke-linejoin="round"/>
    <path d="M147.365,614.8 C147.365,614.8 145.405,621.665 147.365,628.97 C150.64,641.145 165.49,665.22 176.32,663.97" fill-opacity="0" stroke="#1A1919" stroke-width="6" stroke-linecap="round" stroke-linejoin="round"/>
    <path d="M198.9,472.105 C198.9,475.95 195.785,479.065 191.94,479.065 C188.09,479.065 184.975,475.95 184.975,472.105 C184.975,468.255 188.09,465.14 191.94,465.14 C195.785,465.14 198.9,468.255 198.9,472.105" fill="#F2F1F0"/>
    <path d="M198.9,472.105 C198.9,475.95 195.785,479.065 191.94,479.065 C188.09,479.065 184.975,475.95 184.975,472.105 C184.975,468.255 188.09,465.14 191.94,465.14 C195.785,465.14 198.9,468.255 198.9,472.105 z" fill-opacity="0" stroke="#1A1919" stroke-width="5" stroke-linecap="round" stroke-linejoin="round"/>
  </g>
</svg>
